<?xml version="1.0" encoding="utf-8" standalone="no"?>
<!DOCTYPE svg PUBLIC "-//W3C//DTD SVG 1.1//EN"
  "http://www.w3.org/Graphics/SVG/1.1/DTD/svg11.dtd">
<svg xmlns:xlink="http://www.w3.org/1999/xlink" width="576pt" height="576pt" viewBox="0 0 576 576" xmlns="http://www.w3.org/2000/svg" version="1.1">
 <metadata>
  <rdf:RDF xmlns:dc="http://purl.org/dc/elements/1.1/" xmlns:cc="http://creativecommons.org/ns#" xmlns:rdf="http://www.w3.org/1999/02/22-rdf-syntax-ns#">
   <cc:Work>
    <dc:type rdf:resource="http://purl.org/dc/dcmitype/StillImage"/>
    <dc:date>2026-05-12T16:28:38.022316</dc:date>
    <dc:format>image/svg+xml</dc:format>
    <dc:creator>
     <cc:Agent>
      <dc:title>Matplotlib v3.10.7, https://matplotlib.org/</dc:title>
     </cc:Agent>
    </dc:creator>
   </cc:Work>
  </rdf:RDF>
 </metadata>
 <defs>
  <style type="text/css">*{stroke-linejoin: round; stroke-linecap: butt}</style>
 </defs>
 <g id="figure_1">
  <g id="patch_1">
   <path d="M 0 576
L 576 576
L 576 0
L 0 0
z
" style="fill: #ffffff"/>
  </g>
  <g id="axes_1">
   <g id="patch_2">
    <path d="M 59.24 251.26
L 292.61 251.26
L 292.61 60.36
L 59.24 60.36
z
" style="fill: #ffffff"/>
   </g>
   <g id="matplotlib.axis_1">
    <g id="xtick_1">
     <g id="line2d_1">
      <path d="M 69.847727 251.26
L 69.847727 60.36
" clip-path="url(#pb342b5188b)" style="fill: none; stroke: #b0b0b0; stroke-width: 0.8; stroke-linecap: square"/>
     </g>
     <g id="line2d_2">
      <defs>
       <path id="me63f5bff4e" d="M 0 0
L 0 3.5
" style="stroke: #000000; stroke-width: 0.8"/>
      </defs>
      <g>
       <use xlink:href="#me63f5bff4e" x="69.847727" y="251.26" style="stroke: #000000; stroke-width: 0.8"/>
      </g>
     </g>
     <g id="text_1">
      <!-- −1.0 -->
      <g transform="translate(58.797727 267.333594) scale(0.13 -0.13)">
       <defs>
        <path id="LibertinusSerif-Regular-2212" d="M 2963 1446
L 480 1446
Q 435 1446 409 1478
Q 384 1510 384 1549
Q 384 1619 435 1692
Q 486 1766 544 1766
L 3046 1766
Q 3098 1766 3117 1731
Q 3136 1696 3136 1658
Q 3136 1613 3081 1529
Q 3027 1446 2963 1446
z
" transform="scale(0.015625)"/>
        <path id="LibertinusSerif-Regular-31" d="M 1843 781
Q 1843 518 1888 396
Q 1933 275 2054 243
Q 2176 211 2400 198
Q 2432 173 2432 96
Q 2432 19 2400 -13
Q 2163 -6 2006 -3
Q 1850 0 1619 0
Q 1357 0 1161 -3
Q 966 -6 730 -13
Q 704 19 704 96
Q 704 173 730 198
Q 954 211 1091 243
Q 1229 275 1289 396
Q 1350 518 1350 781
L 1350 2867
Q 1350 3034 1324 3136
Q 1299 3238 1222 3238
Q 1133 3238 1008 3203
Q 883 3168 666 3078
Q 589 3130 570 3251
Q 992 3450 1277 3587
Q 1562 3725 1824 3891
Q 1862 3891 1862 3859
Q 1856 3795 1849 3542
Q 1843 3290 1843 3002
L 1843 781
z
" transform="scale(0.015625)"/>
        <path id="LibertinusSerif-Regular-2e" d="M 365 275
Q 365 416 464 515
Q 563 614 704 614
Q 845 614 944 515
Q 1043 416 1043 275
Q 1043 134 944 35
Q 845 -64 704 -64
Q 563 -64 464 35
Q 365 134 365 275
z
" transform="scale(0.015625)"/>
        <path id="LibertinusSerif-Regular-30" d="M 1459 -64
Q 1082 -64 813 205
Q 550 467 400 918
Q 250 1370 250 1882
Q 250 2515 426 2969
Q 602 3424 886 3664
Q 1171 3904 1485 3904
Q 1747 3904 1942 3779
Q 2138 3654 2266 3488
Q 2701 2912 2701 1939
Q 2701 1376 2579 992
Q 2458 608 2266 374
Q 2074 141 1859 38
Q 1645 -64 1459 -64
z
M 1485 3680
Q 1376 3680 1257 3606
Q 1139 3533 1036 3334
Q 934 3136 870 2768
Q 806 2400 806 1811
Q 806 1600 825 1321
Q 845 1043 912 777
Q 979 512 1110 336
Q 1242 160 1466 160
Q 1523 160 1632 195
Q 1741 230 1853 355
Q 1965 480 2035 742
Q 2106 986 2125 1302
Q 2144 1619 2144 2061
Q 2144 2707 2032 3078
Q 1920 3450 1773 3571
Q 1651 3680 1485 3680
z
" transform="scale(0.015625)"/>
       </defs>
       <use xlink:href="#LibertinusSerif-Regular-2212"/>
       <use xlink:href="#LibertinusSerif-Regular-31" transform="translate(54.999985 0)"/>
       <use xlink:href="#LibertinusSerif-Regular-2e" transform="translate(101.499969 0)"/>
       <use xlink:href="#LibertinusSerif-Regular-30" transform="translate(123.499954 0)"/>
      </g>
     </g>
    </g>
    <g id="xtick_2">
     <g id="line2d_3">
      <path d="M 122.886364 251.26
L 122.886364 60.36
" clip-path="url(#pb342b5188b)" style="fill: none; stroke: #b0b0b0; stroke-width: 0.8; stroke-linecap: square"/>
     </g>
     <g id="line2d_4">
      <g>
       <use xlink:href="#me63f5bff4e" x="122.886364" y="251.26" style="stroke: #000000; stroke-width: 0.8"/>
      </g>
     </g>
     <g id="text_2">
      <!-- −0.5 -->
      <g transform="translate(111.836364 267.333594) scale(0.13 -0.13)">
       <defs>
        <path id="LibertinusSerif-Regular-35" d="M 2042 1210
Q 2042 1734 1827 1958
Q 1613 2182 1299 2182
Q 1126 2182 934 2153
Q 742 2125 486 2029
L 704 3872
Q 870 3859 1043 3849
Q 1216 3840 1395 3840
Q 1651 3840 1910 3862
Q 2170 3885 2445 3910
L 2490 3885
L 2387 3450
Q 1997 3411 1715 3411
Q 1485 3411 1315 3430
Q 1146 3450 966 3469
L 838 2400
Q 928 2432 1094 2467
Q 1261 2502 1466 2502
Q 1824 2502 2080 2336
Q 2336 2170 2473 1904
Q 2611 1638 2611 1325
Q 2611 922 2438 608
Q 2266 294 1958 112
Q 1651 -70 1254 -70
Q 1075 -70 860 -6
Q 646 58 496 170
Q 346 282 346 410
Q 346 506 422 576
Q 499 646 589 646
Q 691 646 771 585
Q 851 525 915 442
Q 986 346 1072 250
Q 1158 154 1338 154
Q 1530 154 1690 291
Q 1850 429 1946 669
Q 2042 909 2042 1210
z
" transform="scale(0.015625)"/>
       </defs>
       <use xlink:href="#LibertinusSerif-Regular-2212"/>
       <use xlink:href="#LibertinusSerif-Regular-30" transform="translate(54.999985 0)"/>
       <use xlink:href="#LibertinusSerif-Regular-2e" transform="translate(101.499969 0)"/>
       <use xlink:href="#LibertinusSerif-Regular-35" transform="translate(123.499954 0)"/>
      </g>
     </g>
    </g>
    <g id="xtick_3">
     <g id="line2d_5">
      <path d="M 175.925 251.26
L 175.925 60.36
" clip-path="url(#pb342b5188b)" style="fill: none; stroke: #b0b0b0; stroke-width: 0.8; stroke-linecap: square"/>
     </g>
     <g id="line2d_6">
      <g>
       <use xlink:href="#me63f5bff4e" x="175.925" y="251.26" style="stroke: #000000; stroke-width: 0.8"/>
      </g>
     </g>
     <g id="text_3">
      <!-- 0.0 -->
      <g transform="translate(168.45 267.333594) scale(0.13 -0.13)">
       <use xlink:href="#LibertinusSerif-Regular-30"/>
       <use xlink:href="#LibertinusSerif-Regular-2e" transform="translate(46.499985 0)"/>
       <use xlink:href="#LibertinusSerif-Regular-30" transform="translate(68.499969 0)"/>
      </g>
     </g>
    </g>
    <g id="xtick_4">
     <g id="line2d_7">
      <path d="M 228.963636 251.26
L 228.963636 60.36
" clip-path="url(#pb342b5188b)" style="fill: none; stroke: #b0b0b0; stroke-width: 0.8; stroke-linecap: square"/>
     </g>
     <g id="line2d_8">
      <g>
       <use xlink:href="#me63f5bff4e" x="228.963636" y="251.26" style="stroke: #000000; stroke-width: 0.8"/>
      </g>
     </g>
     <g id="text_4">
      <!-- 0.5 -->
      <g transform="translate(221.488636 267.333594) scale(0.13 -0.13)">
       <use xlink:href="#LibertinusSerif-Regular-30"/>
       <use xlink:href="#LibertinusSerif-Regular-2e" transform="translate(46.499985 0)"/>
       <use xlink:href="#LibertinusSerif-Regular-35" transform="translate(68.499969 0)"/>
      </g>
     </g>
    </g>
    <g id="xtick_5">
     <g id="line2d_9">
      <path d="M 282.002273 251.26
L 282.002273 60.36
" clip-path="url(#pb342b5188b)" style="fill: none; stroke: #b0b0b0; stroke-width: 0.8; stroke-linecap: square"/>
     </g>
     <g id="line2d_10">
      <g>
       <use xlink:href="#me63f5bff4e" x="282.002273" y="251.26" style="stroke: #000000; stroke-width: 0.8"/>
      </g>
     </g>
     <g id="text_5">
      <!-- 1.0 -->
      <g transform="translate(274.527273 267.333594) scale(0.13 -0.13)">
       <use xlink:href="#LibertinusSerif-Regular-31"/>
       <use xlink:href="#LibertinusSerif-Regular-2e" transform="translate(46.499985 0)"/>
       <use xlink:href="#LibertinusSerif-Regular-30" transform="translate(68.499969 0)"/>
      </g>
     </g>
    </g>
    <g id="text_6">
     <!-- x -->
     <g transform="translate(172.74 283.45) scale(0.13 -0.13)">
      <defs>
       <path id="LibertinusSerif-Regular-78" d="M 1165 2291
L 1555 1715
Q 1594 1664 1619 1661
Q 1645 1658 1677 1702
L 2093 2285
Q 2208 2445 2163 2486
Q 2118 2528 1939 2547
Q 1914 2579 1914 2656
Q 1914 2733 1939 2758
Q 2067 2752 2201 2749
Q 2336 2746 2477 2746
Q 2624 2746 2736 2749
Q 2848 2752 2944 2758
Q 2976 2733 2976 2656
Q 2976 2579 2944 2547
Q 2771 2534 2636 2476
Q 2502 2419 2323 2195
L 1786 1510
Q 1747 1466 1786 1414
L 2362 602
Q 2490 422 2579 339
Q 2669 256 2761 233
Q 2854 211 3002 198
Q 3034 173 3034 96
Q 3034 19 3002 -13
Q 2886 -6 2752 -3
Q 2618 0 2432 0
Q 2259 0 2102 -3
Q 1946 -6 1798 -13
Q 1773 19 1773 96
Q 1773 173 1798 198
Q 1901 211 1958 230
Q 2016 250 2003 317
Q 1990 384 1882 538
L 1510 1050
Q 1478 1088 1456 1091
Q 1434 1094 1395 1037
L 992 454
Q 883 301 921 259
Q 960 218 1133 198
Q 1165 173 1165 96
Q 1165 19 1133 -13
Q 1011 -6 876 -3
Q 742 0 595 0
Q 454 0 342 -3
Q 230 -6 134 -13
Q 109 19 109 96
Q 109 173 134 198
Q 250 205 342 227
Q 435 250 531 323
Q 627 397 755 557
L 1293 1248
Q 1325 1286 1286 1344
L 730 2157
Q 595 2355 457 2444
Q 320 2534 154 2547
Q 128 2579 128 2656
Q 128 2733 154 2758
Q 282 2752 422 2749
Q 563 2746 704 2746
Q 851 2746 1036 2749
Q 1222 2752 1350 2758
Q 1382 2733 1382 2656
Q 1382 2579 1350 2547
Q 1133 2522 1094 2486
Q 1056 2451 1165 2291
z
" transform="scale(0.015625)"/>
      </defs>
      <use xlink:href="#LibertinusSerif-Regular-78"/>
     </g>
    </g>
   </g>
   <g id="matplotlib.axis_2">
    <g id="ytick_1">
     <g id="line2d_11">
      <path d="M 59.24 242.582727
L 292.61 242.582727
" clip-path="url(#pb342b5188b)" style="fill: none; stroke: #b0b0b0; stroke-width: 0.8; stroke-linecap: square"/>
     </g>
     <g id="line2d_12">
      <defs>
       <path id="m9d7e8c5355" d="M 0 0
L -3.5 0
" style="stroke: #000000; stroke-width: 0.8"/>
      </defs>
      <g>
       <use xlink:href="#m9d7e8c5355" x="59.24" y="242.582727" style="stroke: #000000; stroke-width: 0.8"/>
      </g>
     </g>
     <g id="text_7">
      <!-- −1.0 -->
      <g transform="translate(30.14 247.119524) scale(0.13 -0.13)">
       <use xlink:href="#LibertinusSerif-Regular-2212"/>
       <use xlink:href="#LibertinusSerif-Regular-31" transform="translate(54.999985 0)"/>
       <use xlink:href="#LibertinusSerif-Regular-2e" transform="translate(101.499969 0)"/>
       <use xlink:href="#LibertinusSerif-Regular-30" transform="translate(123.499954 0)"/>
      </g>
     </g>
    </g>
    <g id="ytick_2">
     <g id="line2d_13">
      <path d="M 59.24 199.196364
L 292.61 199.196364
" clip-path="url(#pb342b5188b)" style="fill: none; stroke: #b0b0b0; stroke-width: 0.8; stroke-linecap: square"/>
     </g>
     <g id="line2d_14">
      <g>
       <use xlink:href="#m9d7e8c5355" x="59.24" y="199.196364" style="stroke: #000000; stroke-width: 0.8"/>
      </g>
     </g>
     <g id="text_8">
      <!-- −0.5 -->
      <g transform="translate(30.14 203.733161) scale(0.13 -0.13)">
       <use xlink:href="#LibertinusSerif-Regular-2212"/>
       <use xlink:href="#LibertinusSerif-Regular-30" transform="translate(54.999985 0)"/>
       <use xlink:href="#LibertinusSerif-Regular-2e" transform="translate(101.499969 0)"/>
       <use xlink:href="#LibertinusSerif-Regular-35" transform="translate(123.499954 0)"/>
      </g>
     </g>
    </g>
    <g id="ytick_3">
     <g id="line2d_15">
      <path d="M 59.24 155.81
L 292.61 155.81
" clip-path="url(#pb342b5188b)" style="fill: none; stroke: #b0b0b0; stroke-width: 0.8; stroke-linecap: square"/>
     </g>
     <g id="line2d_16">
      <g>
       <use xlink:href="#m9d7e8c5355" x="59.24" y="155.81" style="stroke: #000000; stroke-width: 0.8"/>
      </g>
     </g>
     <g id="text_9">
      <!-- 0.0 -->
      <g transform="translate(37.29 160.346797) scale(0.13 -0.13)">
       <use xlink:href="#LibertinusSerif-Regular-30"/>
       <use xlink:href="#LibertinusSerif-Regular-2e" transform="translate(46.499985 0)"/>
       <use xlink:href="#LibertinusSerif-Regular-30" transform="translate(68.499969 0)"/>
      </g>
     </g>
    </g>
    <g id="ytick_4">
     <g id="line2d_17">
      <path d="M 59.24 112.423636
L 292.61 112.423636
" clip-path="url(#pb342b5188b)" style="fill: none; stroke: #b0b0b0; stroke-width: 0.8; stroke-linecap: square"/>
     </g>
     <g id="line2d_18">
      <g>
       <use xlink:href="#m9d7e8c5355" x="59.24" y="112.423636" style="stroke: #000000; stroke-width: 0.8"/>
      </g>
     </g>
     <g id="text_10">
      <!-- 0.5 -->
      <g transform="translate(37.29 116.960433) scale(0.13 -0.13)">
       <use xlink:href="#LibertinusSerif-Regular-30"/>
       <use xlink:href="#LibertinusSerif-Regular-2e" transform="translate(46.499985 0)"/>
       <use xlink:href="#LibertinusSerif-Regular-35" transform="translate(68.499969 0)"/>
      </g>
     </g>
    </g>
    <g id="ytick_5">
     <g id="line2d_19">
      <path d="M 59.24 69.037273
L 292.61 69.037273
" clip-path="url(#pb342b5188b)" style="fill: none; stroke: #b0b0b0; stroke-width: 0.8; stroke-linecap: square"/>
     </g>
     <g id="line2d_20">
      <g>
       <use xlink:href="#m9d7e8c5355" x="59.24" y="69.037273" style="stroke: #000000; stroke-width: 0.8"/>
      </g>
     </g>
     <g id="text_11">
      <!-- 1.0 -->
      <g transform="translate(37.29 73.57407) scale(0.13 -0.13)">
       <use xlink:href="#LibertinusSerif-Regular-31"/>
       <use xlink:href="#LibertinusSerif-Regular-2e" transform="translate(46.499985 0)"/>
       <use xlink:href="#LibertinusSerif-Regular-30" transform="translate(68.499969 0)"/>
      </g>
     </g>
    </g>
    <g id="text_12">
     <!-- activation(x) -->
     <g transform="translate(23.097187 189.251484) rotate(-90) scale(0.13 -0.13)">
      <defs>
       <path id="LibertinusSerif-Regular-61" d="M 1875 307
L 1862 307
L 1734 205
Q 1523 45 1363 -9
Q 1203 -64 1037 -64
Q 704 -64 467 86
Q 230 237 230 627
Q 230 954 528 1197
Q 826 1440 1286 1555
L 1837 1690
Q 1875 1702 1875 1766
Q 1875 2131 1792 2307
Q 1709 2483 1587 2540
Q 1466 2598 1357 2598
Q 1178 2598 1011 2537
Q 845 2477 845 2330
Q 845 2278 848 2246
Q 851 2214 858 2202
Q 877 2163 877 2086
Q 877 2022 797 1945
Q 717 1869 576 1869
Q 352 1869 352 2099
Q 352 2285 505 2445
Q 659 2605 902 2707
Q 1146 2810 1408 2810
Q 1645 2810 1865 2730
Q 2086 2650 2230 2416
Q 2374 2182 2374 1728
L 2374 787
Q 2374 570 2400 406
Q 2426 243 2566 243
Q 2630 243 2697 278
Q 2765 314 2803 346
Q 2893 294 2912 173
Q 2810 77 2650 6
Q 2490 -64 2304 -64
Q 2061 -64 1984 48
Q 1907 160 1875 307
z
M 1875 1491
L 1370 1357
Q 1018 1267 890 1068
Q 762 870 762 653
Q 762 506 874 352
Q 986 198 1222 198
Q 1357 198 1510 288
Q 1664 378 1786 480
Q 1824 512 1849 547
Q 1875 582 1875 646
L 1875 1491
z
" transform="scale(0.015625)"/>
       <path id="LibertinusSerif-Regular-63" d="M 2547 582
Q 2310 192 2051 64
Q 1792 -64 1504 -64
Q 902 -64 569 323
Q 237 710 237 1331
Q 237 1786 432 2118
Q 627 2451 931 2630
Q 1235 2810 1549 2810
Q 2010 2810 2269 2637
Q 2528 2464 2528 2202
Q 2528 2054 2422 1987
Q 2317 1920 2214 1920
Q 2112 1920 2048 1971
Q 1984 2022 1971 2150
Q 1958 2266 1923 2368
Q 1888 2470 1798 2534
Q 1709 2598 1517 2598
Q 1203 2598 995 2300
Q 787 2003 787 1472
Q 787 1101 905 825
Q 1024 550 1219 400
Q 1414 250 1645 250
Q 1850 250 2051 355
Q 2253 461 2413 672
Q 2515 659 2547 582
z
" transform="scale(0.015625)"/>
       <path id="LibertinusSerif-Regular-74" d="M 275 2746
L 570 2746
Q 570 3014 566 3155
Q 563 3296 560 3357
Q 557 3418 553 3440
Q 550 3462 550 3488
Q 550 3520 592 3539
Q 634 3558 691 3578
Q 800 3610 909 3667
Q 1011 3725 1050 3725
Q 1101 3725 1101 3667
Q 1101 3667 1088 3488
Q 1075 3309 1075 2995
L 1075 2746
L 1843 2746
Q 1894 2746 1894 2707
L 1894 2579
Q 1894 2534 1843 2515
Q 1792 2496 1741 2496
L 1075 2496
L 1075 877
Q 1075 582 1116 435
Q 1158 288 1286 288
Q 1414 288 1552 329
Q 1690 371 1811 467
Q 1907 461 1926 358
Q 1741 147 1513 41
Q 1286 -64 1062 -64
Q 845 -64 707 83
Q 570 230 570 570
L 570 2496
L 192 2496
Q 160 2496 160 2534
L 160 2618
Q 160 2656 185 2701
Q 211 2746 275 2746
z
" transform="scale(0.015625)"/>
       <path id="LibertinusSerif-Regular-69" d="M 1158 781
Q 1158 518 1193 400
Q 1229 282 1328 246
Q 1427 211 1619 198
Q 1651 173 1651 96
Q 1651 19 1619 -13
Q 1459 -6 1280 -3
Q 1101 0 909 0
Q 717 0 534 -3
Q 352 -6 192 -13
Q 166 19 166 96
Q 166 173 192 198
Q 390 218 486 250
Q 582 282 617 400
Q 653 518 653 781
L 653 2029
Q 653 2214 621 2300
Q 589 2387 499 2416
Q 410 2445 237 2464
Q 230 2496 224 2557
Q 218 2618 224 2643
Q 557 2688 761 2733
Q 966 2778 1101 2829
Q 1184 2829 1184 2784
Q 1184 2784 1177 2669
Q 1171 2554 1164 2384
Q 1158 2214 1158 2054
L 1158 781
z
M 576 3814
Q 576 3930 685 4026
Q 794 4122 909 4122
Q 1037 4122 1126 4013
Q 1216 3904 1216 3789
Q 1216 3686 1117 3584
Q 1018 3482 883 3482
Q 768 3482 672 3587
Q 576 3693 576 3814
z
" transform="scale(0.015625)"/>
       <path id="LibertinusSerif-Regular-76" d="M 2080 2547
Q 2054 2579 2054 2656
Q 2054 2733 2080 2758
Q 2202 2752 2355 2749
Q 2509 2746 2669 2746
Q 2797 2746 2909 2749
Q 3021 2752 3117 2758
Q 3149 2733 3149 2656
Q 3149 2579 3117 2547
Q 2848 2522 2752 2403
Q 2656 2285 2566 2074
L 1715 70
Q 1651 -77 1562 -77
Q 1453 -77 1402 58
L 582 2080
Q 518 2240 467 2336
Q 416 2432 329 2480
Q 243 2528 70 2547
Q 45 2579 45 2656
Q 45 2733 70 2758
Q 218 2752 362 2749
Q 506 2746 666 2746
Q 826 2746 989 2749
Q 1152 2752 1312 2758
Q 1344 2733 1344 2656
Q 1344 2579 1312 2547
Q 1056 2515 1040 2432
Q 1024 2349 1114 2118
L 1574 883
Q 1651 685 1692 678
Q 1734 672 1811 864
L 2330 2118
Q 2426 2362 2384 2445
Q 2342 2528 2080 2547
z
" transform="scale(0.015625)"/>
       <path id="LibertinusSerif-Regular-6f" d="M 262 1312
Q 262 1613 352 1885
Q 442 2157 614 2362
Q 794 2566 1050 2688
Q 1306 2810 1619 2810
Q 1984 2810 2243 2682
Q 2502 2554 2659 2339
Q 2816 2125 2889 1872
Q 2963 1619 2963 1370
Q 2963 1075 2860 790
Q 2758 506 2547 294
Q 2381 134 2147 35
Q 1914 -64 1606 -64
Q 1152 -64 854 144
Q 557 352 409 669
Q 262 986 262 1312
z
M 1523 2586
Q 1235 2586 1081 2419
Q 928 2253 870 1997
Q 813 1741 813 1459
Q 813 1274 857 1050
Q 902 826 1004 624
Q 1107 422 1276 291
Q 1446 160 1696 160
Q 1850 160 2016 243
Q 2182 326 2297 544
Q 2413 762 2413 1165
Q 2413 1856 2176 2221
Q 1939 2586 1523 2586
z
" transform="scale(0.015625)"/>
       <path id="LibertinusSerif-Regular-6e" d="M 1178 2291
Q 1459 2618 1724 2714
Q 1990 2810 2227 2810
Q 2394 2810 2534 2755
Q 2675 2701 2758 2592
Q 2867 2445 2899 2221
Q 2931 1997 2931 1734
L 2931 781
Q 2931 518 2963 400
Q 2995 282 3088 250
Q 3181 218 3360 198
Q 3386 173 3386 96
Q 3386 19 3360 -13
Q 3219 -6 3046 -3
Q 2874 0 2682 0
Q 2490 0 2333 -3
Q 2176 -6 2029 -13
Q 2003 19 2003 96
Q 2003 173 2029 198
Q 2195 218 2281 250
Q 2368 282 2397 400
Q 2426 518 2426 781
L 2426 1754
Q 2426 1901 2413 2025
Q 2400 2150 2349 2246
Q 2291 2355 2198 2416
Q 2106 2477 2010 2477
Q 1824 2477 1619 2377
Q 1414 2278 1229 2099
Q 1190 2054 1155 1993
Q 1120 1933 1120 1830
L 1120 781
Q 1120 518 1149 400
Q 1178 282 1264 250
Q 1350 218 1510 198
Q 1542 173 1542 96
Q 1542 19 1510 -13
Q 1370 -6 1216 -3
Q 1062 0 870 0
Q 678 0 496 -3
Q 314 -6 166 -13
Q 141 19 141 96
Q 141 173 166 198
Q 358 218 454 250
Q 550 282 582 400
Q 614 518 614 781
L 614 2029
Q 614 2214 582 2300
Q 550 2387 460 2419
Q 371 2451 198 2464
Q 192 2496 185 2557
Q 179 2618 186 2643
Q 518 2688 678 2733
Q 838 2778 973 2829
Q 1011 2829 1024 2813
Q 1037 2797 1050 2778
Q 1075 2726 1084 2572
Q 1094 2419 1101 2291
Q 1101 2246 1123 2252
Q 1146 2259 1178 2291
z
" transform="scale(0.015625)"/>
       <path id="LibertinusSerif-Regular-28" d="M 282 1613
Q 282 2208 461 2752
Q 640 3296 950 3747
Q 1261 4198 1638 4525
Q 1734 4518 1773 4410
Q 1696 4326 1539 4112
Q 1382 3898 1216 3555
Q 1050 3213 931 2729
Q 813 2246 813 1613
Q 813 979 931 496
Q 1050 13 1216 -332
Q 1382 -678 1539 -892
Q 1696 -1107 1773 -1197
Q 1741 -1286 1638 -1306
Q 1242 -960 986 -589
Q 730 -218 586 137
Q 442 493 378 793
Q 314 1094 298 1312
Q 282 1530 282 1613
z
" transform="scale(0.015625)"/>
       <path id="LibertinusSerif-Regular-29" d="M 1626 1613
Q 1626 1018 1446 477
Q 1267 -64 960 -518
Q 653 -973 269 -1299
Q 173 -1293 134 -1184
Q 211 -1094 368 -883
Q 525 -672 691 -329
Q 858 13 976 496
Q 1094 979 1094 1613
Q 1094 2246 976 2729
Q 858 3213 691 3558
Q 525 3904 368 4118
Q 211 4333 134 4422
Q 166 4512 269 4531
Q 666 4186 922 3814
Q 1178 3443 1322 3088
Q 1466 2733 1530 2432
Q 1594 2131 1610 1916
Q 1626 1702 1626 1613
z
" transform="scale(0.015625)"/>
      </defs>
      <use xlink:href="#LibertinusSerif-Regular-61"/>
      <use xlink:href="#LibertinusSerif-Regular-63" transform="translate(45.699997 0)"/>
      <use xlink:href="#LibertinusSerif-Regular-74" transform="translate(88.499985 0)"/>
      <use xlink:href="#LibertinusSerif-Regular-69" transform="translate(120.099976 0)"/>
      <use xlink:href="#LibertinusSerif-Regular-76" transform="translate(147.199966 0)"/>
      <use xlink:href="#LibertinusSerif-Regular-61" transform="translate(196.899963 0)"/>
      <use xlink:href="#LibertinusSerif-Regular-74" transform="translate(242.59996 0)"/>
      <use xlink:href="#LibertinusSerif-Regular-69" transform="translate(274.199951 0)"/>
      <use xlink:href="#LibertinusSerif-Regular-6f" transform="translate(301.299942 0)"/>
      <use xlink:href="#LibertinusSerif-Regular-6e" transform="translate(351.699936 0)"/>
      <use xlink:href="#LibertinusSerif-Regular-28" transform="translate(405.899933 0)"/>
      <use xlink:href="#LibertinusSerif-Regular-78" transform="translate(435.699921 0)"/>
      <use xlink:href="#LibertinusSerif-Regular-29" transform="translate(484.699905 0)"/>
     </g>
    </g>
   </g>
   <g id="line2d_21">
    <path d="M 69.847727 242.582727
L 282.002273 69.037273
L 282.002273 69.037273
" clip-path="url(#pb342b5188b)" style="fill: none; stroke: #1f77b4; stroke-width: 3; stroke-linecap: square"/>
   </g>
   <g id="line2d_22">
    <path d="M 175.925 251.26
L 175.925 60.36
" clip-path="url(#pb342b5188b)" style="fill: none; stroke: #808080; stroke-width: 0.5; stroke-linecap: square"/>
   </g>
   <g id="patch_3">
    <path d="M 59.24 251.26
L 59.24 60.36
" style="fill: none; stroke: #000000; stroke-width: 0.8; stroke-linejoin: miter; stroke-linecap: square"/>
   </g>
   <g id="patch_4">
    <path d="M 292.61 251.26
L 292.61 60.36
" style="fill: none; stroke: #000000; stroke-width: 0.8; stroke-linejoin: miter; stroke-linecap: square"/>
   </g>
   <g id="patch_5">
    <path d="M 59.24 251.26
L 292.61 251.26
" style="fill: none; stroke: #000000; stroke-width: 0.8; stroke-linejoin: miter; stroke-linecap: square"/>
   </g>
   <g id="patch_6">
    <path d="M 59.24 60.36
L 292.61 60.36
" style="fill: none; stroke: #000000; stroke-width: 0.8; stroke-linejoin: miter; stroke-linecap: square"/>
   </g>
   <g id="text_13">
    <!-- Identity -->
    <g transform="translate(150.888219 54.36) scale(0.156 -0.156)">
     <defs>
      <path id="LibertinusSerif-Regular-49" d="M 1222 781
Q 1222 518 1267 396
Q 1312 275 1433 243
Q 1555 211 1779 198
Q 1811 173 1811 96
Q 1811 19 1779 -13
Q 1562 -6 1344 -3
Q 1126 0 954 0
Q 781 0 560 -3
Q 339 -6 122 -13
Q 96 19 96 96
Q 96 173 122 198
Q 346 211 467 243
Q 589 275 633 396
Q 678 518 678 781
L 678 3347
Q 678 3616 633 3734
Q 589 3853 467 3888
Q 346 3923 122 3930
Q 96 3962 96 4038
Q 96 4115 122 4141
Q 346 4134 566 4131
Q 787 4128 947 4128
Q 1133 4128 1350 4131
Q 1568 4134 1779 4141
Q 1811 4115 1811 4038
Q 1811 3962 1779 3930
Q 1555 3923 1433 3888
Q 1312 3853 1267 3734
Q 1222 3616 1222 3347
L 1222 781
z
" transform="scale(0.015625)"/>
      <path id="LibertinusSerif-Regular-64" d="M 2138 320
Q 1901 128 1712 32
Q 1523 -64 1338 -64
Q 992 -64 749 112
Q 506 288 378 598
Q 250 909 250 1299
Q 250 1658 368 1939
Q 486 2221 691 2426
Q 883 2611 1110 2710
Q 1338 2810 1651 2810
Q 1760 2810 1869 2784
Q 1978 2758 2058 2729
Q 2138 2701 2150 2701
Q 2208 2701 2208 2758
L 2208 3578
Q 2208 3846 2176 3952
Q 2144 4058 2054 4077
Q 1965 4096 1798 4102
Q 1773 4134 1763 4195
Q 1754 4256 1760 4294
Q 1888 4307 2067 4336
Q 2246 4365 2412 4400
Q 2579 4435 2656 4467
Q 2739 4467 2739 4403
Q 2739 4403 2726 4224
Q 2714 4045 2714 3731
L 2714 832
Q 2714 595 2794 492
Q 2874 390 3181 365
Q 3213 339 3213 281
Q 3213 224 3181 192
Q 2886 160 2710 93
Q 2534 26 2426 -64
Q 2368 -90 2304 -64
Q 2304 -64 2275 67
Q 2246 198 2234 314
Q 2227 346 2195 342
Q 2163 339 2138 320
z
M 2208 794
L 2208 2010
Q 2208 2157 2189 2217
Q 2170 2278 2099 2355
Q 2003 2464 1878 2525
Q 1754 2586 1581 2586
Q 1485 2586 1309 2538
Q 1133 2490 986 2266
Q 915 2163 857 1961
Q 800 1760 800 1414
Q 800 1018 905 755
Q 1011 493 1171 365
Q 1331 237 1504 237
Q 1754 237 2106 544
Q 2176 602 2192 653
Q 2208 704 2208 794
z
" transform="scale(0.015625)"/>
      <path id="LibertinusSerif-Regular-65" d="M 2470 595
Q 2579 589 2605 493
Q 2413 243 2147 89
Q 1882 -64 1517 -64
Q 1171 -64 937 45
Q 704 154 538 346
Q 378 531 307 777
Q 237 1024 237 1293
Q 237 1658 355 1939
Q 474 2221 666 2409
Q 858 2598 1082 2697
Q 1306 2797 1517 2797
Q 1965 2797 2195 2630
Q 2426 2464 2512 2208
Q 2598 1952 2598 1683
Q 2598 1574 2477 1574
L 774 1587
Q 774 1312 828 1091
Q 883 870 979 710
Q 1126 467 1315 358
Q 1504 250 1677 250
Q 1958 250 2124 333
Q 2291 416 2470 595
z
M 794 1805
L 1952 1824
Q 2048 1824 2048 1914
Q 2048 2182 1965 2329
Q 1882 2477 1760 2531
Q 1638 2586 1517 2586
Q 1459 2586 1356 2563
Q 1254 2541 1142 2467
Q 1030 2394 934 2234
Q 838 2074 794 1805
z
" transform="scale(0.015625)"/>
      <path id="LibertinusSerif-Regular-79" d="M 1306 -1024
Q 1133 -1331 960 -1408
Q 787 -1485 685 -1485
Q 557 -1485 470 -1417
Q 384 -1350 384 -1248
Q 384 -1184 454 -1078
Q 525 -973 666 -973
Q 717 -973 752 -982
Q 787 -992 851 -992
Q 1069 -992 1171 -806
Q 1242 -659 1302 -518
Q 1363 -378 1421 -218
Q 1453 -128 1440 -13
Q 1427 102 1392 211
Q 1357 320 1331 384
L 608 2067
Q 525 2266 457 2362
Q 390 2458 310 2496
Q 230 2534 102 2547
Q 77 2579 77 2656
Q 77 2733 102 2758
Q 198 2752 329 2749
Q 461 2746 621 2746
Q 794 2746 979 2749
Q 1165 2752 1344 2758
Q 1376 2733 1376 2656
Q 1376 2579 1344 2547
Q 1075 2528 1062 2432
Q 1050 2336 1133 2131
L 1702 800
Q 1779 621 1856 794
L 2490 2259
Q 2541 2374 2502 2432
Q 2464 2490 2374 2515
Q 2285 2541 2182 2547
Q 2157 2579 2157 2656
Q 2157 2733 2182 2758
Q 2330 2752 2477 2749
Q 2624 2746 2765 2746
Q 2899 2746 3011 2749
Q 3123 2752 3219 2758
Q 3251 2733 3251 2656
Q 3251 2579 3219 2547
Q 2995 2522 2896 2432
Q 2797 2342 2701 2138
Q 2534 1779 2371 1414
Q 2208 1050 2016 598
Q 1824 147 1568 -474
Q 1510 -614 1446 -752
Q 1382 -890 1306 -1024
z
" transform="scale(0.015625)"/>
     </defs>
     <use xlink:href="#LibertinusSerif-Regular-49"/>
     <use xlink:href="#LibertinusSerif-Regular-64" transform="translate(29.699997 0)"/>
     <use xlink:href="#LibertinusSerif-Regular-65" transform="translate(80.299988 0)"/>
     <use xlink:href="#LibertinusSerif-Regular-6e" transform="translate(124.999985 0)"/>
     <use xlink:href="#LibertinusSerif-Regular-74" transform="translate(179.199982 0)"/>
     <use xlink:href="#LibertinusSerif-Regular-69" transform="translate(210.799973 0)"/>
     <use xlink:href="#LibertinusSerif-Regular-74" transform="translate(237.899963 0)"/>
     <use xlink:href="#LibertinusSerif-Regular-79" transform="translate(269.499954 0)"/>
    </g>
   </g>
  </g>
  <g id="axes_2">
   <g id="patch_7">
    <path d="M 328.59 251.26
L 561.96 251.26
L 561.96 60.36
L 328.59 60.36
z
" style="fill: #ffffff"/>
   </g>
   <g id="matplotlib.axis_3">
    <g id="xtick_6">
     <g id="line2d_23">
      <path d="M 356.877273 251.26
L 356.877273 60.36
" clip-path="url(#p4fde7f4602)" style="fill: none; stroke: #b0b0b0; stroke-width: 0.8; stroke-linecap: square"/>
     </g>
     <g id="line2d_24">
      <g>
       <use xlink:href="#me63f5bff4e" x="356.877273" y="251.26" style="stroke: #000000; stroke-width: 0.8"/>
      </g>
     </g>
     <g id="text_14">
      <!-- −5 -->
      <g transform="translate(350.279773 267.333594) scale(0.13 -0.13)">
       <use xlink:href="#LibertinusSerif-Regular-2212"/>
       <use xlink:href="#LibertinusSerif-Regular-35" transform="translate(54.999985 0)"/>
      </g>
     </g>
    </g>
    <g id="xtick_7">
     <g id="line2d_25">
      <path d="M 445.275 251.26
L 445.275 60.36
" clip-path="url(#p4fde7f4602)" style="fill: none; stroke: #b0b0b0; stroke-width: 0.8; stroke-linecap: square"/>
     </g>
     <g id="line2d_26">
      <g>
       <use xlink:href="#me63f5bff4e" x="445.275" y="251.26" style="stroke: #000000; stroke-width: 0.8"/>
      </g>
     </g>
     <g id="text_15">
      <!-- 0 -->
      <g transform="translate(442.2525 267.333594) scale(0.13 -0.13)">
       <use xlink:href="#LibertinusSerif-Regular-30"/>
      </g>
     </g>
    </g>
    <g id="xtick_8">
     <g id="line2d_27">
      <path d="M 533.672727 251.26
L 533.672727 60.36
" clip-path="url(#p4fde7f4602)" style="fill: none; stroke: #b0b0b0; stroke-width: 0.8; stroke-linecap: square"/>
     </g>
     <g id="line2d_28">
      <g>
       <use xlink:href="#me63f5bff4e" x="533.672727" y="251.26" style="stroke: #000000; stroke-width: 0.8"/>
      </g>
     </g>
     <g id="text_16">
      <!-- 5 -->
      <g transform="translate(530.650227 267.333594) scale(0.13 -0.13)">
       <use xlink:href="#LibertinusSerif-Regular-35"/>
      </g>
     </g>
    </g>
    <g id="text_17">
     <!-- x -->
     <g transform="translate(442.09 283.45) scale(0.13 -0.13)">
      <use xlink:href="#LibertinusSerif-Regular-78"/>
     </g>
    </g>
   </g>
   <g id="matplotlib.axis_4">
    <g id="ytick_6">
     <g id="line2d_29">
      <path d="M 328.59 235.351667
L 561.96 235.351667
" clip-path="url(#p4fde7f4602)" style="fill: none; stroke: #b0b0b0; stroke-width: 0.8; stroke-linecap: square"/>
     </g>
     <g id="line2d_30">
      <g>
       <use xlink:href="#m9d7e8c5355" x="328.59" y="235.351667" style="stroke: #000000; stroke-width: 0.8"/>
      </g>
     </g>
     <g id="text_18">
      <!-- 0.0 -->
      <g transform="translate(306.64 239.888464) scale(0.13 -0.13)">
       <use xlink:href="#LibertinusSerif-Regular-30"/>
       <use xlink:href="#LibertinusSerif-Regular-2e" transform="translate(46.499985 0)"/>
       <use xlink:href="#LibertinusSerif-Regular-30" transform="translate(68.499969 0)"/>
      </g>
     </g>
    </g>
    <g id="ytick_7">
     <g id="line2d_31">
      <path d="M 328.59 203.535
L 561.96 203.535
" clip-path="url(#p4fde7f4602)" style="fill: none; stroke: #b0b0b0; stroke-width: 0.8; stroke-linecap: square"/>
     </g>
     <g id="line2d_32">
      <g>
       <use xlink:href="#m9d7e8c5355" x="328.59" y="203.535" style="stroke: #000000; stroke-width: 0.8"/>
      </g>
     </g>
     <g id="text_19">
      <!-- 0.2 -->
      <g transform="translate(306.64 208.071797) scale(0.13 -0.13)">
       <defs>
        <path id="LibertinusSerif-Regular-32" d="M 390 2995
Q 390 3187 531 3398
Q 672 3610 931 3757
Q 1190 3904 1542 3904
Q 1805 3904 2051 3805
Q 2298 3706 2461 3491
Q 2624 3277 2624 2931
Q 2624 2566 2441 2320
Q 2259 2074 1984 1811
L 1338 1190
Q 1325 1178 1251 1101
Q 1178 1024 1088 905
Q 998 787 931 659
Q 864 531 864 416
L 2003 416
Q 2176 416 2272 553
Q 2368 691 2451 1030
Q 2573 1056 2637 998
Q 2637 902 2614 729
Q 2592 557 2560 355
Q 2528 154 2483 -13
Q 2483 -13 2400 -9
Q 2317 -6 2201 -3
Q 2086 0 1984 0
L 864 0
Q 762 0 637 -3
Q 512 -6 422 -9
Q 333 -13 333 -13
Q 333 179 384 358
Q 435 538 592 765
Q 749 992 1062 1312
L 1536 1779
Q 1818 2067 1939 2332
Q 2061 2598 2061 2906
Q 2061 3213 1971 3382
Q 1882 3552 1750 3616
Q 1619 3680 1504 3680
Q 1152 3680 1011 3545
Q 870 3411 870 3290
Q 870 3251 892 3209
Q 915 3168 922 3136
Q 934 3104 940 3072
Q 947 3040 947 3002
Q 947 2893 838 2819
Q 730 2746 646 2746
Q 544 2746 467 2819
Q 390 2893 390 2995
z
" transform="scale(0.015625)"/>
       </defs>
       <use xlink:href="#LibertinusSerif-Regular-30"/>
       <use xlink:href="#LibertinusSerif-Regular-2e" transform="translate(46.499985 0)"/>
       <use xlink:href="#LibertinusSerif-Regular-32" transform="translate(68.499969 0)"/>
      </g>
     </g>
    </g>
    <g id="ytick_8">
     <g id="line2d_33">
      <path d="M 328.59 171.718333
L 561.96 171.718333
" clip-path="url(#p4fde7f4602)" style="fill: none; stroke: #b0b0b0; stroke-width: 0.8; stroke-linecap: square"/>
     </g>
     <g id="line2d_34">
      <g>
       <use xlink:href="#m9d7e8c5355" x="328.59" y="171.718333" style="stroke: #000000; stroke-width: 0.8"/>
      </g>
     </g>
     <g id="text_20">
      <!-- 0.4 -->
      <g transform="translate(306.64 176.25513) scale(0.13 -0.13)">
       <defs>
        <path id="LibertinusSerif-Regular-34" d="M 2752 1402
Q 2848 1402 2848 1299
Q 2848 1242 2790 1171
Q 2733 1101 2662 1101
L 2221 1101
L 2221 512
Q 2221 358 2269 300
Q 2317 243 2416 227
Q 2515 211 2669 198
Q 2701 173 2701 96
Q 2701 19 2669 -13
Q 2515 -6 2339 -3
Q 2163 0 1971 0
Q 1754 0 1562 -3
Q 1370 -6 1216 -13
Q 1190 19 1190 96
Q 1190 173 1216 198
Q 1357 211 1472 227
Q 1587 243 1660 304
Q 1734 365 1734 512
L 1734 1101
L 429 1101
Q 288 1101 240 1200
Q 192 1299 179 1370
Q 397 1715 637 2070
Q 877 2426 1113 2758
Q 1350 3091 1555 3369
Q 1760 3648 1914 3834
Q 1933 3853 1958 3878
Q 1984 3904 2016 3904
L 2221 3904
L 2234 3891
Q 2227 3853 2224 3683
Q 2221 3514 2221 3270
L 2221 1402
L 2752 1402
z
M 1734 3245
Q 1402 2790 1078 2294
Q 755 1798 512 1402
L 1734 1402
L 1734 3245
z
" transform="scale(0.015625)"/>
       </defs>
       <use xlink:href="#LibertinusSerif-Regular-30"/>
       <use xlink:href="#LibertinusSerif-Regular-2e" transform="translate(46.499985 0)"/>
       <use xlink:href="#LibertinusSerif-Regular-34" transform="translate(68.499969 0)"/>
      </g>
     </g>
    </g>
    <g id="ytick_9">
     <g id="line2d_35">
      <path d="M 328.59 139.901667
L 561.96 139.901667
" clip-path="url(#p4fde7f4602)" style="fill: none; stroke: #b0b0b0; stroke-width: 0.8; stroke-linecap: square"/>
     </g>
     <g id="line2d_36">
      <g>
       <use xlink:href="#m9d7e8c5355" x="328.59" y="139.901667" style="stroke: #000000; stroke-width: 0.8"/>
      </g>
     </g>
     <g id="text_21">
      <!-- 0.6 -->
      <g transform="translate(306.64 144.438464) scale(0.13 -0.13)">
       <defs>
        <path id="LibertinusSerif-Regular-36" d="M 922 2195
Q 1069 2266 1238 2301
Q 1408 2336 1530 2336
Q 1965 2336 2221 2189
Q 2477 2042 2585 1805
Q 2694 1568 2694 1293
Q 2694 1088 2627 851
Q 2560 614 2416 406
Q 2272 198 2048 64
Q 1824 -70 1510 -70
Q 1325 -70 1113 -9
Q 902 51 713 217
Q 525 384 403 691
Q 282 998 282 1485
Q 282 1862 432 2275
Q 582 2688 877 3034
Q 1146 3347 1469 3558
Q 1792 3770 2278 3910
Q 2355 3866 2355 3744
Q 1933 3584 1645 3331
Q 1357 3078 1184 2784
Q 1011 2490 922 2195
z
M 864 1965
Q 838 1824 825 1699
Q 813 1574 813 1466
Q 813 922 921 637
Q 1030 352 1206 253
Q 1382 154 1581 154
Q 1818 154 1990 403
Q 2163 653 2163 1178
Q 2163 1299 2131 1456
Q 2099 1613 2016 1763
Q 1933 1914 1782 2013
Q 1632 2112 1395 2112
Q 1312 2112 1168 2089
Q 1024 2067 864 1965
z
" transform="scale(0.015625)"/>
       </defs>
       <use xlink:href="#LibertinusSerif-Regular-30"/>
       <use xlink:href="#LibertinusSerif-Regular-2e" transform="translate(46.499985 0)"/>
       <use xlink:href="#LibertinusSerif-Regular-36" transform="translate(68.499969 0)"/>
      </g>
     </g>
    </g>
    <g id="ytick_10">
     <g id="line2d_37">
      <path d="M 328.59 108.085
L 561.96 108.085
" clip-path="url(#p4fde7f4602)" style="fill: none; stroke: #b0b0b0; stroke-width: 0.8; stroke-linecap: square"/>
     </g>
     <g id="line2d_38">
      <g>
       <use xlink:href="#m9d7e8c5355" x="328.59" y="108.085" style="stroke: #000000; stroke-width: 0.8"/>
      </g>
     </g>
     <g id="text_22">
      <!-- 0.8 -->
      <g transform="translate(306.64 112.621797) scale(0.13 -0.13)">
       <defs>
        <path id="LibertinusSerif-Regular-38" d="M 2515 3104
Q 2515 2899 2380 2723
Q 2246 2547 2064 2419
Q 1882 2291 1728 2214
L 2182 1939
Q 2438 1786 2560 1552
Q 2682 1318 2682 1037
Q 2682 794 2544 538
Q 2406 282 2131 109
Q 1856 -64 1434 -64
Q 928 -64 611 192
Q 294 448 294 934
Q 294 1120 380 1325
Q 467 1530 666 1702
Q 787 1811 915 1894
Q 1043 1978 1184 2054
L 1018 2157
Q 723 2342 588 2547
Q 454 2752 454 3021
Q 454 3270 588 3468
Q 723 3667 963 3785
Q 1203 3904 1530 3904
Q 2003 3904 2259 3677
Q 2515 3450 2515 3104
z
M 1498 3680
Q 1210 3680 1059 3523
Q 909 3366 909 3142
Q 909 2995 982 2832
Q 1056 2669 1357 2470
L 1555 2349
Q 1645 2413 1763 2525
Q 1882 2637 1974 2787
Q 2067 2938 2067 3110
Q 2067 3334 1939 3507
Q 1811 3680 1498 3680
z
M 1446 160
Q 1594 160 1773 214
Q 1952 269 2083 429
Q 2214 589 2214 909
Q 2214 1139 2086 1360
Q 1958 1581 1658 1760
L 1357 1939
Q 1082 1760 947 1561
Q 813 1363 768 1196
Q 723 1030 723 934
Q 723 646 844 476
Q 966 307 1136 233
Q 1306 160 1446 160
z
" transform="scale(0.015625)"/>
       </defs>
       <use xlink:href="#LibertinusSerif-Regular-30"/>
       <use xlink:href="#LibertinusSerif-Regular-2e" transform="translate(46.499985 0)"/>
       <use xlink:href="#LibertinusSerif-Regular-38" transform="translate(68.499969 0)"/>
      </g>
     </g>
    </g>
    <g id="ytick_11">
     <g id="line2d_39">
      <path d="M 328.59 76.268333
L 561.96 76.268333
" clip-path="url(#p4fde7f4602)" style="fill: none; stroke: #b0b0b0; stroke-width: 0.8; stroke-linecap: square"/>
     </g>
     <g id="line2d_40">
      <g>
       <use xlink:href="#m9d7e8c5355" x="328.59" y="76.268333" style="stroke: #000000; stroke-width: 0.8"/>
      </g>
     </g>
     <g id="text_23">
      <!-- 1.0 -->
      <g transform="translate(306.64 80.80513) scale(0.13 -0.13)">
       <use xlink:href="#LibertinusSerif-Regular-31"/>
       <use xlink:href="#LibertinusSerif-Regular-2e" transform="translate(46.499985 0)"/>
       <use xlink:href="#LibertinusSerif-Regular-30" transform="translate(68.499969 0)"/>
      </g>
     </g>
    </g>
   </g>
   <g id="line2d_41">
    <path d="M 339.197727 234.958314
L 350.924863 234.589855
L 359.453689 234.121202
L 366.916412 233.482582
L 372.246928 232.835264
L 377.577444 231.968585
L 381.841857 231.070572
L 386.10627 229.942469
L 390.370683 228.530202
L 393.568993 227.24642
L 396.767302 225.736291
L 399.965612 223.96602
L 403.163922 221.899162
L 406.362232 219.497378
L 409.560541 216.72164
L 412.758851 213.533959
L 415.957161 209.899688
L 419.155471 205.790415
L 422.35378 201.187309
L 425.55209 196.084736
L 428.7504 190.493738
L 431.948709 184.444898
L 436.213122 175.760174
L 440.477535 166.536347
L 455.402981 133.629991
L 459.667394 125.110704
L 462.865704 119.209788
L 466.064013 113.779213
L 469.262323 108.842793
L 472.460633 104.40565
L 475.658942 100.45735
L 478.857252 96.975473
L 482.055562 93.929174
L 485.253872 91.282402
L 488.452181 88.996592
L 491.650491 87.032783
L 494.848801 85.353157
L 498.047111 83.922086
L 501.24542 82.706766
L 505.509833 81.371141
L 509.774246 80.305258
L 514.038659 79.457408
L 519.369175 78.639673
L 525.765795 77.927278
L 533.228518 77.359959
L 541.757344 76.94396
L 551.352273 76.661686
L 551.352273 76.661686
" clip-path="url(#p4fde7f4602)" style="fill: none; stroke: #ff7f0e; stroke-width: 3; stroke-linecap: square"/>
   </g>
   <g id="line2d_42">
    <path d="M 445.275 251.26
L 445.275 60.36
" clip-path="url(#p4fde7f4602)" style="fill: none; stroke: #808080; stroke-width: 0.5; stroke-linecap: square"/>
   </g>
   <g id="patch_8">
    <path d="M 328.59 251.26
L 328.59 60.36
" style="fill: none; stroke: #000000; stroke-width: 0.8; stroke-linejoin: miter; stroke-linecap: square"/>
   </g>
   <g id="patch_9">
    <path d="M 561.96 251.26
L 561.96 60.36
" style="fill: none; stroke: #000000; stroke-width: 0.8; stroke-linejoin: miter; stroke-linecap: square"/>
   </g>
   <g id="patch_10">
    <path d="M 328.59 251.26
L 561.96 251.26
" style="fill: none; stroke: #000000; stroke-width: 0.8; stroke-linejoin: miter; stroke-linecap: square"/>
   </g>
   <g id="patch_11">
    <path d="M 328.59 60.36
L 561.96 60.36
" style="fill: none; stroke: #000000; stroke-width: 0.8; stroke-linejoin: miter; stroke-linecap: square"/>
   </g>
   <g id="text_24">
    <!-- Sigmoid -->
    <g transform="translate(419.325375 54.36) scale(0.156 -0.156)">
     <defs>
      <path id="LibertinusSerif-Regular-53" d="M 2528 4038
Q 2573 3782 2598 3612
Q 2624 3443 2643 3213
Q 2598 3181 2540 3174
Q 2483 3168 2432 3174
Q 2368 3386 2265 3571
Q 2163 3757 1977 3875
Q 1792 3994 1485 3994
Q 1293 3994 1136 3888
Q 979 3782 880 3619
Q 781 3456 781 3277
Q 781 3072 886 2925
Q 992 2778 1152 2669
Q 1312 2560 1485 2483
Q 1658 2406 1805 2355
Q 2067 2253 2304 2109
Q 2541 1965 2691 1741
Q 2842 1517 2842 1178
Q 2842 870 2678 595
Q 2515 320 2240 147
Q 1901 -64 1453 -64
Q 1165 -64 985 -29
Q 806 6 656 44
Q 506 83 301 83
Q 262 243 240 368
Q 218 493 202 653
Q 186 813 173 1056
Q 275 1107 384 1075
Q 486 595 771 380
Q 1056 166 1504 166
Q 1888 166 2096 364
Q 2304 563 2304 954
Q 2304 1267 2169 1449
Q 2035 1632 1836 1731
Q 1638 1830 1446 1907
Q 1165 2016 909 2166
Q 653 2317 489 2541
Q 326 2765 326 3104
Q 326 3443 496 3692
Q 666 3942 944 4076
Q 1222 4211 1542 4211
Q 1779 4211 1913 4192
Q 2048 4173 2131 4144
Q 2214 4115 2300 4086
Q 2387 4058 2528 4038
z
" transform="scale(0.015625)"/>
      <path id="LibertinusSerif-Regular-67" d="M 2842 2477
Q 2790 2477 2736 2515
Q 2682 2554 2662 2592
Q 2611 2669 2534 2669
Q 2470 2669 2390 2617
Q 2310 2566 2278 2515
Q 2419 2374 2486 2224
Q 2554 2074 2554 1850
Q 2554 1536 2400 1318
Q 2246 1101 2000 985
Q 1754 870 1472 870
Q 1286 870 1145 905
Q 1005 941 890 1005
Q 774 845 774 634
Q 774 429 908 349
Q 1043 269 1184 269
Q 1210 269 1258 272
Q 1306 275 1376 282
Q 1491 294 1606 304
Q 1722 314 1805 314
Q 1926 314 2096 304
Q 2266 294 2442 249
Q 2618 205 2739 102
Q 2880 -13 2950 -137
Q 3021 -262 3021 -416
Q 3021 -672 2864 -880
Q 2707 -1088 2444 -1229
Q 2182 -1370 1865 -1446
Q 1549 -1523 1222 -1523
Q 979 -1523 742 -1456
Q 506 -1389 355 -1229
Q 205 -1069 205 -794
Q 205 -589 339 -381
Q 474 -173 730 -19
Q 608 45 521 173
Q 435 301 435 474
Q 435 640 508 822
Q 582 1005 717 1120
Q 582 1248 483 1414
Q 384 1581 384 1837
Q 384 2131 537 2348
Q 691 2566 944 2688
Q 1197 2810 1478 2810
Q 1760 2810 1923 2739
Q 2086 2669 2144 2630
Q 2272 2797 2467 2877
Q 2662 2957 2784 2957
Q 2912 2957 2995 2889
Q 3078 2822 3078 2720
Q 3078 2624 3004 2550
Q 2931 2477 2842 2477
z
M 2042 1786
Q 2042 2182 1882 2396
Q 1722 2611 1421 2611
Q 909 2611 909 1933
Q 909 1728 947 1529
Q 986 1331 1110 1200
Q 1235 1069 1504 1069
Q 1626 1069 1747 1123
Q 1869 1178 1955 1334
Q 2042 1491 2042 1786
z
M 845 -64
Q 704 -230 675 -364
Q 646 -499 646 -666
Q 646 -826 732 -944
Q 819 -1062 944 -1139
Q 1069 -1216 1200 -1251
Q 1331 -1286 1414 -1286
Q 1702 -1286 1993 -1206
Q 2285 -1126 2477 -969
Q 2669 -813 2669 -582
Q 2669 -454 2598 -371
Q 2528 -288 2342 -186
Q 2202 -109 2006 -93
Q 1811 -77 1568 -77
Q 1504 -77 1376 -86
Q 1248 -96 1101 -96
Q 960 -96 845 -64
z
" transform="scale(0.015625)"/>
      <path id="LibertinusSerif-Regular-6d" d="M 1088 2291
Q 1088 2234 1117 2250
Q 1146 2266 1165 2291
Q 1363 2515 1612 2662
Q 1862 2810 2138 2810
Q 2387 2810 2560 2672
Q 2733 2534 2778 2342
Q 2790 2298 2812 2310
Q 2835 2323 2848 2336
Q 3098 2598 3379 2704
Q 3661 2810 3904 2810
Q 4186 2810 4326 2675
Q 4467 2541 4515 2310
Q 4563 2080 4563 1792
L 4563 781
Q 4563 518 4592 400
Q 4621 282 4710 246
Q 4800 211 4973 198
Q 4998 173 4998 96
Q 4998 19 4973 -13
Q 4838 -6 4672 -3
Q 4506 0 4314 0
Q 4122 0 3952 -3
Q 3782 -6 3661 -13
Q 3635 19 3635 96
Q 3635 173 3661 198
Q 3827 211 3913 246
Q 4000 282 4029 400
Q 4058 518 4058 781
L 4058 1907
Q 4058 2227 3958 2352
Q 3859 2477 3674 2477
Q 3488 2477 3273 2393
Q 3059 2310 2829 2054
Q 2835 1997 2835 1933
Q 2835 1869 2835 1798
L 2835 781
Q 2835 518 2864 400
Q 2893 282 2973 246
Q 3053 211 3213 198
Q 3238 173 3238 96
Q 3238 19 3213 -13
Q 3091 -6 2934 -3
Q 2778 0 2586 0
Q 2394 0 2224 -3
Q 2054 -6 1933 -13
Q 1907 19 1907 96
Q 1907 173 1933 198
Q 2106 211 2192 246
Q 2278 282 2304 400
Q 2330 518 2330 781
L 2330 1894
Q 2330 2214 2211 2345
Q 2093 2477 1907 2477
Q 1600 2477 1216 2099
Q 1178 2054 1142 1993
Q 1107 1933 1107 1830
L 1107 781
Q 1107 518 1139 400
Q 1171 282 1254 250
Q 1338 218 1504 198
Q 1530 173 1530 96
Q 1530 19 1504 -13
Q 1357 -6 1203 -3
Q 1050 0 858 0
Q 666 0 490 -3
Q 314 -6 166 -13
Q 141 19 141 96
Q 141 173 166 198
Q 346 211 438 246
Q 531 282 566 400
Q 602 518 602 781
L 602 2029
Q 602 2214 570 2300
Q 538 2387 448 2419
Q 358 2451 186 2464
Q 179 2496 172 2557
Q 166 2618 173 2643
Q 506 2688 666 2733
Q 826 2778 960 2829
Q 998 2829 1011 2813
Q 1024 2797 1037 2778
Q 1062 2726 1072 2579
Q 1082 2432 1088 2291
z
" transform="scale(0.015625)"/>
     </defs>
     <use xlink:href="#LibertinusSerif-Regular-53"/>
     <use xlink:href="#LibertinusSerif-Regular-69" transform="translate(48.499985 0)"/>
     <use xlink:href="#LibertinusSerif-Regular-67" transform="translate(75.599976 0)"/>
     <use xlink:href="#LibertinusSerif-Regular-6d" transform="translate(125.59996 0)"/>
     <use xlink:href="#LibertinusSerif-Regular-6f" transform="translate(204.599945 0)"/>
     <use xlink:href="#LibertinusSerif-Regular-69" transform="translate(254.999939 0)"/>
     <use xlink:href="#LibertinusSerif-Regular-64" transform="translate(282.09993 0)"/>
    </g>
   </g>
  </g>
  <g id="axes_3">
   <g id="patch_12">
    <path d="M 59.24 509.2
L 292.61 509.2
L 292.61 318.3
L 59.24 318.3
z
" style="fill: #ffffff"/>
   </g>
   <g id="matplotlib.axis_5">
    <g id="xtick_9">
     <g id="line2d_43">
      <path d="M 69.847727 509.2
L 69.847727 318.3
" clip-path="url(#pf1ab39c76d)" style="fill: none; stroke: #b0b0b0; stroke-width: 0.8; stroke-linecap: square"/>
     </g>
     <g id="line2d_44">
      <g>
       <use xlink:href="#me63f5bff4e" x="69.847727" y="509.2" style="stroke: #000000; stroke-width: 0.8"/>
      </g>
     </g>
     <g id="text_25">
      <!-- −2 -->
      <g transform="translate(63.250227 525.273594) scale(0.13 -0.13)">
       <use xlink:href="#LibertinusSerif-Regular-2212"/>
       <use xlink:href="#LibertinusSerif-Regular-32" transform="translate(54.999985 0)"/>
      </g>
     </g>
    </g>
    <g id="xtick_10">
     <g id="line2d_45">
      <path d="M 122.886364 509.2
L 122.886364 318.3
" clip-path="url(#pf1ab39c76d)" style="fill: none; stroke: #b0b0b0; stroke-width: 0.8; stroke-linecap: square"/>
     </g>
     <g id="line2d_46">
      <g>
       <use xlink:href="#me63f5bff4e" x="122.886364" y="509.2" style="stroke: #000000; stroke-width: 0.8"/>
      </g>
     </g>
     <g id="text_26">
      <!-- −1 -->
      <g transform="translate(116.288864 525.273594) scale(0.13 -0.13)">
       <use xlink:href="#LibertinusSerif-Regular-2212"/>
       <use xlink:href="#LibertinusSerif-Regular-31" transform="translate(54.999985 0)"/>
      </g>
     </g>
    </g>
    <g id="xtick_11">
     <g id="line2d_47">
      <path d="M 175.925 509.2
L 175.925 318.3
" clip-path="url(#pf1ab39c76d)" style="fill: none; stroke: #b0b0b0; stroke-width: 0.8; stroke-linecap: square"/>
     </g>
     <g id="line2d_48">
      <g>
       <use xlink:href="#me63f5bff4e" x="175.925" y="509.2" style="stroke: #000000; stroke-width: 0.8"/>
      </g>
     </g>
     <g id="text_27">
      <!-- 0 -->
      <g transform="translate(172.9025 525.273594) scale(0.13 -0.13)">
       <use xlink:href="#LibertinusSerif-Regular-30"/>
      </g>
     </g>
    </g>
    <g id="xtick_12">
     <g id="line2d_49">
      <path d="M 228.963636 509.2
L 228.963636 318.3
" clip-path="url(#pf1ab39c76d)" style="fill: none; stroke: #b0b0b0; stroke-width: 0.8; stroke-linecap: square"/>
     </g>
     <g id="line2d_50">
      <g>
       <use xlink:href="#me63f5bff4e" x="228.963636" y="509.2" style="stroke: #000000; stroke-width: 0.8"/>
      </g>
     </g>
     <g id="text_28">
      <!-- 1 -->
      <g transform="translate(225.941136 525.273594) scale(0.13 -0.13)">
       <use xlink:href="#LibertinusSerif-Regular-31"/>
      </g>
     </g>
    </g>
    <g id="xtick_13">
     <g id="line2d_51">
      <path d="M 282.002273 509.2
L 282.002273 318.3
" clip-path="url(#pf1ab39c76d)" style="fill: none; stroke: #b0b0b0; stroke-width: 0.8; stroke-linecap: square"/>
     </g>
     <g id="line2d_52">
      <g>
       <use xlink:href="#me63f5bff4e" x="282.002273" y="509.2" style="stroke: #000000; stroke-width: 0.8"/>
      </g>
     </g>
     <g id="text_29">
      <!-- 2 -->
      <g transform="translate(278.979773 525.273594) scale(0.13 -0.13)">
       <use xlink:href="#LibertinusSerif-Regular-32"/>
      </g>
     </g>
    </g>
    <g id="text_30">
     <!-- x -->
     <g transform="translate(172.74 541.39) scale(0.13 -0.13)">
      <use xlink:href="#LibertinusSerif-Regular-78"/>
     </g>
    </g>
   </g>
   <g id="matplotlib.axis_6">
    <g id="ytick_12">
     <g id="line2d_53">
      <path d="M 59.24 493.291667
L 292.61 493.291667
" clip-path="url(#pf1ab39c76d)" style="fill: none; stroke: #b0b0b0; stroke-width: 0.8; stroke-linecap: square"/>
     </g>
     <g id="line2d_54">
      <g>
       <use xlink:href="#m9d7e8c5355" x="59.24" y="493.291667" style="stroke: #000000; stroke-width: 0.8"/>
      </g>
     </g>
     <g id="text_31">
      <!-- 0.0 -->
      <g transform="translate(37.29 497.828464) scale(0.13 -0.13)">
       <use xlink:href="#LibertinusSerif-Regular-30"/>
       <use xlink:href="#LibertinusSerif-Regular-2e" transform="translate(46.499985 0)"/>
       <use xlink:href="#LibertinusSerif-Regular-30" transform="translate(68.499969 0)"/>
      </g>
     </g>
    </g>
    <g id="ytick_13">
     <g id="line2d_55">
      <path d="M 59.24 461.475
L 292.61 461.475
" clip-path="url(#pf1ab39c76d)" style="fill: none; stroke: #b0b0b0; stroke-width: 0.8; stroke-linecap: square"/>
     </g>
     <g id="line2d_56">
      <g>
       <use xlink:href="#m9d7e8c5355" x="59.24" y="461.475" style="stroke: #000000; stroke-width: 0.8"/>
      </g>
     </g>
     <g id="text_32">
      <!-- 0.2 -->
      <g transform="translate(37.29 466.011797) scale(0.13 -0.13)">
       <use xlink:href="#LibertinusSerif-Regular-30"/>
       <use xlink:href="#LibertinusSerif-Regular-2e" transform="translate(46.499985 0)"/>
       <use xlink:href="#LibertinusSerif-Regular-32" transform="translate(68.499969 0)"/>
      </g>
     </g>
    </g>
    <g id="ytick_14">
     <g id="line2d_57">
      <path d="M 59.24 429.658333
L 292.61 429.658333
" clip-path="url(#pf1ab39c76d)" style="fill: none; stroke: #b0b0b0; stroke-width: 0.8; stroke-linecap: square"/>
     </g>
     <g id="line2d_58">
      <g>
       <use xlink:href="#m9d7e8c5355" x="59.24" y="429.658333" style="stroke: #000000; stroke-width: 0.8"/>
      </g>
     </g>
     <g id="text_33">
      <!-- 0.4 -->
      <g transform="translate(37.29 434.19513) scale(0.13 -0.13)">
       <use xlink:href="#LibertinusSerif-Regular-30"/>
       <use xlink:href="#LibertinusSerif-Regular-2e" transform="translate(46.499985 0)"/>
       <use xlink:href="#LibertinusSerif-Regular-34" transform="translate(68.499969 0)"/>
      </g>
     </g>
    </g>
    <g id="ytick_15">
     <g id="line2d_59">
      <path d="M 59.24 397.841667
L 292.61 397.841667
" clip-path="url(#pf1ab39c76d)" style="fill: none; stroke: #b0b0b0; stroke-width: 0.8; stroke-linecap: square"/>
     </g>
     <g id="line2d_60">
      <g>
       <use xlink:href="#m9d7e8c5355" x="59.24" y="397.841667" style="stroke: #000000; stroke-width: 0.8"/>
      </g>
     </g>
     <g id="text_34">
      <!-- 0.6 -->
      <g transform="translate(37.29 402.378464) scale(0.13 -0.13)">
       <use xlink:href="#LibertinusSerif-Regular-30"/>
       <use xlink:href="#LibertinusSerif-Regular-2e" transform="translate(46.499985 0)"/>
       <use xlink:href="#LibertinusSerif-Regular-36" transform="translate(68.499969 0)"/>
      </g>
     </g>
    </g>
    <g id="ytick_16">
     <g id="line2d_61">
      <path d="M 59.24 366.025
L 292.61 366.025
" clip-path="url(#pf1ab39c76d)" style="fill: none; stroke: #b0b0b0; stroke-width: 0.8; stroke-linecap: square"/>
     </g>
     <g id="line2d_62">
      <g>
       <use xlink:href="#m9d7e8c5355" x="59.24" y="366.025" style="stroke: #000000; stroke-width: 0.8"/>
      </g>
     </g>
     <g id="text_35">
      <!-- 0.8 -->
      <g transform="translate(37.29 370.561797) scale(0.13 -0.13)">
       <use xlink:href="#LibertinusSerif-Regular-30"/>
       <use xlink:href="#LibertinusSerif-Regular-2e" transform="translate(46.499985 0)"/>
       <use xlink:href="#LibertinusSerif-Regular-38" transform="translate(68.499969 0)"/>
      </g>
     </g>
    </g>
    <g id="ytick_17">
     <g id="line2d_63">
      <path d="M 59.24 334.208333
L 292.61 334.208333
" clip-path="url(#pf1ab39c76d)" style="fill: none; stroke: #b0b0b0; stroke-width: 0.8; stroke-linecap: square"/>
     </g>
     <g id="line2d_64">
      <g>
       <use xlink:href="#m9d7e8c5355" x="59.24" y="334.208333" style="stroke: #000000; stroke-width: 0.8"/>
      </g>
     </g>
     <g id="text_36">
      <!-- 1.0 -->
      <g transform="translate(37.29 338.74513) scale(0.13 -0.13)">
       <use xlink:href="#LibertinusSerif-Regular-31"/>
       <use xlink:href="#LibertinusSerif-Regular-2e" transform="translate(46.499985 0)"/>
       <use xlink:href="#LibertinusSerif-Regular-30" transform="translate(68.499969 0)"/>
      </g>
     </g>
    </g>
    <g id="text_37">
     <!-- activation(x) -->
     <g transform="translate(30.247187 447.191484) rotate(-90) scale(0.13 -0.13)">
      <use xlink:href="#LibertinusSerif-Regular-61"/>
      <use xlink:href="#LibertinusSerif-Regular-63" transform="translate(45.699997 0)"/>
      <use xlink:href="#LibertinusSerif-Regular-74" transform="translate(88.499985 0)"/>
      <use xlink:href="#LibertinusSerif-Regular-69" transform="translate(120.099976 0)"/>
      <use xlink:href="#LibertinusSerif-Regular-76" transform="translate(147.199966 0)"/>
      <use xlink:href="#LibertinusSerif-Regular-61" transform="translate(196.899963 0)"/>
      <use xlink:href="#LibertinusSerif-Regular-74" transform="translate(242.59996 0)"/>
      <use xlink:href="#LibertinusSerif-Regular-69" transform="translate(274.199951 0)"/>
      <use xlink:href="#LibertinusSerif-Regular-6f" transform="translate(301.299942 0)"/>
      <use xlink:href="#LibertinusSerif-Regular-6e" transform="translate(351.699936 0)"/>
      <use xlink:href="#LibertinusSerif-Regular-28" transform="translate(405.899933 0)"/>
      <use xlink:href="#LibertinusSerif-Regular-78" transform="translate(435.699921 0)"/>
      <use xlink:href="#LibertinusSerif-Regular-29" transform="translate(484.699905 0)"/>
     </g>
    </g>
   </g>
   <g id="line2d_65">
    <path d="M 69.847727 493.291667
L 175.391948 493.291667
L 176.458052 334.208333
L 282.002273 334.208333
L 282.002273 334.208333
" clip-path="url(#pf1ab39c76d)" style="fill: none; stroke: #2ca02c; stroke-width: 3; stroke-linecap: square"/>
   </g>
   <g id="line2d_66">
    <path d="M 175.925 509.2
L 175.925 318.3
" clip-path="url(#pf1ab39c76d)" style="fill: none; stroke: #808080; stroke-width: 0.5; stroke-linecap: square"/>
   </g>
   <g id="patch_13">
    <path d="M 59.24 509.2
L 59.24 318.3
" style="fill: none; stroke: #000000; stroke-width: 0.8; stroke-linejoin: miter; stroke-linecap: square"/>
   </g>
   <g id="patch_14">
    <path d="M 292.61 509.2
L 292.61 318.3
" style="fill: none; stroke: #000000; stroke-width: 0.8; stroke-linejoin: miter; stroke-linecap: square"/>
   </g>
   <g id="patch_15">
    <path d="M 59.24 509.2
L 292.61 509.2
" style="fill: none; stroke: #000000; stroke-width: 0.8; stroke-linejoin: miter; stroke-linecap: square"/>
   </g>
   <g id="patch_16">
    <path d="M 59.24 318.3
L 292.61 318.3
" style="fill: none; stroke: #000000; stroke-width: 0.8; stroke-linejoin: miter; stroke-linecap: square"/>
   </g>
   <g id="text_38">
    <!-- Binary Step -->
    <g transform="translate(138.781156 312.3) scale(0.156 -0.156)">
     <defs>
      <path id="LibertinusSerif-Regular-42" d="M 947 4128
Q 1120 4128 1350 4134
Q 1581 4141 1747 4141
Q 2195 4141 2467 4048
Q 2739 3955 2880 3808
Q 3021 3661 3072 3488
Q 3123 3315 3123 3155
Q 3123 2893 2940 2665
Q 2758 2438 2515 2317
L 2515 2304
Q 2931 2182 3216 1910
Q 3501 1638 3501 1178
Q 3501 973 3427 761
Q 3354 550 3174 374
Q 2995 198 2681 92
Q 2368 -13 1888 -13
Q 1619 -13 1456 -9
Q 1293 -6 1181 -3
Q 1069 0 954 0
Q 774 0 540 -3
Q 307 -6 122 -13
Q 96 19 96 96
Q 96 173 122 198
Q 346 211 467 243
Q 589 275 633 396
Q 678 518 678 781
L 678 3347
Q 678 3616 633 3734
Q 589 3853 467 3888
Q 346 3923 122 3930
Q 96 3962 96 4038
Q 96 4115 122 4141
Q 307 4134 540 4131
Q 774 4128 947 4128
z
M 1222 3520
L 1222 2342
L 1696 2342
Q 2093 2342 2349 2505
Q 2605 2669 2605 3078
Q 2605 3405 2473 3590
Q 2342 3776 2150 3849
Q 1958 3923 1779 3923
Q 1504 3923 1385 3894
Q 1267 3866 1244 3779
Q 1222 3693 1222 3520
z
M 1222 2125
L 1222 755
Q 1222 461 1321 329
Q 1421 198 1754 198
Q 2240 198 2486 316
Q 2733 435 2819 630
Q 2906 826 2906 1056
Q 2906 1344 2778 1587
Q 2650 1830 2378 1977
Q 2106 2125 1664 2125
L 1222 2125
z
" transform="scale(0.015625)"/>
      <path id="LibertinusSerif-Regular-72" d="M 1126 2291
Q 1126 2266 1148 2246
Q 1171 2227 1197 2278
Q 1306 2464 1494 2637
Q 1683 2810 1907 2810
Q 2112 2810 2201 2701
Q 2291 2592 2291 2502
Q 2291 2381 2198 2281
Q 2106 2182 1990 2182
Q 1907 2182 1852 2233
Q 1798 2285 1760 2330
Q 1722 2381 1680 2397
Q 1638 2413 1594 2413
Q 1555 2413 1500 2355
Q 1446 2298 1392 2224
Q 1338 2150 1299 2099
Q 1242 2016 1194 1907
Q 1146 1798 1146 1670
L 1146 781
Q 1146 518 1184 400
Q 1222 282 1334 250
Q 1446 218 1670 198
Q 1702 173 1702 96
Q 1702 19 1670 -13
Q 1504 -6 1296 -3
Q 1088 0 896 0
Q 704 0 518 -3
Q 333 -6 166 -13
Q 141 19 141 96
Q 141 173 166 198
Q 365 211 467 246
Q 570 282 605 400
Q 640 518 640 781
L 640 2029
Q 640 2214 608 2300
Q 576 2387 486 2419
Q 397 2451 224 2464
Q 218 2496 211 2557
Q 205 2618 211 2643
Q 544 2688 704 2733
Q 864 2778 998 2829
Q 1037 2829 1049 2813
Q 1062 2797 1075 2778
Q 1101 2726 1110 2604
Q 1120 2483 1126 2291
z
" transform="scale(0.015625)"/>
      <path id="LibertinusSerif-Regular-20" transform="scale(0.015625)"/>
      <path id="LibertinusSerif-Regular-70" d="M 998 2355
Q 1005 2259 1069 2330
Q 1261 2541 1491 2675
Q 1722 2810 1946 2810
Q 2272 2810 2528 2624
Q 2784 2438 2931 2140
Q 3078 1843 3078 1504
Q 3078 1114 2953 816
Q 2829 518 2605 294
Q 2406 109 2169 22
Q 1933 -64 1664 -64
Q 1350 -64 1107 38
Q 1056 58 1037 54
Q 1018 51 1018 -13
L 1018 -704
Q 1018 -966 1053 -1084
Q 1088 -1203 1203 -1238
Q 1318 -1274 1542 -1286
Q 1574 -1312 1574 -1389
Q 1574 -1466 1542 -1498
Q 1382 -1491 1171 -1488
Q 960 -1485 768 -1485
Q 576 -1485 397 -1488
Q 218 -1491 51 -1498
Q 26 -1466 26 -1389
Q 26 -1312 51 -1286
Q 250 -1274 346 -1242
Q 442 -1210 477 -1088
Q 512 -966 512 -704
L 512 2029
Q 512 2214 480 2300
Q 448 2387 358 2419
Q 269 2451 96 2464
Q 90 2496 83 2557
Q 77 2618 83 2643
Q 416 2688 576 2733
Q 736 2778 870 2829
Q 909 2829 921 2813
Q 934 2797 947 2778
Q 973 2726 982 2614
Q 992 2502 998 2355
z
M 1120 2118
Q 1062 2048 1040 1993
Q 1018 1939 1018 1837
L 1018 672
Q 1018 499 1046 438
Q 1075 378 1171 288
Q 1261 211 1401 182
Q 1542 154 1626 154
Q 1894 154 2070 262
Q 2246 371 2345 547
Q 2445 723 2486 928
Q 2528 1133 2528 1331
Q 2528 1696 2422 1961
Q 2317 2227 2144 2371
Q 1971 2515 1766 2515
Q 1626 2515 1437 2393
Q 1248 2272 1120 2118
z
" transform="scale(0.015625)"/>
     </defs>
     <use xlink:href="#LibertinusSerif-Regular-42"/>
     <use xlink:href="#LibertinusSerif-Regular-69" transform="translate(58.799988 0)"/>
     <use xlink:href="#LibertinusSerif-Regular-6e" transform="translate(85.899979 0)"/>
     <use xlink:href="#LibertinusSerif-Regular-61" transform="translate(140.099976 0)"/>
     <use xlink:href="#LibertinusSerif-Regular-72" transform="translate(185.799973 0)"/>
     <use xlink:href="#LibertinusSerif-Regular-79" transform="translate(222.999969 0)"/>
     <use xlink:href="#LibertinusSerif-Regular-20" transform="translate(274.499954 0)"/>
     <use xlink:href="#LibertinusSerif-Regular-53" transform="translate(299.499939 0)"/>
     <use xlink:href="#LibertinusSerif-Regular-74" transform="translate(347.999924 0)"/>
     <use xlink:href="#LibertinusSerif-Regular-65" transform="translate(379.599915 0)"/>
     <use xlink:href="#LibertinusSerif-Regular-70" transform="translate(424.299911 0)"/>
    </g>
   </g>
  </g>
  <g id="axes_4">
   <g id="patch_17">
    <path d="M 328.59 509.2
L 561.96 509.2
L 561.96 318.3
L 328.59 318.3
z
" style="fill: #ffffff"/>
   </g>
   <g id="matplotlib.axis_7">
    <g id="xtick_14">
     <g id="line2d_67">
      <path d="M 339.197727 509.2
L 339.197727 318.3
" clip-path="url(#p5496348b9a)" style="fill: none; stroke: #b0b0b0; stroke-width: 0.8; stroke-linecap: square"/>
     </g>
     <g id="line2d_68">
      <g>
       <use xlink:href="#me63f5bff4e" x="339.197727" y="509.2" style="stroke: #000000; stroke-width: 0.8"/>
      </g>
     </g>
     <g id="text_39">
      <!-- −1.0 -->
      <g transform="translate(328.147727 525.273594) scale(0.13 -0.13)">
       <use xlink:href="#LibertinusSerif-Regular-2212"/>
       <use xlink:href="#LibertinusSerif-Regular-31" transform="translate(54.999985 0)"/>
       <use xlink:href="#LibertinusSerif-Regular-2e" transform="translate(101.499969 0)"/>
       <use xlink:href="#LibertinusSerif-Regular-30" transform="translate(123.499954 0)"/>
      </g>
     </g>
    </g>
    <g id="xtick_15">
     <g id="line2d_69">
      <path d="M 392.236364 509.2
L 392.236364 318.3
" clip-path="url(#p5496348b9a)" style="fill: none; stroke: #b0b0b0; stroke-width: 0.8; stroke-linecap: square"/>
     </g>
     <g id="line2d_70">
      <g>
       <use xlink:href="#me63f5bff4e" x="392.236364" y="509.2" style="stroke: #000000; stroke-width: 0.8"/>
      </g>
     </g>
     <g id="text_40">
      <!-- −0.5 -->
      <g transform="translate(381.186364 525.273594) scale(0.13 -0.13)">
       <use xlink:href="#LibertinusSerif-Regular-2212"/>
       <use xlink:href="#LibertinusSerif-Regular-30" transform="translate(54.999985 0)"/>
       <use xlink:href="#LibertinusSerif-Regular-2e" transform="translate(101.499969 0)"/>
       <use xlink:href="#LibertinusSerif-Regular-35" transform="translate(123.499954 0)"/>
      </g>
     </g>
    </g>
    <g id="xtick_16">
     <g id="line2d_71">
      <path d="M 445.275 509.2
L 445.275 318.3
" clip-path="url(#p5496348b9a)" style="fill: none; stroke: #b0b0b0; stroke-width: 0.8; stroke-linecap: square"/>
     </g>
     <g id="line2d_72">
      <g>
       <use xlink:href="#me63f5bff4e" x="445.275" y="509.2" style="stroke: #000000; stroke-width: 0.8"/>
      </g>
     </g>
     <g id="text_41">
      <!-- 0.0 -->
      <g transform="translate(437.8 525.273594) scale(0.13 -0.13)">
       <use xlink:href="#LibertinusSerif-Regular-30"/>
       <use xlink:href="#LibertinusSerif-Regular-2e" transform="translate(46.499985 0)"/>
       <use xlink:href="#LibertinusSerif-Regular-30" transform="translate(68.499969 0)"/>
      </g>
     </g>
    </g>
    <g id="xtick_17">
     <g id="line2d_73">
      <path d="M 498.313636 509.2
L 498.313636 318.3
" clip-path="url(#p5496348b9a)" style="fill: none; stroke: #b0b0b0; stroke-width: 0.8; stroke-linecap: square"/>
     </g>
     <g id="line2d_74">
      <g>
       <use xlink:href="#me63f5bff4e" x="498.313636" y="509.2" style="stroke: #000000; stroke-width: 0.8"/>
      </g>
     </g>
     <g id="text_42">
      <!-- 0.5 -->
      <g transform="translate(490.838636 525.273594) scale(0.13 -0.13)">
       <use xlink:href="#LibertinusSerif-Regular-30"/>
       <use xlink:href="#LibertinusSerif-Regular-2e" transform="translate(46.499985 0)"/>
       <use xlink:href="#LibertinusSerif-Regular-35" transform="translate(68.499969 0)"/>
      </g>
     </g>
    </g>
    <g id="xtick_18">
     <g id="line2d_75">
      <path d="M 551.352273 509.2
L 551.352273 318.3
" clip-path="url(#p5496348b9a)" style="fill: none; stroke: #b0b0b0; stroke-width: 0.8; stroke-linecap: square"/>
     </g>
     <g id="line2d_76">
      <g>
       <use xlink:href="#me63f5bff4e" x="551.352273" y="509.2" style="stroke: #000000; stroke-width: 0.8"/>
      </g>
     </g>
     <g id="text_43">
      <!-- 1.0 -->
      <g transform="translate(543.877273 525.273594) scale(0.13 -0.13)">
       <use xlink:href="#LibertinusSerif-Regular-31"/>
       <use xlink:href="#LibertinusSerif-Regular-2e" transform="translate(46.499985 0)"/>
       <use xlink:href="#LibertinusSerif-Regular-30" transform="translate(68.499969 0)"/>
      </g>
     </g>
    </g>
    <g id="text_44">
     <!-- x -->
     <g transform="translate(442.09 541.39) scale(0.13 -0.13)">
      <use xlink:href="#LibertinusSerif-Regular-78"/>
     </g>
    </g>
   </g>
   <g id="matplotlib.axis_8">
    <g id="ytick_18">
     <g id="line2d_77">
      <path d="M 328.59 493.291667
L 561.96 493.291667
" clip-path="url(#p5496348b9a)" style="fill: none; stroke: #b0b0b0; stroke-width: 0.8; stroke-linecap: square"/>
     </g>
     <g id="line2d_78">
      <g>
       <use xlink:href="#m9d7e8c5355" x="328.59" y="493.291667" style="stroke: #000000; stroke-width: 0.8"/>
      </g>
     </g>
     <g id="text_45">
      <!-- 0.0 -->
      <g transform="translate(306.64 497.828464) scale(0.13 -0.13)">
       <use xlink:href="#LibertinusSerif-Regular-30"/>
       <use xlink:href="#LibertinusSerif-Regular-2e" transform="translate(46.499985 0)"/>
       <use xlink:href="#LibertinusSerif-Regular-30" transform="translate(68.499969 0)"/>
      </g>
     </g>
    </g>
    <g id="ytick_19">
     <g id="line2d_79">
      <path d="M 328.59 461.475
L 561.96 461.475
" clip-path="url(#p5496348b9a)" style="fill: none; stroke: #b0b0b0; stroke-width: 0.8; stroke-linecap: square"/>
     </g>
     <g id="line2d_80">
      <g>
       <use xlink:href="#m9d7e8c5355" x="328.59" y="461.475" style="stroke: #000000; stroke-width: 0.8"/>
      </g>
     </g>
     <g id="text_46">
      <!-- 0.2 -->
      <g transform="translate(306.64 466.011797) scale(0.13 -0.13)">
       <use xlink:href="#LibertinusSerif-Regular-30"/>
       <use xlink:href="#LibertinusSerif-Regular-2e" transform="translate(46.499985 0)"/>
       <use xlink:href="#LibertinusSerif-Regular-32" transform="translate(68.499969 0)"/>
      </g>
     </g>
    </g>
    <g id="ytick_20">
     <g id="line2d_81">
      <path d="M 328.59 429.658333
L 561.96 429.658333
" clip-path="url(#p5496348b9a)" style="fill: none; stroke: #b0b0b0; stroke-width: 0.8; stroke-linecap: square"/>
     </g>
     <g id="line2d_82">
      <g>
       <use xlink:href="#m9d7e8c5355" x="328.59" y="429.658333" style="stroke: #000000; stroke-width: 0.8"/>
      </g>
     </g>
     <g id="text_47">
      <!-- 0.4 -->
      <g transform="translate(306.64 434.19513) scale(0.13 -0.13)">
       <use xlink:href="#LibertinusSerif-Regular-30"/>
       <use xlink:href="#LibertinusSerif-Regular-2e" transform="translate(46.499985 0)"/>
       <use xlink:href="#LibertinusSerif-Regular-34" transform="translate(68.499969 0)"/>
      </g>
     </g>
    </g>
    <g id="ytick_21">
     <g id="line2d_83">
      <path d="M 328.59 397.841667
L 561.96 397.841667
" clip-path="url(#p5496348b9a)" style="fill: none; stroke: #b0b0b0; stroke-width: 0.8; stroke-linecap: square"/>
     </g>
     <g id="line2d_84">
      <g>
       <use xlink:href="#m9d7e8c5355" x="328.59" y="397.841667" style="stroke: #000000; stroke-width: 0.8"/>
      </g>
     </g>
     <g id="text_48">
      <!-- 0.6 -->
      <g transform="translate(306.64 402.378464) scale(0.13 -0.13)">
       <use xlink:href="#LibertinusSerif-Regular-30"/>
       <use xlink:href="#LibertinusSerif-Regular-2e" transform="translate(46.499985 0)"/>
       <use xlink:href="#LibertinusSerif-Regular-36" transform="translate(68.499969 0)"/>
      </g>
     </g>
    </g>
    <g id="ytick_22">
     <g id="line2d_85">
      <path d="M 328.59 366.025
L 561.96 366.025
" clip-path="url(#p5496348b9a)" style="fill: none; stroke: #b0b0b0; stroke-width: 0.8; stroke-linecap: square"/>
     </g>
     <g id="line2d_86">
      <g>
       <use xlink:href="#m9d7e8c5355" x="328.59" y="366.025" style="stroke: #000000; stroke-width: 0.8"/>
      </g>
     </g>
     <g id="text_49">
      <!-- 0.8 -->
      <g transform="translate(306.64 370.561797) scale(0.13 -0.13)">
       <use xlink:href="#LibertinusSerif-Regular-30"/>
       <use xlink:href="#LibertinusSerif-Regular-2e" transform="translate(46.499985 0)"/>
       <use xlink:href="#LibertinusSerif-Regular-38" transform="translate(68.499969 0)"/>
      </g>
     </g>
    </g>
    <g id="ytick_23">
     <g id="line2d_87">
      <path d="M 328.59 334.208333
L 561.96 334.208333
" clip-path="url(#p5496348b9a)" style="fill: none; stroke: #b0b0b0; stroke-width: 0.8; stroke-linecap: square"/>
     </g>
     <g id="line2d_88">
      <g>
       <use xlink:href="#m9d7e8c5355" x="328.59" y="334.208333" style="stroke: #000000; stroke-width: 0.8"/>
      </g>
     </g>
     <g id="text_50">
      <!-- 1.0 -->
      <g transform="translate(306.64 338.74513) scale(0.13 -0.13)">
       <use xlink:href="#LibertinusSerif-Regular-31"/>
       <use xlink:href="#LibertinusSerif-Regular-2e" transform="translate(46.499985 0)"/>
       <use xlink:href="#LibertinusSerif-Regular-30" transform="translate(68.499969 0)"/>
      </g>
     </g>
    </g>
   </g>
   <g id="line2d_89">
    <path d="M 339.197727 493.291667
L 444.741948 493.291667
L 445.808052 492.492253
L 551.352273 334.208333
L 551.352273 334.208333
" clip-path="url(#p5496348b9a)" style="fill: none; stroke: #d62728; stroke-width: 3; stroke-linecap: square"/>
   </g>
   <g id="line2d_90">
    <path d="M 445.275 509.2
L 445.275 318.3
" clip-path="url(#p5496348b9a)" style="fill: none; stroke: #808080; stroke-width: 0.5; stroke-linecap: square"/>
   </g>
   <g id="patch_18">
    <path d="M 328.59 509.2
L 328.59 318.3
" style="fill: none; stroke: #000000; stroke-width: 0.8; stroke-linejoin: miter; stroke-linecap: square"/>
   </g>
   <g id="patch_19">
    <path d="M 561.96 509.2
L 561.96 318.3
" style="fill: none; stroke: #000000; stroke-width: 0.8; stroke-linejoin: miter; stroke-linecap: square"/>
   </g>
   <g id="patch_20">
    <path d="M 328.59 509.2
L 561.96 509.2
" style="fill: none; stroke: #000000; stroke-width: 0.8; stroke-linejoin: miter; stroke-linecap: square"/>
   </g>
   <g id="patch_21">
    <path d="M 328.59 318.3
L 561.96 318.3
" style="fill: none; stroke: #000000; stroke-width: 0.8; stroke-linejoin: miter; stroke-linecap: square"/>
   </g>
   <g id="text_51">
    <!-- ReLU -->
    <g transform="translate(427.935844 312.3) scale(0.156 -0.156)">
     <defs>
      <path id="LibertinusSerif-Regular-52" d="M 1210 781
Q 1210 518 1254 396
Q 1299 275 1420 243
Q 1542 211 1766 198
Q 1798 173 1798 96
Q 1798 19 1766 -13
Q 1555 -6 1337 -3
Q 1120 0 941 0
Q 755 0 540 -3
Q 326 -6 109 -13
Q 83 19 83 96
Q 83 173 109 198
Q 333 211 454 243
Q 576 275 621 396
Q 666 518 666 781
L 666 3347
Q 666 3616 621 3734
Q 576 3853 454 3888
Q 333 3923 109 3930
Q 83 3962 83 4038
Q 83 4115 109 4141
Q 333 4134 550 4131
Q 768 4128 934 4128
Q 1107 4128 1308 4150
Q 1510 4173 1734 4173
Q 2035 4173 2323 4128
Q 2611 4083 2842 3866
Q 3181 3546 3181 3066
Q 3181 2816 3088 2624
Q 2995 2432 2857 2301
Q 2720 2170 2576 2086
Q 2432 2003 2330 1971
L 3136 627
Q 3264 416 3398 275
Q 3533 134 3750 134
Q 3795 51 3757 -19
Q 3712 -45 3635 -54
Q 3558 -64 3488 -64
Q 3200 -64 2992 109
Q 2784 282 2643 506
L 1958 1619
Q 1914 1696 1843 1750
Q 1773 1805 1625 1833
Q 1478 1862 1210 1862
L 1210 781
z
M 1741 3955
Q 1517 3955 1401 3891
Q 1286 3827 1248 3734
Q 1210 3642 1210 3546
L 1210 2080
L 1517 2080
Q 1830 2080 2070 2157
Q 2310 2234 2451 2448
Q 2592 2662 2592 3059
Q 2592 3437 2461 3629
Q 2330 3821 2134 3888
Q 1939 3955 1741 3955
z
" transform="scale(0.015625)"/>
      <path id="LibertinusSerif-Regular-4c" d="M 954 0
Q 794 0 550 -3
Q 307 -6 122 -13
Q 96 19 96 96
Q 96 173 122 198
Q 346 211 467 243
Q 589 275 633 396
Q 678 518 678 781
L 678 3347
Q 678 3616 633 3734
Q 589 3853 467 3888
Q 346 3923 122 3930
Q 96 3962 96 4038
Q 96 4115 122 4141
Q 346 4134 560 4131
Q 774 4128 947 4128
Q 1133 4128 1347 4131
Q 1562 4134 1779 4141
Q 1811 4115 1811 4038
Q 1811 3962 1779 3930
Q 1555 3923 1433 3888
Q 1312 3853 1267 3734
Q 1222 3616 1222 3347
L 1222 698
Q 1222 454 1312 352
Q 1402 250 1587 250
L 1990 250
Q 2330 250 2534 365
Q 2739 480 2854 669
Q 2970 858 3034 1088
Q 3142 1107 3245 1056
Q 3219 806 3174 518
Q 3130 230 3078 -13
Q 3078 -13 2985 -9
Q 2893 -6 2761 -6
Q 2630 -6 2505 -3
Q 2381 0 2317 0
L 954 0
z
" transform="scale(0.015625)"/>
      <path id="LibertinusSerif-Regular-55" d="M 1101 3347
L 1101 1702
Q 1101 1498 1117 1277
Q 1133 1056 1203 854
Q 1274 653 1427 499
Q 1574 358 1766 278
Q 1958 198 2189 198
Q 2592 198 2829 342
Q 3066 486 3181 716
Q 3296 947 3331 1225
Q 3366 1504 3366 1773
L 3366 3347
Q 3366 3610 3318 3722
Q 3270 3834 3145 3872
Q 3021 3910 2778 3930
Q 2752 3962 2752 4038
Q 2752 4115 2778 4141
Q 3002 4134 3210 4131
Q 3418 4128 3520 4128
Q 3629 4128 3811 4131
Q 3994 4134 4173 4141
Q 4205 4115 4205 4038
Q 4205 3962 4173 3930
Q 3981 3910 3875 3872
Q 3770 3834 3725 3718
Q 3680 3603 3680 3347
L 3680 1888
Q 3680 1459 3609 1104
Q 3539 749 3360 486
Q 3181 224 2864 80
Q 2547 -64 2054 -64
Q 1811 -64 1548 -3
Q 1286 58 1059 224
Q 832 390 694 697
Q 557 1005 557 1491
L 557 3347
Q 557 3616 515 3734
Q 474 3853 365 3888
Q 256 3923 64 3930
Q 38 3962 38 4038
Q 38 4115 64 4141
Q 250 4134 445 4131
Q 640 4128 826 4128
Q 1018 4128 1242 4131
Q 1466 4134 1690 4141
Q 1722 4115 1722 4038
Q 1722 3962 1690 3930
Q 1446 3923 1318 3888
Q 1190 3853 1145 3734
Q 1101 3616 1101 3347
z
" transform="scale(0.015625)"/>
     </defs>
     <use xlink:href="#LibertinusSerif-Regular-52"/>
     <use xlink:href="#LibertinusSerif-Regular-65" transform="translate(58.699997 0)"/>
     <use xlink:href="#LibertinusSerif-Regular-4c" transform="translate(103.399994 0)"/>
     <use xlink:href="#LibertinusSerif-Regular-55" transform="translate(156.199982 0)"/>
    </g>
   </g>
  </g>
 </g>
 <defs>
  <clipPath id="pb342b5188b">
   <rect x="59.24" y="60.36" width="233.37" height="190.9"/>
  </clipPath>
  <clipPath id="p4fde7f4602">
   <rect x="328.59" y="60.36" width="233.37" height="190.9"/>
  </clipPath>
  <clipPath id="pf1ab39c76d">
   <rect x="59.24" y="318.3" width="233.37" height="190.9"/>
  </clipPath>
  <clipPath id="p5496348b9a">
   <rect x="328.59" y="318.3" width="233.37" height="190.9"/>
  </clipPath>
 </defs>
</svg>
