<?xml version="1.0" encoding="utf-8" standalone="no"?>
<!DOCTYPE svg PUBLIC "-//W3C//DTD SVG 1.1//EN"
  "http://www.w3.org/Graphics/SVG/1.1/DTD/svg11.dtd">
<svg xmlns:xlink="http://www.w3.org/1999/xlink" width="540pt" height="324pt" viewBox="0 0 540 324" xmlns="http://www.w3.org/2000/svg" version="1.1">
 <metadata>
  <rdf:RDF xmlns:dc="http://purl.org/dc/elements/1.1/" xmlns:cc="http://creativecommons.org/ns#" xmlns:rdf="http://www.w3.org/1999/02/22-rdf-syntax-ns#">
   <cc:Work>
    <dc:type rdf:resource="http://purl.org/dc/dcmitype/StillImage"/>
    <dc:date>2026-05-14T22:34:28.728868</dc:date>
    <dc:format>image/svg+xml</dc:format>
    <dc:creator>
     <cc:Agent>
      <dc:title>Matplotlib v3.10.7, https://matplotlib.org/</dc:title>
     </cc:Agent>
    </dc:creator>
   </cc:Work>
  </rdf:RDF>
 </metadata>
 <defs>
  <style type="text/css">*{stroke-linejoin: round; stroke-linecap: butt}</style>
 </defs>
 <g id="figure_1">
  <g id="patch_1">
   <path d="M 0 324
L 540 324
L 540 0
L 0 0
z
" style="fill: #ffffff"/>
  </g>
  <g id="axes_1">
   <g id="patch_2">
    <path d="M 57.8 289.64
L 524.88 289.64
L 524.88 19.8
L 57.8 19.8
z
" style="fill: #ffffff"/>
   </g>
   <g id="matplotlib.axis_1">
    <g id="xtick_1">
     <g id="line2d_1">
      <defs>
       <path id="ma50b1716f7" d="M 0 0
L 0 3.5
" style="stroke: #000000; stroke-width: 0.8"/>
      </defs>
      <g>
       <use xlink:href="#ma50b1716f7" x="114.415758" y="289.64" style="stroke: #000000; stroke-width: 0.8"/>
      </g>
     </g>
     <g id="text_1">
      <!-- Taco -->
      <g transform="translate(100.513101 306.411563) scale(0.14 -0.14)">
       <defs>
        <path id="LibertinusSerif-Regular-54" d="M 2240 781
Q 2240 518 2288 396
Q 2336 275 2470 243
Q 2605 211 2861 198
Q 2893 173 2893 96
Q 2893 19 2861 -13
Q 2624 -6 2390 -3
Q 2157 0 1971 0
Q 1779 0 1545 -3
Q 1312 -6 1075 -13
Q 1050 19 1050 96
Q 1050 173 1075 198
Q 1331 211 1465 243
Q 1600 275 1648 396
Q 1696 518 1696 781
L 1696 3245
Q 1696 3539 1635 3708
Q 1574 3878 1395 3878
L 1082 3878
Q 768 3878 550 3731
Q 333 3584 237 3200
Q 179 3200 124 3206
Q 70 3213 19 3232
Q 70 3462 115 3702
Q 160 3942 179 4160
Q 179 4179 205 4179
Q 326 4173 585 4160
Q 845 4147 1149 4137
Q 1453 4128 1696 4128
L 2246 4128
Q 2502 4128 2793 4137
Q 3085 4147 3328 4160
Q 3571 4173 3680 4179
Q 3699 4179 3699 4160
Q 3706 3942 3728 3708
Q 3750 3475 3782 3251
Q 3738 3232 3677 3225
Q 3616 3219 3565 3219
Q 3482 3590 3258 3734
Q 3034 3878 2675 3878
L 2534 3878
Q 2362 3878 2301 3705
Q 2240 3533 2240 3226
L 2240 781
z
" transform="scale(0.015625)"/>
        <path id="LibertinusSerif-Regular-61" d="M 1875 307
L 1862 307
L 1734 205
Q 1523 45 1363 -9
Q 1203 -64 1037 -64
Q 704 -64 467 86
Q 230 237 230 627
Q 230 954 528 1197
Q 826 1440 1286 1555
L 1837 1690
Q 1875 1702 1875 1766
Q 1875 2131 1792 2307
Q 1709 2483 1587 2540
Q 1466 2598 1357 2598
Q 1178 2598 1011 2537
Q 845 2477 845 2330
Q 845 2278 848 2246
Q 851 2214 858 2202
Q 877 2163 877 2086
Q 877 2022 797 1945
Q 717 1869 576 1869
Q 352 1869 352 2099
Q 352 2285 505 2445
Q 659 2605 902 2707
Q 1146 2810 1408 2810
Q 1645 2810 1865 2730
Q 2086 2650 2230 2416
Q 2374 2182 2374 1728
L 2374 787
Q 2374 570 2400 406
Q 2426 243 2566 243
Q 2630 243 2697 278
Q 2765 314 2803 346
Q 2893 294 2912 173
Q 2810 77 2650 6
Q 2490 -64 2304 -64
Q 2061 -64 1984 48
Q 1907 160 1875 307
z
M 1875 1491
L 1370 1357
Q 1018 1267 890 1068
Q 762 870 762 653
Q 762 506 874 352
Q 986 198 1222 198
Q 1357 198 1510 288
Q 1664 378 1786 480
Q 1824 512 1849 547
Q 1875 582 1875 646
L 1875 1491
z
" transform="scale(0.015625)"/>
        <path id="LibertinusSerif-Regular-63" d="M 2547 582
Q 2310 192 2051 64
Q 1792 -64 1504 -64
Q 902 -64 569 323
Q 237 710 237 1331
Q 237 1786 432 2118
Q 627 2451 931 2630
Q 1235 2810 1549 2810
Q 2010 2810 2269 2637
Q 2528 2464 2528 2202
Q 2528 2054 2422 1987
Q 2317 1920 2214 1920
Q 2112 1920 2048 1971
Q 1984 2022 1971 2150
Q 1958 2266 1923 2368
Q 1888 2470 1798 2534
Q 1709 2598 1517 2598
Q 1203 2598 995 2300
Q 787 2003 787 1472
Q 787 1101 905 825
Q 1024 550 1219 400
Q 1414 250 1645 250
Q 1850 250 2051 355
Q 2253 461 2413 672
Q 2515 659 2547 582
z
" transform="scale(0.015625)"/>
        <path id="LibertinusSerif-Regular-6f" d="M 262 1312
Q 262 1613 352 1885
Q 442 2157 614 2362
Q 794 2566 1050 2688
Q 1306 2810 1619 2810
Q 1984 2810 2243 2682
Q 2502 2554 2659 2339
Q 2816 2125 2889 1872
Q 2963 1619 2963 1370
Q 2963 1075 2860 790
Q 2758 506 2547 294
Q 2381 134 2147 35
Q 1914 -64 1606 -64
Q 1152 -64 854 144
Q 557 352 409 669
Q 262 986 262 1312
z
M 1523 2586
Q 1235 2586 1081 2419
Q 928 2253 870 1997
Q 813 1741 813 1459
Q 813 1274 857 1050
Q 902 826 1004 624
Q 1107 422 1276 291
Q 1446 160 1696 160
Q 1850 160 2016 243
Q 2182 326 2297 544
Q 2413 762 2413 1165
Q 2413 1856 2176 2221
Q 1939 2586 1523 2586
z
" transform="scale(0.015625)"/>
       </defs>
       <use xlink:href="#LibertinusSerif-Regular-54"/>
       <use xlink:href="#LibertinusSerif-Regular-61" transform="translate(59.699997 0)"/>
       <use xlink:href="#LibertinusSerif-Regular-63" transform="translate(105.399994 0)"/>
       <use xlink:href="#LibertinusSerif-Regular-6f" transform="translate(148.199982 0)"/>
      </g>
     </g>
    </g>
    <g id="xtick_2">
     <g id="line2d_2">
      <g>
       <use xlink:href="#ma50b1716f7" x="202.877879" y="289.64" style="stroke: #000000; stroke-width: 0.8"/>
      </g>
     </g>
     <g id="text_2">
      <!-- Cat -->
      <g transform="translate(192.945535 306.411563) scale(0.14 -0.14)">
       <defs>
        <path id="LibertinusSerif-Regular-43" d="M 2285 -64
Q 1594 -64 1139 217
Q 685 499 461 963
Q 237 1427 237 1984
Q 237 2483 416 2928
Q 595 3373 915 3667
Q 1197 3930 1539 4070
Q 1882 4211 2291 4211
Q 2688 4211 2937 4147
Q 3187 4083 3360 4012
Q 3533 3942 3693 3923
Q 3744 3661 3776 3421
Q 3808 3181 3834 2931
Q 3782 2906 3731 2893
Q 3680 2880 3622 2899
Q 3539 3174 3379 3420
Q 3219 3667 2940 3820
Q 2662 3974 2221 3974
Q 1971 3974 1705 3836
Q 1440 3699 1197 3405
Q 1024 3187 921 2854
Q 819 2522 819 2106
Q 819 1754 924 1414
Q 1030 1075 1225 800
Q 1421 525 1689 361
Q 1958 198 2278 198
Q 2726 198 3075 361
Q 3424 525 3763 896
Q 3859 896 3910 800
Q 3584 371 3168 153
Q 2752 -64 2285 -64
z
" transform="scale(0.015625)"/>
        <path id="LibertinusSerif-Regular-74" d="M 275 2746
L 570 2746
Q 570 3014 566 3155
Q 563 3296 560 3357
Q 557 3418 553 3440
Q 550 3462 550 3488
Q 550 3520 592 3539
Q 634 3558 691 3578
Q 800 3610 909 3667
Q 1011 3725 1050 3725
Q 1101 3725 1101 3667
Q 1101 3667 1088 3488
Q 1075 3309 1075 2995
L 1075 2746
L 1843 2746
Q 1894 2746 1894 2707
L 1894 2579
Q 1894 2534 1843 2515
Q 1792 2496 1741 2496
L 1075 2496
L 1075 877
Q 1075 582 1116 435
Q 1158 288 1286 288
Q 1414 288 1552 329
Q 1690 371 1811 467
Q 1907 461 1926 358
Q 1741 147 1513 41
Q 1286 -64 1062 -64
Q 845 -64 707 83
Q 570 230 570 570
L 570 2496
L 192 2496
Q 160 2496 160 2534
L 160 2618
Q 160 2656 185 2701
Q 211 2746 275 2746
z
" transform="scale(0.015625)"/>
       </defs>
       <use xlink:href="#LibertinusSerif-Regular-43"/>
       <use xlink:href="#LibertinusSerif-Regular-61" transform="translate(64.599991 0)"/>
       <use xlink:href="#LibertinusSerif-Regular-74" transform="translate(110.299988 0)"/>
      </g>
     </g>
    </g>
    <g id="xtick_3">
     <g id="line2d_3">
      <g>
       <use xlink:href="#ma50b1716f7" x="291.34" y="289.64" style="stroke: #000000; stroke-width: 0.8"/>
      </g>
     </g>
     <g id="text_3">
      <!-- Goat -->
      <g transform="translate(277.605781 306.411563) scale(0.14 -0.14)">
       <defs>
        <path id="LibertinusSerif-Regular-47" d="M 2413 4211
Q 2771 4211 2992 4153
Q 3213 4096 3382 4025
Q 3552 3955 3744 3923
Q 3821 3578 3849 3360
Q 3878 3142 3891 2938
Q 3782 2893 3680 2899
Q 3597 3174 3459 3420
Q 3322 3667 3056 3824
Q 2790 3981 2323 3981
Q 2042 3981 1779 3843
Q 1517 3706 1309 3456
Q 1101 3206 976 2860
Q 851 2515 851 2093
Q 851 1779 950 1440
Q 1050 1101 1245 813
Q 1440 525 1731 345
Q 2022 166 2400 166
Q 2662 166 2947 211
Q 3232 256 3392 410
L 3392 1389
Q 3392 1581 3261 1629
Q 3130 1677 2867 1696
Q 2842 1728 2842 1814
Q 2842 1901 2867 1926
Q 3078 1920 3289 1917
Q 3501 1914 3661 1914
Q 3853 1914 3984 1917
Q 4115 1920 4230 1926
Q 4262 1901 4262 1814
Q 4262 1728 4230 1696
Q 4090 1683 4013 1619
Q 3936 1555 3936 1389
L 3936 646
Q 3936 550 4038 467
Q 3712 192 3267 64
Q 2822 -64 2253 -64
Q 1645 -64 1190 205
Q 736 474 486 931
Q 237 1389 237 1965
Q 237 2496 422 2912
Q 608 3328 921 3616
Q 1235 3904 1622 4057
Q 2010 4211 2413 4211
z
" transform="scale(0.015625)"/>
       </defs>
       <use xlink:href="#LibertinusSerif-Regular-47"/>
       <use xlink:href="#LibertinusSerif-Regular-6f" transform="translate(68.499985 0)"/>
       <use xlink:href="#LibertinusSerif-Regular-61" transform="translate(118.899979 0)"/>
       <use xlink:href="#LibertinusSerif-Regular-74" transform="translate(164.599976 0)"/>
      </g>
     </g>
    </g>
    <g id="xtick_4">
     <g id="line2d_4">
      <g>
       <use xlink:href="#ma50b1716f7" x="379.802121" y="289.64" style="stroke: #000000; stroke-width: 0.8"/>
      </g>
     </g>
     <g id="text_4">
      <!-- Cheese -->
      <g transform="translate(359.397121 306.411563) scale(0.14 -0.14)">
       <defs>
        <path id="LibertinusSerif-Regular-68" d="M 1069 1830
L 1069 781
Q 1069 518 1097 400
Q 1126 282 1206 246
Q 1286 211 1453 198
Q 1478 173 1478 96
Q 1478 19 1453 -13
Q 1318 -6 1161 -3
Q 1005 0 819 0
Q 627 0 451 -3
Q 275 -6 115 -13
Q 90 19 90 96
Q 90 173 115 198
Q 301 211 397 246
Q 493 282 528 400
Q 563 518 563 781
L 563 3578
Q 563 3846 531 3952
Q 499 4058 409 4077
Q 320 4096 154 4102
Q 128 4134 118 4195
Q 109 4256 115 4294
Q 243 4307 422 4336
Q 602 4365 768 4400
Q 934 4435 1011 4467
Q 1094 4467 1094 4403
Q 1094 4403 1081 4224
Q 1069 4045 1069 3731
L 1062 2291
Q 1062 2227 1084 2249
Q 1107 2272 1126 2291
Q 1421 2618 1699 2714
Q 1978 2810 2214 2810
Q 2381 2810 2521 2755
Q 2662 2701 2746 2592
Q 2854 2445 2886 2221
Q 2918 1997 2918 1734
L 2918 781
Q 2918 518 2950 400
Q 2982 282 3075 250
Q 3168 218 3347 198
Q 3373 173 3373 96
Q 3373 19 3347 -13
Q 3187 -6 3024 -3
Q 2861 0 2669 0
Q 2477 0 2313 -3
Q 2150 -6 2016 -13
Q 1990 19 1990 96
Q 1990 173 2016 198
Q 2182 218 2268 250
Q 2355 282 2384 400
Q 2413 518 2413 781
L 2413 1754
Q 2413 1901 2400 2025
Q 2387 2150 2336 2246
Q 2278 2355 2185 2416
Q 2093 2477 1997 2477
Q 1805 2477 1584 2377
Q 1363 2278 1178 2099
Q 1139 2054 1104 1993
Q 1069 1933 1069 1830
z
" transform="scale(0.015625)"/>
        <path id="LibertinusSerif-Regular-65" d="M 2470 595
Q 2579 589 2605 493
Q 2413 243 2147 89
Q 1882 -64 1517 -64
Q 1171 -64 937 45
Q 704 154 538 346
Q 378 531 307 777
Q 237 1024 237 1293
Q 237 1658 355 1939
Q 474 2221 666 2409
Q 858 2598 1082 2697
Q 1306 2797 1517 2797
Q 1965 2797 2195 2630
Q 2426 2464 2512 2208
Q 2598 1952 2598 1683
Q 2598 1574 2477 1574
L 774 1587
Q 774 1312 828 1091
Q 883 870 979 710
Q 1126 467 1315 358
Q 1504 250 1677 250
Q 1958 250 2124 333
Q 2291 416 2470 595
z
M 794 1805
L 1952 1824
Q 2048 1824 2048 1914
Q 2048 2182 1965 2329
Q 1882 2477 1760 2531
Q 1638 2586 1517 2586
Q 1459 2586 1356 2563
Q 1254 2541 1142 2467
Q 1030 2394 934 2234
Q 838 2074 794 1805
z
" transform="scale(0.015625)"/>
        <path id="LibertinusSerif-Regular-73" d="M 307 883
Q 339 915 409 918
Q 480 922 506 890
Q 538 768 595 589
Q 653 410 755 301
Q 806 250 915 198
Q 1024 147 1210 147
Q 1331 147 1456 195
Q 1581 243 1667 342
Q 1754 442 1754 595
Q 1754 736 1702 835
Q 1651 934 1510 1024
Q 1370 1114 1101 1222
Q 730 1376 563 1558
Q 397 1741 397 2093
Q 397 2298 525 2461
Q 653 2624 857 2717
Q 1062 2810 1299 2810
Q 1549 2810 1769 2762
Q 1990 2714 2138 2688
Q 2131 2528 2121 2355
Q 2112 2182 2099 2010
Q 2074 1984 2000 1981
Q 1926 1978 1894 2003
Q 1856 2278 1737 2403
Q 1619 2528 1494 2563
Q 1370 2598 1299 2598
Q 1139 2598 995 2492
Q 851 2387 851 2189
Q 851 1926 1027 1814
Q 1203 1702 1491 1594
Q 1818 1472 2029 1270
Q 2240 1069 2240 742
Q 2240 506 2134 349
Q 2029 192 1865 102
Q 1702 13 1529 -25
Q 1357 -64 1222 -64
Q 1043 -64 905 -45
Q 768 -26 640 6
Q 608 19 576 19
Q 544 19 512 19
Q 448 19 352 0
Q 352 205 339 425
Q 326 646 307 883
z
" transform="scale(0.015625)"/>
       </defs>
       <use xlink:href="#LibertinusSerif-Regular-43"/>
       <use xlink:href="#LibertinusSerif-Regular-68" transform="translate(64.599991 0)"/>
       <use xlink:href="#LibertinusSerif-Regular-65" transform="translate(118.399979 0)"/>
       <use xlink:href="#LibertinusSerif-Regular-65" transform="translate(163.099976 0)"/>
       <use xlink:href="#LibertinusSerif-Regular-73" transform="translate(207.799973 0)"/>
       <use xlink:href="#LibertinusSerif-Regular-65" transform="translate(246.799957 0)"/>
      </g>
     </g>
    </g>
    <g id="xtick_5">
     <g id="line2d_5">
      <g>
       <use xlink:href="#ma50b1716f7" x="468.264242" y="289.64" style="stroke: #000000; stroke-width: 0.8"/>
      </g>
     </g>
     <g id="text_5">
      <!-- Pizza -->
      <g transform="translate(453.445024 306.411563) scale(0.14 -0.14)">
       <defs>
        <path id="LibertinusSerif-Regular-50" d="M 666 3347
Q 666 3616 621 3734
Q 576 3853 454 3888
Q 333 3923 109 3930
Q 83 3962 83 4038
Q 83 4115 109 4141
Q 301 4134 528 4131
Q 755 4128 934 4128
Q 1126 4128 1376 4150
Q 1626 4173 1811 4173
Q 2253 4173 2534 4064
Q 2816 3955 2969 3785
Q 3123 3616 3184 3433
Q 3245 3251 3245 3110
Q 3245 2906 3171 2678
Q 3098 2451 2925 2252
Q 2752 2054 2457 1929
Q 2163 1805 1728 1805
Q 1408 1805 1210 1869
L 1210 781
Q 1210 518 1270 400
Q 1331 282 1472 246
Q 1613 211 1862 198
Q 1894 173 1894 96
Q 1894 19 1862 -13
Q 1626 -6 1370 -3
Q 1114 0 941 0
Q 768 0 547 -3
Q 326 -6 109 -13
Q 83 19 83 96
Q 83 173 109 198
Q 333 211 454 243
Q 576 275 621 396
Q 666 518 666 781
L 666 3347
z
M 1210 3546
L 1210 2054
Q 1261 2042 1417 2032
Q 1574 2022 1696 2022
Q 2163 2022 2406 2249
Q 2650 2477 2650 2995
Q 2650 3405 2522 3609
Q 2394 3814 2192 3884
Q 1990 3955 1766 3955
Q 1536 3955 1414 3891
Q 1293 3827 1251 3734
Q 1210 3642 1210 3546
z
" transform="scale(0.015625)"/>
        <path id="LibertinusSerif-Regular-69" d="M 1158 781
Q 1158 518 1193 400
Q 1229 282 1328 246
Q 1427 211 1619 198
Q 1651 173 1651 96
Q 1651 19 1619 -13
Q 1459 -6 1280 -3
Q 1101 0 909 0
Q 717 0 534 -3
Q 352 -6 192 -13
Q 166 19 166 96
Q 166 173 192 198
Q 390 218 486 250
Q 582 282 617 400
Q 653 518 653 781
L 653 2029
Q 653 2214 621 2300
Q 589 2387 499 2416
Q 410 2445 237 2464
Q 230 2496 224 2557
Q 218 2618 224 2643
Q 557 2688 761 2733
Q 966 2778 1101 2829
Q 1184 2829 1184 2784
Q 1184 2784 1177 2669
Q 1171 2554 1164 2384
Q 1158 2214 1158 2054
L 1158 781
z
M 576 3814
Q 576 3930 685 4026
Q 794 4122 909 4122
Q 1037 4122 1126 4013
Q 1216 3904 1216 3789
Q 1216 3686 1117 3584
Q 1018 3482 883 3482
Q 768 3482 672 3587
Q 576 3693 576 3814
z
" transform="scale(0.015625)"/>
        <path id="LibertinusSerif-Regular-7a" d="M 454 2810
Q 525 2784 601 2765
Q 678 2746 832 2746
L 2003 2746
Q 2144 2746 2259 2752
Q 2374 2758 2400 2758
Q 2477 2758 2477 2714
Q 2477 2694 2454 2646
Q 2432 2598 2362 2477
Q 2214 2234 2022 1936
Q 1830 1638 1622 1328
Q 1414 1018 1209 730
Q 1005 442 826 218
L 1677 218
Q 1926 224 2054 336
Q 2182 448 2304 704
L 2394 890
Q 2515 890 2586 851
Q 2554 614 2496 380
Q 2438 147 2381 -19
L 384 0
Q 237 0 237 77
Q 237 102 246 124
Q 256 147 294 205
Q 544 544 825 944
Q 1107 1344 1379 1753
Q 1651 2163 1869 2528
L 1050 2509
Q 909 2502 768 2390
Q 627 2278 531 1926
Q 474 1914 419 1920
Q 365 1926 320 1946
Q 365 2182 387 2368
Q 410 2554 416 2771
Q 416 2810 454 2810
z
" transform="scale(0.015625)"/>
       </defs>
       <use xlink:href="#LibertinusSerif-Regular-50"/>
       <use xlink:href="#LibertinusSerif-Regular-69" transform="translate(54.099991 0)"/>
       <use xlink:href="#LibertinusSerif-Regular-7a" transform="translate(81.199982 0)"/>
       <use xlink:href="#LibertinusSerif-Regular-7a" transform="translate(123.599976 0)"/>
       <use xlink:href="#LibertinusSerif-Regular-61" transform="translate(165.999969 0)"/>
      </g>
     </g>
    </g>
   </g>
   <g id="matplotlib.axis_2">
    <g id="ytick_1">
     <g id="line2d_6">
      <path d="M 57.8 289.64
L 524.88 289.64
" clip-path="url(#p0555c4b6e7)" style="fill: none; stroke: #b0b0b0; stroke-opacity: 0.25; stroke-width: 0.8; stroke-linecap: square"/>
     </g>
     <g id="line2d_7">
      <defs>
       <path id="mae3bab363b" d="M 0 0
L -3.5 0
" style="stroke: #000000; stroke-width: 0.8"/>
      </defs>
      <g>
       <use xlink:href="#mae3bab363b" x="57.8" y="289.64" style="stroke: #000000; stroke-width: 0.8"/>
      </g>
     </g>
     <g id="text_6">
      <!-- 0 -->
      <g transform="translate(44.29 294.525781) scale(0.14 -0.14)">
       <defs>
        <path id="LibertinusSerif-Regular-30" d="M 1459 -64
Q 1082 -64 813 205
Q 550 467 400 918
Q 250 1370 250 1882
Q 250 2515 426 2969
Q 602 3424 886 3664
Q 1171 3904 1485 3904
Q 1747 3904 1942 3779
Q 2138 3654 2266 3488
Q 2701 2912 2701 1939
Q 2701 1376 2579 992
Q 2458 608 2266 374
Q 2074 141 1859 38
Q 1645 -64 1459 -64
z
M 1485 3680
Q 1376 3680 1257 3606
Q 1139 3533 1036 3334
Q 934 3136 870 2768
Q 806 2400 806 1811
Q 806 1600 825 1321
Q 845 1043 912 777
Q 979 512 1110 336
Q 1242 160 1466 160
Q 1523 160 1632 195
Q 1741 230 1853 355
Q 1965 480 2035 742
Q 2106 986 2125 1302
Q 2144 1619 2144 2061
Q 2144 2707 2032 3078
Q 1920 3450 1773 3571
Q 1651 3680 1485 3680
z
" transform="scale(0.015625)"/>
       </defs>
       <use xlink:href="#LibertinusSerif-Regular-30"/>
      </g>
     </g>
    </g>
    <g id="ytick_2">
     <g id="line2d_8">
      <path d="M 57.8 235.672
L 524.88 235.672
" clip-path="url(#p0555c4b6e7)" style="fill: none; stroke: #b0b0b0; stroke-opacity: 0.25; stroke-width: 0.8; stroke-linecap: square"/>
     </g>
     <g id="line2d_9">
      <g>
       <use xlink:href="#mae3bab363b" x="57.8" y="235.672" style="stroke: #000000; stroke-width: 0.8"/>
      </g>
     </g>
     <g id="text_7">
      <!-- 20 -->
      <g transform="translate(37.78 240.557781) scale(0.14 -0.14)">
       <defs>
        <path id="LibertinusSerif-Regular-32" d="M 390 2995
Q 390 3187 531 3398
Q 672 3610 931 3757
Q 1190 3904 1542 3904
Q 1805 3904 2051 3805
Q 2298 3706 2461 3491
Q 2624 3277 2624 2931
Q 2624 2566 2441 2320
Q 2259 2074 1984 1811
L 1338 1190
Q 1325 1178 1251 1101
Q 1178 1024 1088 905
Q 998 787 931 659
Q 864 531 864 416
L 2003 416
Q 2176 416 2272 553
Q 2368 691 2451 1030
Q 2573 1056 2637 998
Q 2637 902 2614 729
Q 2592 557 2560 355
Q 2528 154 2483 -13
Q 2483 -13 2400 -9
Q 2317 -6 2201 -3
Q 2086 0 1984 0
L 864 0
Q 762 0 637 -3
Q 512 -6 422 -9
Q 333 -13 333 -13
Q 333 179 384 358
Q 435 538 592 765
Q 749 992 1062 1312
L 1536 1779
Q 1818 2067 1939 2332
Q 2061 2598 2061 2906
Q 2061 3213 1971 3382
Q 1882 3552 1750 3616
Q 1619 3680 1504 3680
Q 1152 3680 1011 3545
Q 870 3411 870 3290
Q 870 3251 892 3209
Q 915 3168 922 3136
Q 934 3104 940 3072
Q 947 3040 947 3002
Q 947 2893 838 2819
Q 730 2746 646 2746
Q 544 2746 467 2819
Q 390 2893 390 2995
z
" transform="scale(0.015625)"/>
       </defs>
       <use xlink:href="#LibertinusSerif-Regular-32"/>
       <use xlink:href="#LibertinusSerif-Regular-30" transform="translate(46.499985 0)"/>
      </g>
     </g>
    </g>
    <g id="ytick_3">
     <g id="line2d_10">
      <path d="M 57.8 181.704
L 524.88 181.704
" clip-path="url(#p0555c4b6e7)" style="fill: none; stroke: #b0b0b0; stroke-opacity: 0.25; stroke-width: 0.8; stroke-linecap: square"/>
     </g>
     <g id="line2d_11">
      <g>
       <use xlink:href="#mae3bab363b" x="57.8" y="181.704" style="stroke: #000000; stroke-width: 0.8"/>
      </g>
     </g>
     <g id="text_8">
      <!-- 40 -->
      <g transform="translate(37.78 186.589781) scale(0.14 -0.14)">
       <defs>
        <path id="LibertinusSerif-Regular-34" d="M 2752 1402
Q 2848 1402 2848 1299
Q 2848 1242 2790 1171
Q 2733 1101 2662 1101
L 2221 1101
L 2221 512
Q 2221 358 2269 300
Q 2317 243 2416 227
Q 2515 211 2669 198
Q 2701 173 2701 96
Q 2701 19 2669 -13
Q 2515 -6 2339 -3
Q 2163 0 1971 0
Q 1754 0 1562 -3
Q 1370 -6 1216 -13
Q 1190 19 1190 96
Q 1190 173 1216 198
Q 1357 211 1472 227
Q 1587 243 1660 304
Q 1734 365 1734 512
L 1734 1101
L 429 1101
Q 288 1101 240 1200
Q 192 1299 179 1370
Q 397 1715 637 2070
Q 877 2426 1113 2758
Q 1350 3091 1555 3369
Q 1760 3648 1914 3834
Q 1933 3853 1958 3878
Q 1984 3904 2016 3904
L 2221 3904
L 2234 3891
Q 2227 3853 2224 3683
Q 2221 3514 2221 3270
L 2221 1402
L 2752 1402
z
M 1734 3245
Q 1402 2790 1078 2294
Q 755 1798 512 1402
L 1734 1402
L 1734 3245
z
" transform="scale(0.015625)"/>
       </defs>
       <use xlink:href="#LibertinusSerif-Regular-34"/>
       <use xlink:href="#LibertinusSerif-Regular-30" transform="translate(46.499985 0)"/>
      </g>
     </g>
    </g>
    <g id="ytick_4">
     <g id="line2d_12">
      <path d="M 57.8 127.736
L 524.88 127.736
" clip-path="url(#p0555c4b6e7)" style="fill: none; stroke: #b0b0b0; stroke-opacity: 0.25; stroke-width: 0.8; stroke-linecap: square"/>
     </g>
     <g id="line2d_13">
      <g>
       <use xlink:href="#mae3bab363b" x="57.8" y="127.736" style="stroke: #000000; stroke-width: 0.8"/>
      </g>
     </g>
     <g id="text_9">
      <!-- 60 -->
      <g transform="translate(37.78 132.621781) scale(0.14 -0.14)">
       <defs>
        <path id="LibertinusSerif-Regular-36" d="M 922 2195
Q 1069 2266 1238 2301
Q 1408 2336 1530 2336
Q 1965 2336 2221 2189
Q 2477 2042 2585 1805
Q 2694 1568 2694 1293
Q 2694 1088 2627 851
Q 2560 614 2416 406
Q 2272 198 2048 64
Q 1824 -70 1510 -70
Q 1325 -70 1113 -9
Q 902 51 713 217
Q 525 384 403 691
Q 282 998 282 1485
Q 282 1862 432 2275
Q 582 2688 877 3034
Q 1146 3347 1469 3558
Q 1792 3770 2278 3910
Q 2355 3866 2355 3744
Q 1933 3584 1645 3331
Q 1357 3078 1184 2784
Q 1011 2490 922 2195
z
M 864 1965
Q 838 1824 825 1699
Q 813 1574 813 1466
Q 813 922 921 637
Q 1030 352 1206 253
Q 1382 154 1581 154
Q 1818 154 1990 403
Q 2163 653 2163 1178
Q 2163 1299 2131 1456
Q 2099 1613 2016 1763
Q 1933 1914 1782 2013
Q 1632 2112 1395 2112
Q 1312 2112 1168 2089
Q 1024 2067 864 1965
z
" transform="scale(0.015625)"/>
       </defs>
       <use xlink:href="#LibertinusSerif-Regular-36"/>
       <use xlink:href="#LibertinusSerif-Regular-30" transform="translate(46.499985 0)"/>
      </g>
     </g>
    </g>
    <g id="ytick_5">
     <g id="line2d_14">
      <path d="M 57.8 73.768
L 524.88 73.768
" clip-path="url(#p0555c4b6e7)" style="fill: none; stroke: #b0b0b0; stroke-opacity: 0.25; stroke-width: 0.8; stroke-linecap: square"/>
     </g>
     <g id="line2d_15">
      <g>
       <use xlink:href="#mae3bab363b" x="57.8" y="73.768" style="stroke: #000000; stroke-width: 0.8"/>
      </g>
     </g>
     <g id="text_10">
      <!-- 80 -->
      <g transform="translate(37.78 78.653781) scale(0.14 -0.14)">
       <defs>
        <path id="LibertinusSerif-Regular-38" d="M 2515 3104
Q 2515 2899 2380 2723
Q 2246 2547 2064 2419
Q 1882 2291 1728 2214
L 2182 1939
Q 2438 1786 2560 1552
Q 2682 1318 2682 1037
Q 2682 794 2544 538
Q 2406 282 2131 109
Q 1856 -64 1434 -64
Q 928 -64 611 192
Q 294 448 294 934
Q 294 1120 380 1325
Q 467 1530 666 1702
Q 787 1811 915 1894
Q 1043 1978 1184 2054
L 1018 2157
Q 723 2342 588 2547
Q 454 2752 454 3021
Q 454 3270 588 3468
Q 723 3667 963 3785
Q 1203 3904 1530 3904
Q 2003 3904 2259 3677
Q 2515 3450 2515 3104
z
M 1498 3680
Q 1210 3680 1059 3523
Q 909 3366 909 3142
Q 909 2995 982 2832
Q 1056 2669 1357 2470
L 1555 2349
Q 1645 2413 1763 2525
Q 1882 2637 1974 2787
Q 2067 2938 2067 3110
Q 2067 3334 1939 3507
Q 1811 3680 1498 3680
z
M 1446 160
Q 1594 160 1773 214
Q 1952 269 2083 429
Q 2214 589 2214 909
Q 2214 1139 2086 1360
Q 1958 1581 1658 1760
L 1357 1939
Q 1082 1760 947 1561
Q 813 1363 768 1196
Q 723 1030 723 934
Q 723 646 844 476
Q 966 307 1136 233
Q 1306 160 1446 160
z
" transform="scale(0.015625)"/>
       </defs>
       <use xlink:href="#LibertinusSerif-Regular-38"/>
       <use xlink:href="#LibertinusSerif-Regular-30" transform="translate(46.499985 0)"/>
      </g>
     </g>
    </g>
    <g id="ytick_6">
     <g id="line2d_16">
      <path d="M 57.8 19.8
L 524.88 19.8
" clip-path="url(#p0555c4b6e7)" style="fill: none; stroke: #b0b0b0; stroke-opacity: 0.25; stroke-width: 0.8; stroke-linecap: square"/>
     </g>
     <g id="line2d_17">
      <g>
       <use xlink:href="#mae3bab363b" x="57.8" y="19.8" style="stroke: #000000; stroke-width: 0.8"/>
      </g>
     </g>
     <g id="text_11">
      <!-- 100 -->
      <g transform="translate(31.27 24.685781) scale(0.14 -0.14)">
       <defs>
        <path id="LibertinusSerif-Regular-31" d="M 1843 781
Q 1843 518 1888 396
Q 1933 275 2054 243
Q 2176 211 2400 198
Q 2432 173 2432 96
Q 2432 19 2400 -13
Q 2163 -6 2006 -3
Q 1850 0 1619 0
Q 1357 0 1161 -3
Q 966 -6 730 -13
Q 704 19 704 96
Q 704 173 730 198
Q 954 211 1091 243
Q 1229 275 1289 396
Q 1350 518 1350 781
L 1350 2867
Q 1350 3034 1324 3136
Q 1299 3238 1222 3238
Q 1133 3238 1008 3203
Q 883 3168 666 3078
Q 589 3130 570 3251
Q 992 3450 1277 3587
Q 1562 3725 1824 3891
Q 1862 3891 1862 3859
Q 1856 3795 1849 3542
Q 1843 3290 1843 3002
L 1843 781
z
" transform="scale(0.015625)"/>
       </defs>
       <use xlink:href="#LibertinusSerif-Regular-31"/>
       <use xlink:href="#LibertinusSerif-Regular-30" transform="translate(46.499985 0)"/>
       <use xlink:href="#LibertinusSerif-Regular-30" transform="translate(92.999969 0)"/>
      </g>
     </g>
    </g>
    <g id="text_12">
     <!-- Probability (%) -->
     <g transform="translate(23.993125 196.578906) rotate(-90) scale(0.14 -0.14)">
      <defs>
       <path id="LibertinusSerif-Regular-72" d="M 1126 2291
Q 1126 2266 1148 2246
Q 1171 2227 1197 2278
Q 1306 2464 1494 2637
Q 1683 2810 1907 2810
Q 2112 2810 2201 2701
Q 2291 2592 2291 2502
Q 2291 2381 2198 2281
Q 2106 2182 1990 2182
Q 1907 2182 1852 2233
Q 1798 2285 1760 2330
Q 1722 2381 1680 2397
Q 1638 2413 1594 2413
Q 1555 2413 1500 2355
Q 1446 2298 1392 2224
Q 1338 2150 1299 2099
Q 1242 2016 1194 1907
Q 1146 1798 1146 1670
L 1146 781
Q 1146 518 1184 400
Q 1222 282 1334 250
Q 1446 218 1670 198
Q 1702 173 1702 96
Q 1702 19 1670 -13
Q 1504 -6 1296 -3
Q 1088 0 896 0
Q 704 0 518 -3
Q 333 -6 166 -13
Q 141 19 141 96
Q 141 173 166 198
Q 365 211 467 246
Q 570 282 605 400
Q 640 518 640 781
L 640 2029
Q 640 2214 608 2300
Q 576 2387 486 2419
Q 397 2451 224 2464
Q 218 2496 211 2557
Q 205 2618 211 2643
Q 544 2688 704 2733
Q 864 2778 998 2829
Q 1037 2829 1049 2813
Q 1062 2797 1075 2778
Q 1101 2726 1110 2604
Q 1120 2483 1126 2291
z
" transform="scale(0.015625)"/>
       <path id="LibertinusSerif-Regular-62" d="M 1069 2522
Q 1216 2656 1398 2733
Q 1581 2810 1786 2810
Q 2067 2810 2326 2656
Q 2586 2502 2752 2220
Q 2918 1939 2918 1549
Q 2918 1165 2790 867
Q 2662 570 2454 362
Q 2246 154 1996 45
Q 1747 -64 1504 -64
Q 1338 -64 1194 -32
Q 1050 0 941 96
Q 890 141 851 137
Q 813 134 768 77
Q 730 32 688 -9
Q 646 -51 614 -77
Q 557 -77 528 -57
Q 499 -38 474 0
Q 486 70 492 169
Q 499 269 499 454
L 499 3578
Q 499 3846 467 3952
Q 435 4058 345 4077
Q 256 4096 90 4102
Q 64 4134 54 4195
Q 45 4256 51 4294
Q 179 4307 358 4336
Q 538 4365 704 4400
Q 870 4435 947 4467
Q 1030 4467 1030 4403
Q 1030 4403 1017 4224
Q 1005 4045 1005 3731
L 1005 2554
Q 1005 2464 1069 2522
z
M 1114 2323
Q 1050 2266 1027 2211
Q 1005 2157 1005 2054
L 1005 454
Q 1101 333 1209 243
Q 1318 154 1466 154
Q 1773 154 1971 323
Q 2170 493 2269 781
Q 2368 1069 2368 1434
Q 2368 1747 2272 1993
Q 2176 2240 2016 2384
Q 1856 2528 1658 2528
Q 1517 2528 1379 2480
Q 1242 2432 1114 2323
z
" transform="scale(0.015625)"/>
       <path id="LibertinusSerif-Regular-6c" d="M 608 781
L 608 3578
Q 608 3821 582 3926
Q 557 4032 470 4061
Q 384 4090 198 4102
Q 173 4134 163 4195
Q 154 4256 160 4294
Q 288 4307 467 4336
Q 646 4365 812 4400
Q 979 4435 1056 4467
Q 1139 4467 1139 4403
Q 1139 4403 1126 4224
Q 1114 4045 1114 3731
L 1114 781
Q 1114 518 1149 396
Q 1184 275 1283 243
Q 1382 211 1574 198
Q 1606 173 1606 96
Q 1606 19 1574 -13
Q 1414 -6 1235 -3
Q 1056 0 864 0
Q 672 0 493 -3
Q 314 -6 147 -13
Q 122 19 122 96
Q 122 173 147 198
Q 346 211 442 243
Q 538 275 573 396
Q 608 518 608 781
z
" transform="scale(0.015625)"/>
       <path id="LibertinusSerif-Regular-79" d="M 1306 -1024
Q 1133 -1331 960 -1408
Q 787 -1485 685 -1485
Q 557 -1485 470 -1417
Q 384 -1350 384 -1248
Q 384 -1184 454 -1078
Q 525 -973 666 -973
Q 717 -973 752 -982
Q 787 -992 851 -992
Q 1069 -992 1171 -806
Q 1242 -659 1302 -518
Q 1363 -378 1421 -218
Q 1453 -128 1440 -13
Q 1427 102 1392 211
Q 1357 320 1331 384
L 608 2067
Q 525 2266 457 2362
Q 390 2458 310 2496
Q 230 2534 102 2547
Q 77 2579 77 2656
Q 77 2733 102 2758
Q 198 2752 329 2749
Q 461 2746 621 2746
Q 794 2746 979 2749
Q 1165 2752 1344 2758
Q 1376 2733 1376 2656
Q 1376 2579 1344 2547
Q 1075 2528 1062 2432
Q 1050 2336 1133 2131
L 1702 800
Q 1779 621 1856 794
L 2490 2259
Q 2541 2374 2502 2432
Q 2464 2490 2374 2515
Q 2285 2541 2182 2547
Q 2157 2579 2157 2656
Q 2157 2733 2182 2758
Q 2330 2752 2477 2749
Q 2624 2746 2765 2746
Q 2899 2746 3011 2749
Q 3123 2752 3219 2758
Q 3251 2733 3251 2656
Q 3251 2579 3219 2547
Q 2995 2522 2896 2432
Q 2797 2342 2701 2138
Q 2534 1779 2371 1414
Q 2208 1050 2016 598
Q 1824 147 1568 -474
Q 1510 -614 1446 -752
Q 1382 -890 1306 -1024
z
" transform="scale(0.015625)"/>
       <path id="LibertinusSerif-Regular-20" transform="scale(0.015625)"/>
       <path id="LibertinusSerif-Regular-28" d="M 282 1613
Q 282 2208 461 2752
Q 640 3296 950 3747
Q 1261 4198 1638 4525
Q 1734 4518 1773 4410
Q 1696 4326 1539 4112
Q 1382 3898 1216 3555
Q 1050 3213 931 2729
Q 813 2246 813 1613
Q 813 979 931 496
Q 1050 13 1216 -332
Q 1382 -678 1539 -892
Q 1696 -1107 1773 -1197
Q 1741 -1286 1638 -1306
Q 1242 -960 986 -589
Q 730 -218 586 137
Q 442 493 378 793
Q 314 1094 298 1312
Q 282 1530 282 1613
z
" transform="scale(0.015625)"/>
       <path id="LibertinusSerif-Regular-25" d="M 2330 3334
Q 2464 3334 2653 3366
Q 2842 3398 3018 3472
Q 3194 3546 3290 3680
L 3494 3578
L 870 -77
L 653 19
L 2950 3219
Q 2771 3149 2592 3123
Q 2413 3098 2266 3098
Q 2157 3098 2000 3139
Q 1843 3181 1754 3232
Q 1773 3168 1773 3072
Q 1773 2918 1721 2726
Q 1670 2534 1564 2352
Q 1459 2170 1308 2054
Q 1158 1939 954 1939
Q 755 1939 624 2044
Q 493 2150 429 2313
Q 365 2477 365 2637
Q 365 2918 483 3148
Q 602 3379 794 3516
Q 986 3654 1216 3654
Q 1350 3654 1475 3603
Q 1600 3552 1645 3494
Q 1907 3373 2076 3353
Q 2246 3334 2330 3334
z
M 710 2547
Q 710 2298 809 2218
Q 909 2138 992 2138
Q 1171 2138 1296 2291
Q 1421 2445 1491 2662
Q 1562 2880 1562 3066
Q 1562 3309 1469 3382
Q 1376 3456 1286 3456
Q 1133 3456 1001 3305
Q 870 3155 790 2944
Q 710 2733 710 2547
z
M 2419 627
Q 2419 890 2534 1120
Q 2650 1350 2845 1494
Q 3040 1638 3277 1638
Q 3405 1638 3533 1590
Q 3661 1542 3744 1417
Q 3827 1293 3827 1056
Q 3827 896 3776 701
Q 3725 506 3622 330
Q 3520 154 3366 38
Q 3213 -77 3014 -77
Q 2822 -77 2688 28
Q 2554 134 2486 297
Q 2419 461 2419 627
z
M 2771 531
Q 2771 282 2867 202
Q 2963 122 3053 122
Q 3232 122 3357 278
Q 3482 435 3549 652
Q 3616 870 3616 1050
Q 3616 1216 3568 1299
Q 3520 1382 3456 1411
Q 3392 1440 3347 1440
Q 3194 1440 3062 1289
Q 2931 1139 2851 928
Q 2771 717 2771 531
z
" transform="scale(0.015625)"/>
       <path id="LibertinusSerif-Regular-29" d="M 1626 1613
Q 1626 1018 1446 477
Q 1267 -64 960 -518
Q 653 -973 269 -1299
Q 173 -1293 134 -1184
Q 211 -1094 368 -883
Q 525 -672 691 -329
Q 858 13 976 496
Q 1094 979 1094 1613
Q 1094 2246 976 2729
Q 858 3213 691 3558
Q 525 3904 368 4118
Q 211 4333 134 4422
Q 166 4512 269 4531
Q 666 4186 922 3814
Q 1178 3443 1322 3088
Q 1466 2733 1530 2432
Q 1594 2131 1610 1916
Q 1626 1702 1626 1613
z
" transform="scale(0.015625)"/>
      </defs>
      <use xlink:href="#LibertinusSerif-Regular-50"/>
      <use xlink:href="#LibertinusSerif-Regular-72" transform="translate(54.099991 0)"/>
      <use xlink:href="#LibertinusSerif-Regular-6f" transform="translate(91.299988 0)"/>
      <use xlink:href="#LibertinusSerif-Regular-62" transform="translate(141.699982 0)"/>
      <use xlink:href="#LibertinusSerif-Regular-61" transform="translate(190.999969 0)"/>
      <use xlink:href="#LibertinusSerif-Regular-62" transform="translate(236.699966 0)"/>
      <use xlink:href="#LibertinusSerif-Regular-69" transform="translate(285.999954 0)"/>
      <use xlink:href="#LibertinusSerif-Regular-6c" transform="translate(313.099945 0)"/>
      <use xlink:href="#LibertinusSerif-Regular-69" transform="translate(339.499939 0)"/>
      <use xlink:href="#LibertinusSerif-Regular-74" transform="translate(366.59993 0)"/>
      <use xlink:href="#LibertinusSerif-Regular-79" transform="translate(398.199921 0)"/>
      <use xlink:href="#LibertinusSerif-Regular-20" transform="translate(449.699905 0)"/>
      <use xlink:href="#LibertinusSerif-Regular-28" transform="translate(474.69989 0)"/>
      <use xlink:href="#LibertinusSerif-Regular-25" transform="translate(504.499878 0)"/>
      <use xlink:href="#LibertinusSerif-Regular-29" transform="translate(568.199875 0)"/>
     </g>
    </g>
   </g>
   <g id="patch_3">
    <path d="M 79.030909 289.64
L 149.800606 289.64
L 149.800606 73.768
L 79.030909 73.768
z
" clip-path="url(#p0555c4b6e7)" style="fill: #2c7fb8; stroke: #1f1f1f; stroke-width: 0.6; stroke-linejoin: miter"/>
   </g>
   <g id="patch_4">
    <path d="M 167.49303 289.64
L 238.262727 289.64
L 238.262727 284.2432
L 167.49303 284.2432
z
" clip-path="url(#p0555c4b6e7)" style="fill: #7fcdbb; stroke: #1f1f1f; stroke-width: 0.6; stroke-linejoin: miter"/>
   </g>
   <g id="patch_5">
    <path d="M 255.955152 289.64
L 326.724848 289.64
L 326.724848 284.2432
L 255.955152 284.2432
z
" clip-path="url(#p0555c4b6e7)" style="fill: #c7e9b4; stroke: #1f1f1f; stroke-width: 0.6; stroke-linejoin: miter"/>
   </g>
   <g id="patch_6">
    <path d="M 344.417273 289.64
L 415.18697 289.64
L 415.18697 262.656
L 344.417273 262.656
z
" clip-path="url(#p0555c4b6e7)" style="fill: #fdd49e; stroke: #1f1f1f; stroke-width: 0.6; stroke-linejoin: miter"/>
   </g>
   <g id="patch_7">
    <path d="M 432.879394 289.64
L 503.649091 289.64
L 503.649091 273.4496
L 432.879394 273.4496
z
" clip-path="url(#p0555c4b6e7)" style="fill: #fc8d59; stroke: #1f1f1f; stroke-width: 0.6; stroke-linejoin: miter"/>
   </g>
   <g id="patch_8">
    <path d="M 57.8 289.64
L 57.8 19.8
" style="fill: none; stroke: #000000; stroke-width: 0.8; stroke-linejoin: miter; stroke-linecap: square"/>
   </g>
   <g id="patch_9">
    <path d="M 524.88 289.64
L 524.88 19.8
" style="fill: none; stroke: #000000; stroke-width: 0.8; stroke-linejoin: miter; stroke-linecap: square"/>
   </g>
   <g id="patch_10">
    <path d="M 57.8 289.64
L 524.88 289.64
" style="fill: none; stroke: #000000; stroke-width: 0.8; stroke-linejoin: miter; stroke-linecap: square"/>
   </g>
   <g id="patch_11">
    <path d="M 57.8 19.8
L 524.88 19.8
" style="fill: none; stroke: #000000; stroke-width: 0.8; stroke-linejoin: miter; stroke-linecap: square"/>
   </g>
   <g id="text_13">
    <!-- 80% -->
    <g transform="translate(105.797086 67.955233) scale(0.11 -0.11)">
     <use xlink:href="#LibertinusSerif-Regular-38"/>
     <use xlink:href="#LibertinusSerif-Regular-30" transform="translate(46.499985 0)"/>
     <use xlink:href="#LibertinusSerif-Regular-25" transform="translate(92.999969 0)"/>
    </g>
   </g>
   <g id="text_14">
    <!-- 2% -->
    <g transform="translate(196.816707 278.430432) scale(0.11 -0.11)">
     <use xlink:href="#LibertinusSerif-Regular-32"/>
     <use xlink:href="#LibertinusSerif-Regular-25" transform="translate(46.499985 0)"/>
    </g>
   </g>
   <g id="text_15">
    <!-- 2% -->
    <g transform="translate(285.278828 278.430432) scale(0.11 -0.11)">
     <use xlink:href="#LibertinusSerif-Regular-32"/>
     <use xlink:href="#LibertinusSerif-Regular-25" transform="translate(46.499985 0)"/>
    </g>
   </g>
   <g id="text_16">
    <!-- 10% -->
    <g transform="translate(371.183449 256.843232) scale(0.11 -0.11)">
     <use xlink:href="#LibertinusSerif-Regular-31"/>
     <use xlink:href="#LibertinusSerif-Regular-30" transform="translate(46.499985 0)"/>
     <use xlink:href="#LibertinusSerif-Regular-25" transform="translate(92.999969 0)"/>
    </g>
   </g>
   <g id="text_17">
    <!-- 6% -->
    <g transform="translate(462.203071 267.636833) scale(0.11 -0.11)">
     <use xlink:href="#LibertinusSerif-Regular-36"/>
     <use xlink:href="#LibertinusSerif-Regular-25" transform="translate(46.499985 0)"/>
    </g>
   </g>
  </g>
 </g>
 <defs>
  <clipPath id="p0555c4b6e7">
   <rect x="57.8" y="19.8" width="467.08" height="269.84"/>
  </clipPath>
 </defs>
</svg>
