<?xml version="1.0" encoding="utf-8" standalone="no"?>
<!DOCTYPE svg PUBLIC "-//W3C//DTD SVG 1.1//EN"
  "http://www.w3.org/Graphics/SVG/1.1/DTD/svg11.dtd">
<svg xmlns:xlink="http://www.w3.org/1999/xlink" width="576pt" height="360pt" viewBox="0 0 576 360" xmlns="http://www.w3.org/2000/svg" version="1.1">
 <metadata>
  <rdf:RDF xmlns:dc="http://purl.org/dc/elements/1.1/" xmlns:cc="http://creativecommons.org/ns#" xmlns:rdf="http://www.w3.org/1999/02/22-rdf-syntax-ns#">
   <cc:Work>
    <dc:type rdf:resource="http://purl.org/dc/dcmitype/StillImage"/>
    <dc:date>2026-05-12T16:28:38.435025</dc:date>
    <dc:format>image/svg+xml</dc:format>
    <dc:creator>
     <cc:Agent>
      <dc:title>Matplotlib v3.10.7, https://matplotlib.org/</dc:title>
     </cc:Agent>
    </dc:creator>
   </cc:Work>
  </rdf:RDF>
 </metadata>
 <defs>
  <style type="text/css">*{stroke-linejoin: round; stroke-linecap: butt}</style>
 </defs>
 <g id="figure_1">
  <g id="patch_1">
   <path d="M 0 360
L 576 360
L 576 0
L 0 0
z
" style="fill: #ffffff"/>
  </g>
  <g id="axes_1">
   <g id="patch_2">
    <path d="M 55.37 310.48
L 561.96 310.48
L 561.96 14.04
L 55.37 14.04
z
" style="fill: #ffffff"/>
   </g>
   <g id="PathCollection_1">
    <defs>
     <path id="m71f099f273" d="M 0 3.354102
C 0.889518 3.354102 1.742724 3.000693 2.371708 2.371708
C 3.000693 1.742724 3.354102 0.889518 3.354102 0
C 3.354102 -0.889518 3.000693 -1.742724 2.371708 -2.371708
C 1.742724 -3.000693 0.889518 -3.354102 0 -3.354102
C -0.889518 -3.354102 -1.742724 -3.000693 -2.371708 -2.371708
C -3.000693 -1.742724 -3.354102 -0.889518 -3.354102 0
C -3.354102 0.889518 -3.000693 1.742724 -2.371708 2.371708
C -1.742724 3.000693 -0.889518 3.354102 0 3.354102
z
" style="stroke: #1f77b4; stroke-opacity: 0.8"/>
    </defs>
    <g clip-path="url(#pec2e1ecaa4)">
     <use xlink:href="#m71f099f273" x="78.396818" y="297.005455" style="fill: #1f77b4; fill-opacity: 0.8; stroke: #1f77b4; stroke-opacity: 0.8"/>
     <use xlink:href="#m71f099f273" x="95.453721" y="280.783153" style="fill: #1f77b4; fill-opacity: 0.8; stroke: #1f77b4; stroke-opacity: 0.8"/>
     <use xlink:href="#m71f099f273" x="112.510623" y="281.669767" style="fill: #1f77b4; fill-opacity: 0.8; stroke: #1f77b4; stroke-opacity: 0.8"/>
     <use xlink:href="#m71f099f273" x="129.567525" y="283.412823" style="fill: #1f77b4; fill-opacity: 0.8; stroke: #1f77b4; stroke-opacity: 0.8"/>
     <use xlink:href="#m71f099f273" x="146.624428" y="264.469963" style="fill: #1f77b4; fill-opacity: 0.8; stroke: #1f77b4; stroke-opacity: 0.8"/>
     <use xlink:href="#m71f099f273" x="163.68133" y="264.650762" style="fill: #1f77b4; fill-opacity: 0.8; stroke: #1f77b4; stroke-opacity: 0.8"/>
     <use xlink:href="#m71f099f273" x="180.738232" y="233.602126" style="fill: #1f77b4; fill-opacity: 0.8; stroke: #1f77b4; stroke-opacity: 0.8"/>
     <use xlink:href="#m71f099f273" x="197.795135" y="198.066294" style="fill: #1f77b4; fill-opacity: 0.8; stroke: #1f77b4; stroke-opacity: 0.8"/>
     <use xlink:href="#m71f099f273" x="214.852037" y="223.710913" style="fill: #1f77b4; fill-opacity: 0.8; stroke: #1f77b4; stroke-opacity: 0.8"/>
     <use xlink:href="#m71f099f273" x="231.908939" y="215.857992" style="fill: #1f77b4; fill-opacity: 0.8; stroke: #1f77b4; stroke-opacity: 0.8"/>
     <use xlink:href="#m71f099f273" x="248.965842" y="183.658928" style="fill: #1f77b4; fill-opacity: 0.8; stroke: #1f77b4; stroke-opacity: 0.8"/>
     <use xlink:href="#m71f099f273" x="266.022744" y="175.89813" style="fill: #1f77b4; fill-opacity: 0.8; stroke: #1f77b4; stroke-opacity: 0.8"/>
     <use xlink:href="#m71f099f273" x="283.079646" y="170.466965" style="fill: #1f77b4; fill-opacity: 0.8; stroke: #1f77b4; stroke-opacity: 0.8"/>
     <use xlink:href="#m71f099f273" x="300.136549" y="180.454477" style="fill: #1f77b4; fill-opacity: 0.8; stroke: #1f77b4; stroke-opacity: 0.8"/>
     <use xlink:href="#m71f099f273" x="317.193451" y="152.365583" style="fill: #1f77b4; fill-opacity: 0.8; stroke: #1f77b4; stroke-opacity: 0.8"/>
     <use xlink:href="#m71f099f273" x="334.250354" y="127.749215" style="fill: #1f77b4; fill-opacity: 0.8; stroke: #1f77b4; stroke-opacity: 0.8"/>
     <use xlink:href="#m71f099f273" x="351.307256" y="157.464597" style="fill: #1f77b4; fill-opacity: 0.8; stroke: #1f77b4; stroke-opacity: 0.8"/>
     <use xlink:href="#m71f099f273" x="368.364158" y="129.66303" style="fill: #1f77b4; fill-opacity: 0.8; stroke: #1f77b4; stroke-opacity: 0.8"/>
     <use xlink:href="#m71f099f273" x="385.421061" y="147.664945" style="fill: #1f77b4; fill-opacity: 0.8; stroke: #1f77b4; stroke-opacity: 0.8"/>
     <use xlink:href="#m71f099f273" x="402.477963" y="125.267196" style="fill: #1f77b4; fill-opacity: 0.8; stroke: #1f77b4; stroke-opacity: 0.8"/>
     <use xlink:href="#m71f099f273" x="419.534865" y="125.747196" style="fill: #1f77b4; fill-opacity: 0.8; stroke: #1f77b4; stroke-opacity: 0.8"/>
     <use xlink:href="#m71f099f273" x="436.591768" y="83.792126" style="fill: #1f77b4; fill-opacity: 0.8; stroke: #1f77b4; stroke-opacity: 0.8"/>
     <use xlink:href="#m71f099f273" x="453.64867" y="93.71031" style="fill: #1f77b4; fill-opacity: 0.8; stroke: #1f77b4; stroke-opacity: 0.8"/>
     <use xlink:href="#m71f099f273" x="470.705572" y="53.090561" style="fill: #1f77b4; fill-opacity: 0.8; stroke: #1f77b4; stroke-opacity: 0.8"/>
     <use xlink:href="#m71f099f273" x="487.762475" y="44.967264" style="fill: #1f77b4; fill-opacity: 0.8; stroke: #1f77b4; stroke-opacity: 0.8"/>
     <use xlink:href="#m71f099f273" x="504.819377" y="41.348602" style="fill: #1f77b4; fill-opacity: 0.8; stroke: #1f77b4; stroke-opacity: 0.8"/>
     <use xlink:href="#m71f099f273" x="521.876279" y="76.770457" style="fill: #1f77b4; fill-opacity: 0.8; stroke: #1f77b4; stroke-opacity: 0.8"/>
     <use xlink:href="#m71f099f273" x="538.933182" y="27.514545" style="fill: #1f77b4; fill-opacity: 0.8; stroke: #1f77b4; stroke-opacity: 0.8"/>
    </g>
   </g>
   <g id="matplotlib.axis_1">
    <g id="xtick_1">
     <g id="line2d_1">
      <path d="M 120.26376 310.48
L 120.26376 14.04
" clip-path="url(#pec2e1ecaa4)" style="fill: none; stroke: #b0b0b0; stroke-opacity: 0.3; stroke-width: 0.8; stroke-linecap: square"/>
     </g>
     <g id="line2d_2">
      <defs>
       <path id="m0c08d3c75e" d="M 0 0
L 0 3.5
" style="stroke: #000000; stroke-width: 0.8"/>
      </defs>
      <g>
       <use xlink:href="#m0c08d3c75e" x="120.26376" y="310.48" style="stroke: #000000; stroke-width: 0.8"/>
      </g>
     </g>
     <g id="text_1">
      <!-- 50 -->
      <g transform="translate(114.21876 326.553594) scale(0.13 -0.13)">
       <defs>
        <path id="LibertinusSerif-Regular-35" d="M 2042 1210
Q 2042 1734 1827 1958
Q 1613 2182 1299 2182
Q 1126 2182 934 2153
Q 742 2125 486 2029
L 704 3872
Q 870 3859 1043 3849
Q 1216 3840 1395 3840
Q 1651 3840 1910 3862
Q 2170 3885 2445 3910
L 2490 3885
L 2387 3450
Q 1997 3411 1715 3411
Q 1485 3411 1315 3430
Q 1146 3450 966 3469
L 838 2400
Q 928 2432 1094 2467
Q 1261 2502 1466 2502
Q 1824 2502 2080 2336
Q 2336 2170 2473 1904
Q 2611 1638 2611 1325
Q 2611 922 2438 608
Q 2266 294 1958 112
Q 1651 -70 1254 -70
Q 1075 -70 860 -6
Q 646 58 496 170
Q 346 282 346 410
Q 346 506 422 576
Q 499 646 589 646
Q 691 646 771 585
Q 851 525 915 442
Q 986 346 1072 250
Q 1158 154 1338 154
Q 1530 154 1690 291
Q 1850 429 1946 669
Q 2042 909 2042 1210
z
" transform="scale(0.015625)"/>
        <path id="LibertinusSerif-Regular-30" d="M 1459 -64
Q 1082 -64 813 205
Q 550 467 400 918
Q 250 1370 250 1882
Q 250 2515 426 2969
Q 602 3424 886 3664
Q 1171 3904 1485 3904
Q 1747 3904 1942 3779
Q 2138 3654 2266 3488
Q 2701 2912 2701 1939
Q 2701 1376 2579 992
Q 2458 608 2266 374
Q 2074 141 1859 38
Q 1645 -64 1459 -64
z
M 1485 3680
Q 1376 3680 1257 3606
Q 1139 3533 1036 3334
Q 934 3136 870 2768
Q 806 2400 806 1811
Q 806 1600 825 1321
Q 845 1043 912 777
Q 979 512 1110 336
Q 1242 160 1466 160
Q 1523 160 1632 195
Q 1741 230 1853 355
Q 1965 480 2035 742
Q 2106 986 2125 1302
Q 2144 1619 2144 2061
Q 2144 2707 2032 3078
Q 1920 3450 1773 3571
Q 1651 3680 1485 3680
z
" transform="scale(0.015625)"/>
       </defs>
       <use xlink:href="#LibertinusSerif-Regular-35"/>
       <use xlink:href="#LibertinusSerif-Regular-30" transform="translate(46.499985 0)"/>
      </g>
     </g>
    </g>
    <g id="xtick_2">
     <g id="line2d_3">
      <path d="M 190.041997 310.48
L 190.041997 14.04
" clip-path="url(#pec2e1ecaa4)" style="fill: none; stroke: #b0b0b0; stroke-opacity: 0.3; stroke-width: 0.8; stroke-linecap: square"/>
     </g>
     <g id="line2d_4">
      <g>
       <use xlink:href="#m0c08d3c75e" x="190.041997" y="310.48" style="stroke: #000000; stroke-width: 0.8"/>
      </g>
     </g>
     <g id="text_2">
      <!-- 75 -->
      <g transform="translate(183.996997 326.553594) scale(0.13 -0.13)">
       <defs>
        <path id="LibertinusSerif-Regular-37" d="M 1088 3424
Q 986 3424 883 3392
Q 781 3360 691 3241
Q 602 3123 531 2867
Q 435 2854 326 2886
Q 365 3136 406 3408
Q 448 3680 454 3910
Q 454 3930 480 3930
Q 538 3917 566 3894
Q 595 3872 643 3856
Q 691 3840 800 3840
L 2118 3840
Q 2304 3840 2416 3862
Q 2528 3885 2611 3910
L 2714 3834
Q 2355 2963 2102 2288
Q 1850 1613 1658 1046
Q 1466 480 1280 -64
L 845 -83
L 794 -38
Q 1120 691 1491 1593
Q 1862 2496 2234 3424
L 1088 3424
z
" transform="scale(0.015625)"/>
       </defs>
       <use xlink:href="#LibertinusSerif-Regular-37"/>
       <use xlink:href="#LibertinusSerif-Regular-35" transform="translate(46.499985 0)"/>
      </g>
     </g>
    </g>
    <g id="xtick_3">
     <g id="line2d_5">
      <path d="M 259.820234 310.48
L 259.820234 14.04
" clip-path="url(#pec2e1ecaa4)" style="fill: none; stroke: #b0b0b0; stroke-opacity: 0.3; stroke-width: 0.8; stroke-linecap: square"/>
     </g>
     <g id="line2d_6">
      <g>
       <use xlink:href="#m0c08d3c75e" x="259.820234" y="310.48" style="stroke: #000000; stroke-width: 0.8"/>
      </g>
     </g>
     <g id="text_3">
      <!-- 100 -->
      <g transform="translate(250.752734 326.553594) scale(0.13 -0.13)">
       <defs>
        <path id="LibertinusSerif-Regular-31" d="M 1843 781
Q 1843 518 1888 396
Q 1933 275 2054 243
Q 2176 211 2400 198
Q 2432 173 2432 96
Q 2432 19 2400 -13
Q 2163 -6 2006 -3
Q 1850 0 1619 0
Q 1357 0 1161 -3
Q 966 -6 730 -13
Q 704 19 704 96
Q 704 173 730 198
Q 954 211 1091 243
Q 1229 275 1289 396
Q 1350 518 1350 781
L 1350 2867
Q 1350 3034 1324 3136
Q 1299 3238 1222 3238
Q 1133 3238 1008 3203
Q 883 3168 666 3078
Q 589 3130 570 3251
Q 992 3450 1277 3587
Q 1562 3725 1824 3891
Q 1862 3891 1862 3859
Q 1856 3795 1849 3542
Q 1843 3290 1843 3002
L 1843 781
z
" transform="scale(0.015625)"/>
       </defs>
       <use xlink:href="#LibertinusSerif-Regular-31"/>
       <use xlink:href="#LibertinusSerif-Regular-30" transform="translate(46.499985 0)"/>
       <use xlink:href="#LibertinusSerif-Regular-30" transform="translate(92.999969 0)"/>
      </g>
     </g>
    </g>
    <g id="xtick_4">
     <g id="line2d_7">
      <path d="M 329.598471 310.48
L 329.598471 14.04
" clip-path="url(#pec2e1ecaa4)" style="fill: none; stroke: #b0b0b0; stroke-opacity: 0.3; stroke-width: 0.8; stroke-linecap: square"/>
     </g>
     <g id="line2d_8">
      <g>
       <use xlink:href="#m0c08d3c75e" x="329.598471" y="310.48" style="stroke: #000000; stroke-width: 0.8"/>
      </g>
     </g>
     <g id="text_4">
      <!-- 125 -->
      <g transform="translate(320.530971 326.553594) scale(0.13 -0.13)">
       <defs>
        <path id="LibertinusSerif-Regular-32" d="M 390 2995
Q 390 3187 531 3398
Q 672 3610 931 3757
Q 1190 3904 1542 3904
Q 1805 3904 2051 3805
Q 2298 3706 2461 3491
Q 2624 3277 2624 2931
Q 2624 2566 2441 2320
Q 2259 2074 1984 1811
L 1338 1190
Q 1325 1178 1251 1101
Q 1178 1024 1088 905
Q 998 787 931 659
Q 864 531 864 416
L 2003 416
Q 2176 416 2272 553
Q 2368 691 2451 1030
Q 2573 1056 2637 998
Q 2637 902 2614 729
Q 2592 557 2560 355
Q 2528 154 2483 -13
Q 2483 -13 2400 -9
Q 2317 -6 2201 -3
Q 2086 0 1984 0
L 864 0
Q 762 0 637 -3
Q 512 -6 422 -9
Q 333 -13 333 -13
Q 333 179 384 358
Q 435 538 592 765
Q 749 992 1062 1312
L 1536 1779
Q 1818 2067 1939 2332
Q 2061 2598 2061 2906
Q 2061 3213 1971 3382
Q 1882 3552 1750 3616
Q 1619 3680 1504 3680
Q 1152 3680 1011 3545
Q 870 3411 870 3290
Q 870 3251 892 3209
Q 915 3168 922 3136
Q 934 3104 940 3072
Q 947 3040 947 3002
Q 947 2893 838 2819
Q 730 2746 646 2746
Q 544 2746 467 2819
Q 390 2893 390 2995
z
" transform="scale(0.015625)"/>
       </defs>
       <use xlink:href="#LibertinusSerif-Regular-31"/>
       <use xlink:href="#LibertinusSerif-Regular-32" transform="translate(46.499985 0)"/>
       <use xlink:href="#LibertinusSerif-Regular-35" transform="translate(92.999969 0)"/>
      </g>
     </g>
    </g>
    <g id="xtick_5">
     <g id="line2d_9">
      <path d="M 399.376708 310.48
L 399.376708 14.04
" clip-path="url(#pec2e1ecaa4)" style="fill: none; stroke: #b0b0b0; stroke-opacity: 0.3; stroke-width: 0.8; stroke-linecap: square"/>
     </g>
     <g id="line2d_10">
      <g>
       <use xlink:href="#m0c08d3c75e" x="399.376708" y="310.48" style="stroke: #000000; stroke-width: 0.8"/>
      </g>
     </g>
     <g id="text_5">
      <!-- 150 -->
      <g transform="translate(390.309208 326.553594) scale(0.13 -0.13)">
       <use xlink:href="#LibertinusSerif-Regular-31"/>
       <use xlink:href="#LibertinusSerif-Regular-35" transform="translate(46.499985 0)"/>
       <use xlink:href="#LibertinusSerif-Regular-30" transform="translate(92.999969 0)"/>
      </g>
     </g>
    </g>
    <g id="xtick_6">
     <g id="line2d_11">
      <path d="M 469.154945 310.48
L 469.154945 14.04
" clip-path="url(#pec2e1ecaa4)" style="fill: none; stroke: #b0b0b0; stroke-opacity: 0.3; stroke-width: 0.8; stroke-linecap: square"/>
     </g>
     <g id="line2d_12">
      <g>
       <use xlink:href="#m0c08d3c75e" x="469.154945" y="310.48" style="stroke: #000000; stroke-width: 0.8"/>
      </g>
     </g>
     <g id="text_6">
      <!-- 175 -->
      <g transform="translate(460.087445 326.553594) scale(0.13 -0.13)">
       <use xlink:href="#LibertinusSerif-Regular-31"/>
       <use xlink:href="#LibertinusSerif-Regular-37" transform="translate(46.499985 0)"/>
       <use xlink:href="#LibertinusSerif-Regular-35" transform="translate(92.999969 0)"/>
      </g>
     </g>
    </g>
    <g id="xtick_7">
     <g id="line2d_13">
      <path d="M 538.933182 310.48
L 538.933182 14.04
" clip-path="url(#pec2e1ecaa4)" style="fill: none; stroke: #b0b0b0; stroke-opacity: 0.3; stroke-width: 0.8; stroke-linecap: square"/>
     </g>
     <g id="line2d_14">
      <g>
       <use xlink:href="#m0c08d3c75e" x="538.933182" y="310.48" style="stroke: #000000; stroke-width: 0.8"/>
      </g>
     </g>
     <g id="text_7">
      <!-- 200 -->
      <g transform="translate(529.865682 326.553594) scale(0.13 -0.13)">
       <use xlink:href="#LibertinusSerif-Regular-32"/>
       <use xlink:href="#LibertinusSerif-Regular-30" transform="translate(46.499985 0)"/>
       <use xlink:href="#LibertinusSerif-Regular-30" transform="translate(92.999969 0)"/>
      </g>
     </g>
    </g>
    <g id="text_8">
     <!-- House size (m^2) -->
     <g transform="translate(263.145703 342.67) scale(0.13 -0.13)">
      <defs>
       <path id="LibertinusSerif-Regular-48" d="M 3955 781
Q 3955 518 4000 396
Q 4045 275 4166 243
Q 4288 211 4512 198
Q 4544 173 4544 96
Q 4544 19 4512 -13
Q 4301 -6 4083 -3
Q 3866 0 3686 0
Q 3507 0 3289 -3
Q 3072 -6 2854 -13
Q 2829 19 2829 96
Q 2829 173 2854 198
Q 3078 211 3200 243
Q 3322 275 3366 396
Q 3411 518 3411 781
L 3411 2054
L 1222 2054
L 1222 781
Q 1222 518 1267 396
Q 1312 275 1433 243
Q 1555 211 1779 198
Q 1811 173 1811 96
Q 1811 19 1779 -13
Q 1568 -6 1347 -3
Q 1126 0 954 0
Q 774 0 553 -3
Q 333 -6 122 -13
Q 96 19 96 96
Q 96 173 122 198
Q 346 211 467 243
Q 589 275 633 396
Q 678 518 678 781
L 678 3347
Q 678 3616 633 3734
Q 589 3853 467 3888
Q 346 3923 122 3930
Q 96 3962 96 4038
Q 96 4115 122 4141
Q 307 4134 508 4131
Q 710 4128 947 4128
Q 1190 4128 1395 4131
Q 1600 4134 1779 4141
Q 1811 4115 1811 4038
Q 1811 3962 1779 3930
Q 1555 3923 1433 3888
Q 1312 3853 1267 3734
Q 1222 3616 1222 3347
L 1222 2323
L 3411 2323
L 3411 3347
Q 3411 3616 3366 3734
Q 3322 3853 3200 3888
Q 3078 3923 2854 3930
Q 2829 3962 2829 4038
Q 2829 4115 2854 4141
Q 3066 4134 3283 4131
Q 3501 4128 3680 4128
Q 3866 4128 4090 4131
Q 4314 4134 4512 4141
Q 4544 4115 4544 4038
Q 4544 3962 4512 3930
Q 4288 3923 4166 3888
Q 4045 3853 4000 3734
Q 3955 3616 3955 3347
L 3955 781
z
" transform="scale(0.015625)"/>
       <path id="LibertinusSerif-Regular-6f" d="M 262 1312
Q 262 1613 352 1885
Q 442 2157 614 2362
Q 794 2566 1050 2688
Q 1306 2810 1619 2810
Q 1984 2810 2243 2682
Q 2502 2554 2659 2339
Q 2816 2125 2889 1872
Q 2963 1619 2963 1370
Q 2963 1075 2860 790
Q 2758 506 2547 294
Q 2381 134 2147 35
Q 1914 -64 1606 -64
Q 1152 -64 854 144
Q 557 352 409 669
Q 262 986 262 1312
z
M 1523 2586
Q 1235 2586 1081 2419
Q 928 2253 870 1997
Q 813 1741 813 1459
Q 813 1274 857 1050
Q 902 826 1004 624
Q 1107 422 1276 291
Q 1446 160 1696 160
Q 1850 160 2016 243
Q 2182 326 2297 544
Q 2413 762 2413 1165
Q 2413 1856 2176 2221
Q 1939 2586 1523 2586
z
" transform="scale(0.015625)"/>
       <path id="LibertinusSerif-Regular-75" d="M 1389 -64
Q 1075 -64 892 61
Q 710 186 636 387
Q 563 589 563 806
L 563 2035
Q 563 2349 480 2438
Q 397 2528 166 2547
Q 141 2579 141 2656
Q 141 2733 166 2758
Q 333 2752 499 2749
Q 666 2746 819 2746
Q 979 2746 1043 2758
Q 1094 2758 1094 2720
Q 1094 2720 1088 2595
Q 1082 2470 1075 2313
Q 1069 2157 1069 2061
L 1069 896
Q 1069 614 1158 470
Q 1248 326 1366 281
Q 1485 237 1581 237
Q 1702 237 1872 313
Q 2042 390 2221 544
Q 2291 602 2307 653
Q 2323 704 2323 794
L 2323 2029
Q 2323 2349 2243 2441
Q 2163 2534 1926 2547
Q 1901 2579 1901 2656
Q 1901 2733 1926 2758
Q 2093 2752 2259 2749
Q 2426 2746 2579 2746
Q 2739 2746 2803 2758
Q 2854 2758 2854 2720
Q 2854 2720 2848 2595
Q 2842 2470 2835 2313
Q 2829 2157 2829 2061
L 2829 832
Q 2829 595 2909 492
Q 2989 390 3296 365
Q 3328 339 3328 281
Q 3328 224 3296 192
Q 3002 160 2826 93
Q 2650 26 2541 -64
Q 2483 -90 2419 -64
Q 2419 -64 2390 64
Q 2362 192 2349 314
Q 2342 346 2310 342
Q 2278 339 2253 320
Q 1786 -64 1389 -64
z
" transform="scale(0.015625)"/>
       <path id="LibertinusSerif-Regular-73" d="M 307 883
Q 339 915 409 918
Q 480 922 506 890
Q 538 768 595 589
Q 653 410 755 301
Q 806 250 915 198
Q 1024 147 1210 147
Q 1331 147 1456 195
Q 1581 243 1667 342
Q 1754 442 1754 595
Q 1754 736 1702 835
Q 1651 934 1510 1024
Q 1370 1114 1101 1222
Q 730 1376 563 1558
Q 397 1741 397 2093
Q 397 2298 525 2461
Q 653 2624 857 2717
Q 1062 2810 1299 2810
Q 1549 2810 1769 2762
Q 1990 2714 2138 2688
Q 2131 2528 2121 2355
Q 2112 2182 2099 2010
Q 2074 1984 2000 1981
Q 1926 1978 1894 2003
Q 1856 2278 1737 2403
Q 1619 2528 1494 2563
Q 1370 2598 1299 2598
Q 1139 2598 995 2492
Q 851 2387 851 2189
Q 851 1926 1027 1814
Q 1203 1702 1491 1594
Q 1818 1472 2029 1270
Q 2240 1069 2240 742
Q 2240 506 2134 349
Q 2029 192 1865 102
Q 1702 13 1529 -25
Q 1357 -64 1222 -64
Q 1043 -64 905 -45
Q 768 -26 640 6
Q 608 19 576 19
Q 544 19 512 19
Q 448 19 352 0
Q 352 205 339 425
Q 326 646 307 883
z
" transform="scale(0.015625)"/>
       <path id="LibertinusSerif-Regular-65" d="M 2470 595
Q 2579 589 2605 493
Q 2413 243 2147 89
Q 1882 -64 1517 -64
Q 1171 -64 937 45
Q 704 154 538 346
Q 378 531 307 777
Q 237 1024 237 1293
Q 237 1658 355 1939
Q 474 2221 666 2409
Q 858 2598 1082 2697
Q 1306 2797 1517 2797
Q 1965 2797 2195 2630
Q 2426 2464 2512 2208
Q 2598 1952 2598 1683
Q 2598 1574 2477 1574
L 774 1587
Q 774 1312 828 1091
Q 883 870 979 710
Q 1126 467 1315 358
Q 1504 250 1677 250
Q 1958 250 2124 333
Q 2291 416 2470 595
z
M 794 1805
L 1952 1824
Q 2048 1824 2048 1914
Q 2048 2182 1965 2329
Q 1882 2477 1760 2531
Q 1638 2586 1517 2586
Q 1459 2586 1356 2563
Q 1254 2541 1142 2467
Q 1030 2394 934 2234
Q 838 2074 794 1805
z
" transform="scale(0.015625)"/>
       <path id="LibertinusSerif-Regular-20" transform="scale(0.015625)"/>
       <path id="LibertinusSerif-Regular-69" d="M 1158 781
Q 1158 518 1193 400
Q 1229 282 1328 246
Q 1427 211 1619 198
Q 1651 173 1651 96
Q 1651 19 1619 -13
Q 1459 -6 1280 -3
Q 1101 0 909 0
Q 717 0 534 -3
Q 352 -6 192 -13
Q 166 19 166 96
Q 166 173 192 198
Q 390 218 486 250
Q 582 282 617 400
Q 653 518 653 781
L 653 2029
Q 653 2214 621 2300
Q 589 2387 499 2416
Q 410 2445 237 2464
Q 230 2496 224 2557
Q 218 2618 224 2643
Q 557 2688 761 2733
Q 966 2778 1101 2829
Q 1184 2829 1184 2784
Q 1184 2784 1177 2669
Q 1171 2554 1164 2384
Q 1158 2214 1158 2054
L 1158 781
z
M 576 3814
Q 576 3930 685 4026
Q 794 4122 909 4122
Q 1037 4122 1126 4013
Q 1216 3904 1216 3789
Q 1216 3686 1117 3584
Q 1018 3482 883 3482
Q 768 3482 672 3587
Q 576 3693 576 3814
z
" transform="scale(0.015625)"/>
       <path id="LibertinusSerif-Regular-7a" d="M 454 2810
Q 525 2784 601 2765
Q 678 2746 832 2746
L 2003 2746
Q 2144 2746 2259 2752
Q 2374 2758 2400 2758
Q 2477 2758 2477 2714
Q 2477 2694 2454 2646
Q 2432 2598 2362 2477
Q 2214 2234 2022 1936
Q 1830 1638 1622 1328
Q 1414 1018 1209 730
Q 1005 442 826 218
L 1677 218
Q 1926 224 2054 336
Q 2182 448 2304 704
L 2394 890
Q 2515 890 2586 851
Q 2554 614 2496 380
Q 2438 147 2381 -19
L 384 0
Q 237 0 237 77
Q 237 102 246 124
Q 256 147 294 205
Q 544 544 825 944
Q 1107 1344 1379 1753
Q 1651 2163 1869 2528
L 1050 2509
Q 909 2502 768 2390
Q 627 2278 531 1926
Q 474 1914 419 1920
Q 365 1926 320 1946
Q 365 2182 387 2368
Q 410 2554 416 2771
Q 416 2810 454 2810
z
" transform="scale(0.015625)"/>
       <path id="LibertinusSerif-Regular-28" d="M 282 1613
Q 282 2208 461 2752
Q 640 3296 950 3747
Q 1261 4198 1638 4525
Q 1734 4518 1773 4410
Q 1696 4326 1539 4112
Q 1382 3898 1216 3555
Q 1050 3213 931 2729
Q 813 2246 813 1613
Q 813 979 931 496
Q 1050 13 1216 -332
Q 1382 -678 1539 -892
Q 1696 -1107 1773 -1197
Q 1741 -1286 1638 -1306
Q 1242 -960 986 -589
Q 730 -218 586 137
Q 442 493 378 793
Q 314 1094 298 1312
Q 282 1530 282 1613
z
" transform="scale(0.015625)"/>
       <path id="LibertinusSerif-Regular-6d" d="M 1088 2291
Q 1088 2234 1117 2250
Q 1146 2266 1165 2291
Q 1363 2515 1612 2662
Q 1862 2810 2138 2810
Q 2387 2810 2560 2672
Q 2733 2534 2778 2342
Q 2790 2298 2812 2310
Q 2835 2323 2848 2336
Q 3098 2598 3379 2704
Q 3661 2810 3904 2810
Q 4186 2810 4326 2675
Q 4467 2541 4515 2310
Q 4563 2080 4563 1792
L 4563 781
Q 4563 518 4592 400
Q 4621 282 4710 246
Q 4800 211 4973 198
Q 4998 173 4998 96
Q 4998 19 4973 -13
Q 4838 -6 4672 -3
Q 4506 0 4314 0
Q 4122 0 3952 -3
Q 3782 -6 3661 -13
Q 3635 19 3635 96
Q 3635 173 3661 198
Q 3827 211 3913 246
Q 4000 282 4029 400
Q 4058 518 4058 781
L 4058 1907
Q 4058 2227 3958 2352
Q 3859 2477 3674 2477
Q 3488 2477 3273 2393
Q 3059 2310 2829 2054
Q 2835 1997 2835 1933
Q 2835 1869 2835 1798
L 2835 781
Q 2835 518 2864 400
Q 2893 282 2973 246
Q 3053 211 3213 198
Q 3238 173 3238 96
Q 3238 19 3213 -13
Q 3091 -6 2934 -3
Q 2778 0 2586 0
Q 2394 0 2224 -3
Q 2054 -6 1933 -13
Q 1907 19 1907 96
Q 1907 173 1933 198
Q 2106 211 2192 246
Q 2278 282 2304 400
Q 2330 518 2330 781
L 2330 1894
Q 2330 2214 2211 2345
Q 2093 2477 1907 2477
Q 1600 2477 1216 2099
Q 1178 2054 1142 1993
Q 1107 1933 1107 1830
L 1107 781
Q 1107 518 1139 400
Q 1171 282 1254 250
Q 1338 218 1504 198
Q 1530 173 1530 96
Q 1530 19 1504 -13
Q 1357 -6 1203 -3
Q 1050 0 858 0
Q 666 0 490 -3
Q 314 -6 166 -13
Q 141 19 141 96
Q 141 173 166 198
Q 346 211 438 246
Q 531 282 566 400
Q 602 518 602 781
L 602 2029
Q 602 2214 570 2300
Q 538 2387 448 2419
Q 358 2451 186 2464
Q 179 2496 172 2557
Q 166 2618 173 2643
Q 506 2688 666 2733
Q 826 2778 960 2829
Q 998 2829 1011 2813
Q 1024 2797 1037 2778
Q 1062 2726 1072 2579
Q 1082 2432 1088 2291
z
" transform="scale(0.015625)"/>
       <path id="LibertinusSerif-Regular-5e" d="M 1658 3795
L 1005 2214
L 717 2214
L 1530 4160
L 1798 4160
L 2605 2214
L 2317 2214
L 1658 3795
z
" transform="scale(0.015625)"/>
       <path id="LibertinusSerif-Regular-29" d="M 1626 1613
Q 1626 1018 1446 477
Q 1267 -64 960 -518
Q 653 -973 269 -1299
Q 173 -1293 134 -1184
Q 211 -1094 368 -883
Q 525 -672 691 -329
Q 858 13 976 496
Q 1094 979 1094 1613
Q 1094 2246 976 2729
Q 858 3213 691 3558
Q 525 3904 368 4118
Q 211 4333 134 4422
Q 166 4512 269 4531
Q 666 4186 922 3814
Q 1178 3443 1322 3088
Q 1466 2733 1530 2432
Q 1594 2131 1610 1916
Q 1626 1702 1626 1613
z
" transform="scale(0.015625)"/>
      </defs>
      <use xlink:href="#LibertinusSerif-Regular-48"/>
      <use xlink:href="#LibertinusSerif-Regular-6f" transform="translate(72.999985 0)"/>
      <use xlink:href="#LibertinusSerif-Regular-75" transform="translate(123.399979 0)"/>
      <use xlink:href="#LibertinusSerif-Regular-73" transform="translate(176.499969 0)"/>
      <use xlink:href="#LibertinusSerif-Regular-65" transform="translate(215.499954 0)"/>
      <use xlink:href="#LibertinusSerif-Regular-20" transform="translate(260.199951 0)"/>
      <use xlink:href="#LibertinusSerif-Regular-73" transform="translate(285.199936 0)"/>
      <use xlink:href="#LibertinusSerif-Regular-69" transform="translate(324.199921 0)"/>
      <use xlink:href="#LibertinusSerif-Regular-7a" transform="translate(351.299911 0)"/>
      <use xlink:href="#LibertinusSerif-Regular-65" transform="translate(393.699905 0)"/>
      <use xlink:href="#LibertinusSerif-Regular-20" transform="translate(438.399902 0)"/>
      <use xlink:href="#LibertinusSerif-Regular-28" transform="translate(463.399887 0)"/>
      <use xlink:href="#LibertinusSerif-Regular-6d" transform="translate(493.199875 0)"/>
      <use xlink:href="#LibertinusSerif-Regular-5e" transform="translate(572.19986 0)"/>
      <use xlink:href="#LibertinusSerif-Regular-32" transform="translate(623.999847 0)"/>
      <use xlink:href="#LibertinusSerif-Regular-29" transform="translate(670.499832 0)"/>
     </g>
    </g>
   </g>
   <g id="matplotlib.axis_2">
    <g id="ytick_1">
     <g id="line2d_15">
      <path d="M 55.37 302.837211
L 561.96 302.837211
" clip-path="url(#pec2e1ecaa4)" style="fill: none; stroke: #b0b0b0; stroke-opacity: 0.3; stroke-width: 0.8; stroke-linecap: square"/>
     </g>
     <g id="line2d_16">
      <defs>
       <path id="m89c9c82643" d="M 0 0
L -3.5 0
" style="stroke: #000000; stroke-width: 0.8"/>
      </defs>
      <g>
       <use xlink:href="#m89c9c82643" x="55.37" y="302.837211" style="stroke: #000000; stroke-width: 0.8"/>
      </g>
     </g>
     <g id="text_9">
      <!-- 100 -->
      <g transform="translate(30.235 307.374008) scale(0.13 -0.13)">
       <use xlink:href="#LibertinusSerif-Regular-31"/>
       <use xlink:href="#LibertinusSerif-Regular-30" transform="translate(46.499985 0)"/>
       <use xlink:href="#LibertinusSerif-Regular-30" transform="translate(92.999969 0)"/>
      </g>
     </g>
    </g>
    <g id="ytick_2">
     <g id="line2d_17">
      <path d="M 55.37 258.163549
L 561.96 258.163549
" clip-path="url(#pec2e1ecaa4)" style="fill: none; stroke: #b0b0b0; stroke-opacity: 0.3; stroke-width: 0.8; stroke-linecap: square"/>
     </g>
     <g id="line2d_18">
      <g>
       <use xlink:href="#m89c9c82643" x="55.37" y="258.163549" style="stroke: #000000; stroke-width: 0.8"/>
      </g>
     </g>
     <g id="text_10">
      <!-- 150 -->
      <g transform="translate(30.235 262.700346) scale(0.13 -0.13)">
       <use xlink:href="#LibertinusSerif-Regular-31"/>
       <use xlink:href="#LibertinusSerif-Regular-35" transform="translate(46.499985 0)"/>
       <use xlink:href="#LibertinusSerif-Regular-30" transform="translate(92.999969 0)"/>
      </g>
     </g>
    </g>
    <g id="ytick_3">
     <g id="line2d_19">
      <path d="M 55.37 213.489888
L 561.96 213.489888
" clip-path="url(#pec2e1ecaa4)" style="fill: none; stroke: #b0b0b0; stroke-opacity: 0.3; stroke-width: 0.8; stroke-linecap: square"/>
     </g>
     <g id="line2d_20">
      <g>
       <use xlink:href="#m89c9c82643" x="55.37" y="213.489888" style="stroke: #000000; stroke-width: 0.8"/>
      </g>
     </g>
     <g id="text_11">
      <!-- 200 -->
      <g transform="translate(30.235 218.026685) scale(0.13 -0.13)">
       <use xlink:href="#LibertinusSerif-Regular-32"/>
       <use xlink:href="#LibertinusSerif-Regular-30" transform="translate(46.499985 0)"/>
       <use xlink:href="#LibertinusSerif-Regular-30" transform="translate(92.999969 0)"/>
      </g>
     </g>
    </g>
    <g id="ytick_4">
     <g id="line2d_21">
      <path d="M 55.37 168.816226
L 561.96 168.816226
" clip-path="url(#pec2e1ecaa4)" style="fill: none; stroke: #b0b0b0; stroke-opacity: 0.3; stroke-width: 0.8; stroke-linecap: square"/>
     </g>
     <g id="line2d_22">
      <g>
       <use xlink:href="#m89c9c82643" x="55.37" y="168.816226" style="stroke: #000000; stroke-width: 0.8"/>
      </g>
     </g>
     <g id="text_12">
      <!-- 250 -->
      <g transform="translate(30.235 173.353023) scale(0.13 -0.13)">
       <use xlink:href="#LibertinusSerif-Regular-32"/>
       <use xlink:href="#LibertinusSerif-Regular-35" transform="translate(46.499985 0)"/>
       <use xlink:href="#LibertinusSerif-Regular-30" transform="translate(92.999969 0)"/>
      </g>
     </g>
    </g>
    <g id="ytick_5">
     <g id="line2d_23">
      <path d="M 55.37 124.142564
L 561.96 124.142564
" clip-path="url(#pec2e1ecaa4)" style="fill: none; stroke: #b0b0b0; stroke-opacity: 0.3; stroke-width: 0.8; stroke-linecap: square"/>
     </g>
     <g id="line2d_24">
      <g>
       <use xlink:href="#m89c9c82643" x="55.37" y="124.142564" style="stroke: #000000; stroke-width: 0.8"/>
      </g>
     </g>
     <g id="text_13">
      <!-- 300 -->
      <g transform="translate(30.235 128.679361) scale(0.13 -0.13)">
       <defs>
        <path id="LibertinusSerif-Regular-33" d="M 1376 3680
Q 1293 3680 1149 3645
Q 1005 3610 886 3504
Q 768 3398 768 3194
Q 768 3136 752 3056
Q 736 2976 685 2918
Q 634 2861 518 2861
Q 403 2861 352 2937
Q 301 3014 301 3078
Q 301 3155 358 3292
Q 416 3430 553 3571
Q 691 3712 924 3808
Q 1158 3904 1510 3904
Q 1760 3904 1933 3833
Q 2106 3763 2208 3654
Q 2323 3539 2364 3414
Q 2406 3290 2406 3149
Q 2406 2893 2268 2688
Q 2131 2483 1734 2298
L 1741 2285
Q 1933 2253 2141 2147
Q 2349 2042 2496 1834
Q 2643 1626 2643 1274
Q 2643 851 2441 550
Q 2240 250 1913 93
Q 1587 -64 1203 -64
Q 1011 -64 796 -9
Q 582 45 432 141
Q 282 237 282 365
Q 282 442 365 515
Q 448 589 550 589
Q 646 589 713 541
Q 781 493 826 422
Q 883 339 963 249
Q 1043 160 1286 160
Q 1370 160 1501 201
Q 1632 243 1766 352
Q 1901 461 1990 662
Q 2080 864 2080 1184
Q 2080 1549 1945 1725
Q 1811 1901 1619 1955
Q 1427 2010 1242 2010
Q 1178 2010 1098 2010
Q 1018 2010 934 1997
L 902 2202
Q 1222 2246 1446 2400
Q 1670 2554 1788 2749
Q 1907 2944 1907 3104
Q 1907 3411 1744 3545
Q 1581 3680 1376 3680
z
" transform="scale(0.015625)"/>
       </defs>
       <use xlink:href="#LibertinusSerif-Regular-33"/>
       <use xlink:href="#LibertinusSerif-Regular-30" transform="translate(46.499985 0)"/>
       <use xlink:href="#LibertinusSerif-Regular-30" transform="translate(92.999969 0)"/>
      </g>
     </g>
    </g>
    <g id="ytick_6">
     <g id="line2d_25">
      <path d="M 55.37 79.468903
L 561.96 79.468903
" clip-path="url(#pec2e1ecaa4)" style="fill: none; stroke: #b0b0b0; stroke-opacity: 0.3; stroke-width: 0.8; stroke-linecap: square"/>
     </g>
     <g id="line2d_26">
      <g>
       <use xlink:href="#m89c9c82643" x="55.37" y="79.468903" style="stroke: #000000; stroke-width: 0.8"/>
      </g>
     </g>
     <g id="text_14">
      <!-- 350 -->
      <g transform="translate(30.235 84.0057) scale(0.13 -0.13)">
       <use xlink:href="#LibertinusSerif-Regular-33"/>
       <use xlink:href="#LibertinusSerif-Regular-35" transform="translate(46.499985 0)"/>
       <use xlink:href="#LibertinusSerif-Regular-30" transform="translate(92.999969 0)"/>
      </g>
     </g>
    </g>
    <g id="ytick_7">
     <g id="line2d_27">
      <path d="M 55.37 34.795241
L 561.96 34.795241
" clip-path="url(#pec2e1ecaa4)" style="fill: none; stroke: #b0b0b0; stroke-opacity: 0.3; stroke-width: 0.8; stroke-linecap: square"/>
     </g>
     <g id="line2d_28">
      <g>
       <use xlink:href="#m89c9c82643" x="55.37" y="34.795241" style="stroke: #000000; stroke-width: 0.8"/>
      </g>
     </g>
     <g id="text_15">
      <!-- 400 -->
      <g transform="translate(30.235 39.332038) scale(0.13 -0.13)">
       <defs>
        <path id="LibertinusSerif-Regular-34" d="M 2752 1402
Q 2848 1402 2848 1299
Q 2848 1242 2790 1171
Q 2733 1101 2662 1101
L 2221 1101
L 2221 512
Q 2221 358 2269 300
Q 2317 243 2416 227
Q 2515 211 2669 198
Q 2701 173 2701 96
Q 2701 19 2669 -13
Q 2515 -6 2339 -3
Q 2163 0 1971 0
Q 1754 0 1562 -3
Q 1370 -6 1216 -13
Q 1190 19 1190 96
Q 1190 173 1216 198
Q 1357 211 1472 227
Q 1587 243 1660 304
Q 1734 365 1734 512
L 1734 1101
L 429 1101
Q 288 1101 240 1200
Q 192 1299 179 1370
Q 397 1715 637 2070
Q 877 2426 1113 2758
Q 1350 3091 1555 3369
Q 1760 3648 1914 3834
Q 1933 3853 1958 3878
Q 1984 3904 2016 3904
L 2221 3904
L 2234 3891
Q 2227 3853 2224 3683
Q 2221 3514 2221 3270
L 2221 1402
L 2752 1402
z
M 1734 3245
Q 1402 2790 1078 2294
Q 755 1798 512 1402
L 1734 1402
L 1734 3245
z
" transform="scale(0.015625)"/>
       </defs>
       <use xlink:href="#LibertinusSerif-Regular-34"/>
       <use xlink:href="#LibertinusSerif-Regular-30" transform="translate(46.499985 0)"/>
       <use xlink:href="#LibertinusSerif-Regular-30" transform="translate(92.999969 0)"/>
      </g>
     </g>
    </g>
    <g id="text_16">
     <!-- Price (thousand EUR) -->
     <g transform="translate(23.192187 219.094375) rotate(-90) scale(0.13 -0.13)">
      <defs>
       <path id="LibertinusSerif-Regular-50" d="M 666 3347
Q 666 3616 621 3734
Q 576 3853 454 3888
Q 333 3923 109 3930
Q 83 3962 83 4038
Q 83 4115 109 4141
Q 301 4134 528 4131
Q 755 4128 934 4128
Q 1126 4128 1376 4150
Q 1626 4173 1811 4173
Q 2253 4173 2534 4064
Q 2816 3955 2969 3785
Q 3123 3616 3184 3433
Q 3245 3251 3245 3110
Q 3245 2906 3171 2678
Q 3098 2451 2925 2252
Q 2752 2054 2457 1929
Q 2163 1805 1728 1805
Q 1408 1805 1210 1869
L 1210 781
Q 1210 518 1270 400
Q 1331 282 1472 246
Q 1613 211 1862 198
Q 1894 173 1894 96
Q 1894 19 1862 -13
Q 1626 -6 1370 -3
Q 1114 0 941 0
Q 768 0 547 -3
Q 326 -6 109 -13
Q 83 19 83 96
Q 83 173 109 198
Q 333 211 454 243
Q 576 275 621 396
Q 666 518 666 781
L 666 3347
z
M 1210 3546
L 1210 2054
Q 1261 2042 1417 2032
Q 1574 2022 1696 2022
Q 2163 2022 2406 2249
Q 2650 2477 2650 2995
Q 2650 3405 2522 3609
Q 2394 3814 2192 3884
Q 1990 3955 1766 3955
Q 1536 3955 1414 3891
Q 1293 3827 1251 3734
Q 1210 3642 1210 3546
z
" transform="scale(0.015625)"/>
       <path id="LibertinusSerif-Regular-72" d="M 1126 2291
Q 1126 2266 1148 2246
Q 1171 2227 1197 2278
Q 1306 2464 1494 2637
Q 1683 2810 1907 2810
Q 2112 2810 2201 2701
Q 2291 2592 2291 2502
Q 2291 2381 2198 2281
Q 2106 2182 1990 2182
Q 1907 2182 1852 2233
Q 1798 2285 1760 2330
Q 1722 2381 1680 2397
Q 1638 2413 1594 2413
Q 1555 2413 1500 2355
Q 1446 2298 1392 2224
Q 1338 2150 1299 2099
Q 1242 2016 1194 1907
Q 1146 1798 1146 1670
L 1146 781
Q 1146 518 1184 400
Q 1222 282 1334 250
Q 1446 218 1670 198
Q 1702 173 1702 96
Q 1702 19 1670 -13
Q 1504 -6 1296 -3
Q 1088 0 896 0
Q 704 0 518 -3
Q 333 -6 166 -13
Q 141 19 141 96
Q 141 173 166 198
Q 365 211 467 246
Q 570 282 605 400
Q 640 518 640 781
L 640 2029
Q 640 2214 608 2300
Q 576 2387 486 2419
Q 397 2451 224 2464
Q 218 2496 211 2557
Q 205 2618 211 2643
Q 544 2688 704 2733
Q 864 2778 998 2829
Q 1037 2829 1049 2813
Q 1062 2797 1075 2778
Q 1101 2726 1110 2604
Q 1120 2483 1126 2291
z
" transform="scale(0.015625)"/>
       <path id="LibertinusSerif-Regular-63" d="M 2547 582
Q 2310 192 2051 64
Q 1792 -64 1504 -64
Q 902 -64 569 323
Q 237 710 237 1331
Q 237 1786 432 2118
Q 627 2451 931 2630
Q 1235 2810 1549 2810
Q 2010 2810 2269 2637
Q 2528 2464 2528 2202
Q 2528 2054 2422 1987
Q 2317 1920 2214 1920
Q 2112 1920 2048 1971
Q 1984 2022 1971 2150
Q 1958 2266 1923 2368
Q 1888 2470 1798 2534
Q 1709 2598 1517 2598
Q 1203 2598 995 2300
Q 787 2003 787 1472
Q 787 1101 905 825
Q 1024 550 1219 400
Q 1414 250 1645 250
Q 1850 250 2051 355
Q 2253 461 2413 672
Q 2515 659 2547 582
z
" transform="scale(0.015625)"/>
       <path id="LibertinusSerif-Regular-74" d="M 275 2746
L 570 2746
Q 570 3014 566 3155
Q 563 3296 560 3357
Q 557 3418 553 3440
Q 550 3462 550 3488
Q 550 3520 592 3539
Q 634 3558 691 3578
Q 800 3610 909 3667
Q 1011 3725 1050 3725
Q 1101 3725 1101 3667
Q 1101 3667 1088 3488
Q 1075 3309 1075 2995
L 1075 2746
L 1843 2746
Q 1894 2746 1894 2707
L 1894 2579
Q 1894 2534 1843 2515
Q 1792 2496 1741 2496
L 1075 2496
L 1075 877
Q 1075 582 1116 435
Q 1158 288 1286 288
Q 1414 288 1552 329
Q 1690 371 1811 467
Q 1907 461 1926 358
Q 1741 147 1513 41
Q 1286 -64 1062 -64
Q 845 -64 707 83
Q 570 230 570 570
L 570 2496
L 192 2496
Q 160 2496 160 2534
L 160 2618
Q 160 2656 185 2701
Q 211 2746 275 2746
z
" transform="scale(0.015625)"/>
       <path id="LibertinusSerif-Regular-68" d="M 1069 1830
L 1069 781
Q 1069 518 1097 400
Q 1126 282 1206 246
Q 1286 211 1453 198
Q 1478 173 1478 96
Q 1478 19 1453 -13
Q 1318 -6 1161 -3
Q 1005 0 819 0
Q 627 0 451 -3
Q 275 -6 115 -13
Q 90 19 90 96
Q 90 173 115 198
Q 301 211 397 246
Q 493 282 528 400
Q 563 518 563 781
L 563 3578
Q 563 3846 531 3952
Q 499 4058 409 4077
Q 320 4096 154 4102
Q 128 4134 118 4195
Q 109 4256 115 4294
Q 243 4307 422 4336
Q 602 4365 768 4400
Q 934 4435 1011 4467
Q 1094 4467 1094 4403
Q 1094 4403 1081 4224
Q 1069 4045 1069 3731
L 1062 2291
Q 1062 2227 1084 2249
Q 1107 2272 1126 2291
Q 1421 2618 1699 2714
Q 1978 2810 2214 2810
Q 2381 2810 2521 2755
Q 2662 2701 2746 2592
Q 2854 2445 2886 2221
Q 2918 1997 2918 1734
L 2918 781
Q 2918 518 2950 400
Q 2982 282 3075 250
Q 3168 218 3347 198
Q 3373 173 3373 96
Q 3373 19 3347 -13
Q 3187 -6 3024 -3
Q 2861 0 2669 0
Q 2477 0 2313 -3
Q 2150 -6 2016 -13
Q 1990 19 1990 96
Q 1990 173 2016 198
Q 2182 218 2268 250
Q 2355 282 2384 400
Q 2413 518 2413 781
L 2413 1754
Q 2413 1901 2400 2025
Q 2387 2150 2336 2246
Q 2278 2355 2185 2416
Q 2093 2477 1997 2477
Q 1805 2477 1584 2377
Q 1363 2278 1178 2099
Q 1139 2054 1104 1993
Q 1069 1933 1069 1830
z
" transform="scale(0.015625)"/>
       <path id="LibertinusSerif-Regular-61" d="M 1875 307
L 1862 307
L 1734 205
Q 1523 45 1363 -9
Q 1203 -64 1037 -64
Q 704 -64 467 86
Q 230 237 230 627
Q 230 954 528 1197
Q 826 1440 1286 1555
L 1837 1690
Q 1875 1702 1875 1766
Q 1875 2131 1792 2307
Q 1709 2483 1587 2540
Q 1466 2598 1357 2598
Q 1178 2598 1011 2537
Q 845 2477 845 2330
Q 845 2278 848 2246
Q 851 2214 858 2202
Q 877 2163 877 2086
Q 877 2022 797 1945
Q 717 1869 576 1869
Q 352 1869 352 2099
Q 352 2285 505 2445
Q 659 2605 902 2707
Q 1146 2810 1408 2810
Q 1645 2810 1865 2730
Q 2086 2650 2230 2416
Q 2374 2182 2374 1728
L 2374 787
Q 2374 570 2400 406
Q 2426 243 2566 243
Q 2630 243 2697 278
Q 2765 314 2803 346
Q 2893 294 2912 173
Q 2810 77 2650 6
Q 2490 -64 2304 -64
Q 2061 -64 1984 48
Q 1907 160 1875 307
z
M 1875 1491
L 1370 1357
Q 1018 1267 890 1068
Q 762 870 762 653
Q 762 506 874 352
Q 986 198 1222 198
Q 1357 198 1510 288
Q 1664 378 1786 480
Q 1824 512 1849 547
Q 1875 582 1875 646
L 1875 1491
z
" transform="scale(0.015625)"/>
       <path id="LibertinusSerif-Regular-6e" d="M 1178 2291
Q 1459 2618 1724 2714
Q 1990 2810 2227 2810
Q 2394 2810 2534 2755
Q 2675 2701 2758 2592
Q 2867 2445 2899 2221
Q 2931 1997 2931 1734
L 2931 781
Q 2931 518 2963 400
Q 2995 282 3088 250
Q 3181 218 3360 198
Q 3386 173 3386 96
Q 3386 19 3360 -13
Q 3219 -6 3046 -3
Q 2874 0 2682 0
Q 2490 0 2333 -3
Q 2176 -6 2029 -13
Q 2003 19 2003 96
Q 2003 173 2029 198
Q 2195 218 2281 250
Q 2368 282 2397 400
Q 2426 518 2426 781
L 2426 1754
Q 2426 1901 2413 2025
Q 2400 2150 2349 2246
Q 2291 2355 2198 2416
Q 2106 2477 2010 2477
Q 1824 2477 1619 2377
Q 1414 2278 1229 2099
Q 1190 2054 1155 1993
Q 1120 1933 1120 1830
L 1120 781
Q 1120 518 1149 400
Q 1178 282 1264 250
Q 1350 218 1510 198
Q 1542 173 1542 96
Q 1542 19 1510 -13
Q 1370 -6 1216 -3
Q 1062 0 870 0
Q 678 0 496 -3
Q 314 -6 166 -13
Q 141 19 141 96
Q 141 173 166 198
Q 358 218 454 250
Q 550 282 582 400
Q 614 518 614 781
L 614 2029
Q 614 2214 582 2300
Q 550 2387 460 2419
Q 371 2451 198 2464
Q 192 2496 185 2557
Q 179 2618 186 2643
Q 518 2688 678 2733
Q 838 2778 973 2829
Q 1011 2829 1024 2813
Q 1037 2797 1050 2778
Q 1075 2726 1084 2572
Q 1094 2419 1101 2291
Q 1101 2246 1123 2252
Q 1146 2259 1178 2291
z
" transform="scale(0.015625)"/>
       <path id="LibertinusSerif-Regular-64" d="M 2138 320
Q 1901 128 1712 32
Q 1523 -64 1338 -64
Q 992 -64 749 112
Q 506 288 378 598
Q 250 909 250 1299
Q 250 1658 368 1939
Q 486 2221 691 2426
Q 883 2611 1110 2710
Q 1338 2810 1651 2810
Q 1760 2810 1869 2784
Q 1978 2758 2058 2729
Q 2138 2701 2150 2701
Q 2208 2701 2208 2758
L 2208 3578
Q 2208 3846 2176 3952
Q 2144 4058 2054 4077
Q 1965 4096 1798 4102
Q 1773 4134 1763 4195
Q 1754 4256 1760 4294
Q 1888 4307 2067 4336
Q 2246 4365 2412 4400
Q 2579 4435 2656 4467
Q 2739 4467 2739 4403
Q 2739 4403 2726 4224
Q 2714 4045 2714 3731
L 2714 832
Q 2714 595 2794 492
Q 2874 390 3181 365
Q 3213 339 3213 281
Q 3213 224 3181 192
Q 2886 160 2710 93
Q 2534 26 2426 -64
Q 2368 -90 2304 -64
Q 2304 -64 2275 67
Q 2246 198 2234 314
Q 2227 346 2195 342
Q 2163 339 2138 320
z
M 2208 794
L 2208 2010
Q 2208 2157 2189 2217
Q 2170 2278 2099 2355
Q 2003 2464 1878 2525
Q 1754 2586 1581 2586
Q 1485 2586 1309 2538
Q 1133 2490 986 2266
Q 915 2163 857 1961
Q 800 1760 800 1414
Q 800 1018 905 755
Q 1011 493 1171 365
Q 1331 237 1504 237
Q 1754 237 2106 544
Q 2176 602 2192 653
Q 2208 704 2208 794
z
" transform="scale(0.015625)"/>
       <path id="LibertinusSerif-Regular-45" d="M 1798 2310
Q 2074 2310 2192 2345
Q 2310 2381 2342 2477
Q 2374 2573 2381 2746
Q 2413 2778 2489 2778
Q 2566 2778 2592 2746
Q 2586 2630 2582 2480
Q 2579 2330 2579 2195
Q 2579 2029 2582 1894
Q 2586 1760 2592 1632
Q 2566 1606 2489 1606
Q 2413 1606 2381 1632
Q 2374 1779 2342 1875
Q 2310 1971 2192 2019
Q 2074 2067 1798 2067
L 1216 2067
L 1216 653
Q 1216 429 1296 339
Q 1376 250 1574 250
L 2317 250
Q 2682 250 2870 496
Q 3059 742 3155 1088
Q 3270 1114 3379 1056
Q 3341 813 3277 521
Q 3213 230 3142 -13
Q 3142 -13 3001 -9
Q 2861 -6 2669 -3
Q 2477 0 2323 0
L 947 0
Q 787 0 540 -3
Q 294 -6 115 -13
Q 90 19 90 96
Q 90 173 115 198
Q 339 211 460 243
Q 582 275 627 396
Q 672 518 672 781
L 672 3347
Q 672 3616 627 3734
Q 582 3853 460 3888
Q 339 3923 115 3930
Q 90 3962 90 4038
Q 90 4115 115 4141
Q 307 4134 550 4131
Q 794 4128 941 4128
L 2573 4128
Q 2688 4128 2745 4134
Q 2803 4141 2886 4154
Q 2912 4154 2912 4134
Q 2918 4115 2934 4006
Q 2950 3898 2972 3750
Q 2995 3603 3017 3452
Q 3040 3302 3053 3206
Q 2950 3155 2842 3174
Q 2771 3398 2697 3552
Q 2624 3706 2493 3789
Q 2362 3872 2118 3872
L 1638 3872
Q 1382 3872 1299 3773
Q 1216 3674 1216 3462
L 1216 2310
L 1798 2310
z
" transform="scale(0.015625)"/>
       <path id="LibertinusSerif-Regular-55" d="M 1101 3347
L 1101 1702
Q 1101 1498 1117 1277
Q 1133 1056 1203 854
Q 1274 653 1427 499
Q 1574 358 1766 278
Q 1958 198 2189 198
Q 2592 198 2829 342
Q 3066 486 3181 716
Q 3296 947 3331 1225
Q 3366 1504 3366 1773
L 3366 3347
Q 3366 3610 3318 3722
Q 3270 3834 3145 3872
Q 3021 3910 2778 3930
Q 2752 3962 2752 4038
Q 2752 4115 2778 4141
Q 3002 4134 3210 4131
Q 3418 4128 3520 4128
Q 3629 4128 3811 4131
Q 3994 4134 4173 4141
Q 4205 4115 4205 4038
Q 4205 3962 4173 3930
Q 3981 3910 3875 3872
Q 3770 3834 3725 3718
Q 3680 3603 3680 3347
L 3680 1888
Q 3680 1459 3609 1104
Q 3539 749 3360 486
Q 3181 224 2864 80
Q 2547 -64 2054 -64
Q 1811 -64 1548 -3
Q 1286 58 1059 224
Q 832 390 694 697
Q 557 1005 557 1491
L 557 3347
Q 557 3616 515 3734
Q 474 3853 365 3888
Q 256 3923 64 3930
Q 38 3962 38 4038
Q 38 4115 64 4141
Q 250 4134 445 4131
Q 640 4128 826 4128
Q 1018 4128 1242 4131
Q 1466 4134 1690 4141
Q 1722 4115 1722 4038
Q 1722 3962 1690 3930
Q 1446 3923 1318 3888
Q 1190 3853 1145 3734
Q 1101 3616 1101 3347
z
" transform="scale(0.015625)"/>
       <path id="LibertinusSerif-Regular-52" d="M 1210 781
Q 1210 518 1254 396
Q 1299 275 1420 243
Q 1542 211 1766 198
Q 1798 173 1798 96
Q 1798 19 1766 -13
Q 1555 -6 1337 -3
Q 1120 0 941 0
Q 755 0 540 -3
Q 326 -6 109 -13
Q 83 19 83 96
Q 83 173 109 198
Q 333 211 454 243
Q 576 275 621 396
Q 666 518 666 781
L 666 3347
Q 666 3616 621 3734
Q 576 3853 454 3888
Q 333 3923 109 3930
Q 83 3962 83 4038
Q 83 4115 109 4141
Q 333 4134 550 4131
Q 768 4128 934 4128
Q 1107 4128 1308 4150
Q 1510 4173 1734 4173
Q 2035 4173 2323 4128
Q 2611 4083 2842 3866
Q 3181 3546 3181 3066
Q 3181 2816 3088 2624
Q 2995 2432 2857 2301
Q 2720 2170 2576 2086
Q 2432 2003 2330 1971
L 3136 627
Q 3264 416 3398 275
Q 3533 134 3750 134
Q 3795 51 3757 -19
Q 3712 -45 3635 -54
Q 3558 -64 3488 -64
Q 3200 -64 2992 109
Q 2784 282 2643 506
L 1958 1619
Q 1914 1696 1843 1750
Q 1773 1805 1625 1833
Q 1478 1862 1210 1862
L 1210 781
z
M 1741 3955
Q 1517 3955 1401 3891
Q 1286 3827 1248 3734
Q 1210 3642 1210 3546
L 1210 2080
L 1517 2080
Q 1830 2080 2070 2157
Q 2310 2234 2451 2448
Q 2592 2662 2592 3059
Q 2592 3437 2461 3629
Q 2330 3821 2134 3888
Q 1939 3955 1741 3955
z
" transform="scale(0.015625)"/>
      </defs>
      <use xlink:href="#LibertinusSerif-Regular-50"/>
      <use xlink:href="#LibertinusSerif-Regular-72" transform="translate(54.099991 0)"/>
      <use xlink:href="#LibertinusSerif-Regular-69" transform="translate(91.299988 0)"/>
      <use xlink:href="#LibertinusSerif-Regular-63" transform="translate(118.399979 0)"/>
      <use xlink:href="#LibertinusSerif-Regular-65" transform="translate(161.199966 0)"/>
      <use xlink:href="#LibertinusSerif-Regular-20" transform="translate(205.899963 0)"/>
      <use xlink:href="#LibertinusSerif-Regular-28" transform="translate(230.899948 0)"/>
      <use xlink:href="#LibertinusSerif-Regular-74" transform="translate(260.699936 0)"/>
      <use xlink:href="#LibertinusSerif-Regular-68" transform="translate(292.299927 0)"/>
      <use xlink:href="#LibertinusSerif-Regular-6f" transform="translate(346.099915 0)"/>
      <use xlink:href="#LibertinusSerif-Regular-75" transform="translate(396.499908 0)"/>
      <use xlink:href="#LibertinusSerif-Regular-73" transform="translate(449.599899 0)"/>
      <use xlink:href="#LibertinusSerif-Regular-61" transform="translate(488.599884 0)"/>
      <use xlink:href="#LibertinusSerif-Regular-6e" transform="translate(534.299881 0)"/>
      <use xlink:href="#LibertinusSerif-Regular-64" transform="translate(588.499878 0)"/>
      <use xlink:href="#LibertinusSerif-Regular-20" transform="translate(639.099869 0)"/>
      <use xlink:href="#LibertinusSerif-Regular-45" transform="translate(664.099854 0)"/>
      <use xlink:href="#LibertinusSerif-Regular-55" transform="translate(719.79985 0)"/>
      <use xlink:href="#LibertinusSerif-Regular-52" transform="translate(785.899841 0)"/>
      <use xlink:href="#LibertinusSerif-Regular-29" transform="translate(844.599838 0)"/>
     </g>
    </g>
   </g>
   <g id="line2d_29">
    <path d="M 78.396818 296.324269
L 538.933182 35.163115
L 538.933182 35.163115
" clip-path="url(#pec2e1ecaa4)" style="fill: none; stroke: #d62728; stroke-width: 2.5; stroke-linecap: square"/>
   </g>
   <g id="patch_3">
    <path d="M 55.37 310.48
L 55.37 14.04
" style="fill: none; stroke: #000000; stroke-width: 0.8; stroke-linejoin: miter; stroke-linecap: square"/>
   </g>
   <g id="patch_4">
    <path d="M 561.96 310.48
L 561.96 14.04
" style="fill: none; stroke: #000000; stroke-width: 0.8; stroke-linejoin: miter; stroke-linecap: square"/>
   </g>
   <g id="patch_5">
    <path d="M 55.37 310.48
L 561.96 310.48
" style="fill: none; stroke: #000000; stroke-width: 0.8; stroke-linejoin: miter; stroke-linecap: square"/>
   </g>
   <g id="patch_6">
    <path d="M 55.37 14.04
L 561.96 14.04
" style="fill: none; stroke: #000000; stroke-width: 0.8; stroke-linejoin: miter; stroke-linecap: square"/>
   </g>
   <g id="legend_1">
    <g id="patch_7">
     <path d="M 64.47 61.776406
L 281.702031 61.776406
Q 284.302031 61.776406 284.302031 59.176406
L 284.302031 23.14
Q 284.302031 20.54 281.702031 20.54
L 64.47 20.54
Q 61.87 20.54 61.87 23.14
L 61.87 59.176406
Q 61.87 61.776406 64.47 61.776406
z
" style="fill: #ffffff; opacity: 0.8; stroke: #cccccc; stroke-linejoin: miter"/>
    </g>
    <g id="PathCollection_2">
     <g>
      <use xlink:href="#m71f099f273" x="80.07" y="31.4275" style="fill: #1f77b4; fill-opacity: 0.8; stroke: #1f77b4; stroke-opacity: 0.8"/>
     </g>
    </g>
    <g id="text_17">
     <!-- Observed houses -->
     <g transform="translate(103.47 34.84) scale(0.13 -0.13)">
      <defs>
       <path id="LibertinusSerif-Regular-4f" d="M 4262 2106
Q 4262 1702 4160 1360
Q 4058 1018 3866 742
Q 3603 365 3187 150
Q 2771 -64 2240 -64
Q 1696 -64 1241 185
Q 787 435 512 896
Q 237 1357 237 1984
Q 237 2605 470 3110
Q 704 3616 1142 3913
Q 1581 4211 2202 4211
Q 2778 4211 3245 3961
Q 3712 3712 3987 3241
Q 4262 2771 4262 2106
z
M 2118 3981
Q 1805 3981 1513 3789
Q 1222 3597 1036 3181
Q 851 2765 851 2093
Q 851 1478 1068 1049
Q 1286 621 1632 393
Q 1978 166 2368 166
Q 2733 166 3024 380
Q 3315 595 3481 1004
Q 3648 1414 3648 1984
Q 3648 2630 3440 3075
Q 3232 3520 2886 3750
Q 2541 3981 2118 3981
z
" transform="scale(0.015625)"/>
       <path id="LibertinusSerif-Regular-62" d="M 1069 2522
Q 1216 2656 1398 2733
Q 1581 2810 1786 2810
Q 2067 2810 2326 2656
Q 2586 2502 2752 2220
Q 2918 1939 2918 1549
Q 2918 1165 2790 867
Q 2662 570 2454 362
Q 2246 154 1996 45
Q 1747 -64 1504 -64
Q 1338 -64 1194 -32
Q 1050 0 941 96
Q 890 141 851 137
Q 813 134 768 77
Q 730 32 688 -9
Q 646 -51 614 -77
Q 557 -77 528 -57
Q 499 -38 474 0
Q 486 70 492 169
Q 499 269 499 454
L 499 3578
Q 499 3846 467 3952
Q 435 4058 345 4077
Q 256 4096 90 4102
Q 64 4134 54 4195
Q 45 4256 51 4294
Q 179 4307 358 4336
Q 538 4365 704 4400
Q 870 4435 947 4467
Q 1030 4467 1030 4403
Q 1030 4403 1017 4224
Q 1005 4045 1005 3731
L 1005 2554
Q 1005 2464 1069 2522
z
M 1114 2323
Q 1050 2266 1027 2211
Q 1005 2157 1005 2054
L 1005 454
Q 1101 333 1209 243
Q 1318 154 1466 154
Q 1773 154 1971 323
Q 2170 493 2269 781
Q 2368 1069 2368 1434
Q 2368 1747 2272 1993
Q 2176 2240 2016 2384
Q 1856 2528 1658 2528
Q 1517 2528 1379 2480
Q 1242 2432 1114 2323
z
" transform="scale(0.015625)"/>
       <path id="LibertinusSerif-Regular-76" d="M 2080 2547
Q 2054 2579 2054 2656
Q 2054 2733 2080 2758
Q 2202 2752 2355 2749
Q 2509 2746 2669 2746
Q 2797 2746 2909 2749
Q 3021 2752 3117 2758
Q 3149 2733 3149 2656
Q 3149 2579 3117 2547
Q 2848 2522 2752 2403
Q 2656 2285 2566 2074
L 1715 70
Q 1651 -77 1562 -77
Q 1453 -77 1402 58
L 582 2080
Q 518 2240 467 2336
Q 416 2432 329 2480
Q 243 2528 70 2547
Q 45 2579 45 2656
Q 45 2733 70 2758
Q 218 2752 362 2749
Q 506 2746 666 2746
Q 826 2746 989 2749
Q 1152 2752 1312 2758
Q 1344 2733 1344 2656
Q 1344 2579 1312 2547
Q 1056 2515 1040 2432
Q 1024 2349 1114 2118
L 1574 883
Q 1651 685 1692 678
Q 1734 672 1811 864
L 2330 2118
Q 2426 2362 2384 2445
Q 2342 2528 2080 2547
z
" transform="scale(0.015625)"/>
      </defs>
      <use xlink:href="#LibertinusSerif-Regular-4f"/>
      <use xlink:href="#LibertinusSerif-Regular-62" transform="translate(70.199982 0)"/>
      <use xlink:href="#LibertinusSerif-Regular-73" transform="translate(119.499969 0)"/>
      <use xlink:href="#LibertinusSerif-Regular-65" transform="translate(158.499954 0)"/>
      <use xlink:href="#LibertinusSerif-Regular-72" transform="translate(203.199951 0)"/>
      <use xlink:href="#LibertinusSerif-Regular-76" transform="translate(240.399948 0)"/>
      <use xlink:href="#LibertinusSerif-Regular-65" transform="translate(290.099945 0)"/>
      <use xlink:href="#LibertinusSerif-Regular-64" transform="translate(334.799942 0)"/>
      <use xlink:href="#LibertinusSerif-Regular-20" transform="translate(385.399933 0)"/>
      <use xlink:href="#LibertinusSerif-Regular-68" transform="translate(410.399918 0)"/>
      <use xlink:href="#LibertinusSerif-Regular-6f" transform="translate(464.199905 0)"/>
      <use xlink:href="#LibertinusSerif-Regular-75" transform="translate(514.599899 0)"/>
      <use xlink:href="#LibertinusSerif-Regular-73" transform="translate(567.69989 0)"/>
      <use xlink:href="#LibertinusSerif-Regular-65" transform="translate(606.699875 0)"/>
      <use xlink:href="#LibertinusSerif-Regular-73" transform="translate(651.399872 0)"/>
     </g>
    </g>
    <g id="line2d_30">
     <path d="M 67.07 48.932812
L 80.07 48.932812
L 93.07 48.932812
" style="fill: none; stroke: #d62728; stroke-width: 2.5; stroke-linecap: square"/>
    </g>
    <g id="text_18">
     <!-- Regression line: y = 1.77x + 45.29 -->
     <g transform="translate(103.47 53.482812) scale(0.13 -0.13)">
      <defs>
       <path id="LibertinusSerif-Regular-67" d="M 2842 2477
Q 2790 2477 2736 2515
Q 2682 2554 2662 2592
Q 2611 2669 2534 2669
Q 2470 2669 2390 2617
Q 2310 2566 2278 2515
Q 2419 2374 2486 2224
Q 2554 2074 2554 1850
Q 2554 1536 2400 1318
Q 2246 1101 2000 985
Q 1754 870 1472 870
Q 1286 870 1145 905
Q 1005 941 890 1005
Q 774 845 774 634
Q 774 429 908 349
Q 1043 269 1184 269
Q 1210 269 1258 272
Q 1306 275 1376 282
Q 1491 294 1606 304
Q 1722 314 1805 314
Q 1926 314 2096 304
Q 2266 294 2442 249
Q 2618 205 2739 102
Q 2880 -13 2950 -137
Q 3021 -262 3021 -416
Q 3021 -672 2864 -880
Q 2707 -1088 2444 -1229
Q 2182 -1370 1865 -1446
Q 1549 -1523 1222 -1523
Q 979 -1523 742 -1456
Q 506 -1389 355 -1229
Q 205 -1069 205 -794
Q 205 -589 339 -381
Q 474 -173 730 -19
Q 608 45 521 173
Q 435 301 435 474
Q 435 640 508 822
Q 582 1005 717 1120
Q 582 1248 483 1414
Q 384 1581 384 1837
Q 384 2131 537 2348
Q 691 2566 944 2688
Q 1197 2810 1478 2810
Q 1760 2810 1923 2739
Q 2086 2669 2144 2630
Q 2272 2797 2467 2877
Q 2662 2957 2784 2957
Q 2912 2957 2995 2889
Q 3078 2822 3078 2720
Q 3078 2624 3004 2550
Q 2931 2477 2842 2477
z
M 2042 1786
Q 2042 2182 1882 2396
Q 1722 2611 1421 2611
Q 909 2611 909 1933
Q 909 1728 947 1529
Q 986 1331 1110 1200
Q 1235 1069 1504 1069
Q 1626 1069 1747 1123
Q 1869 1178 1955 1334
Q 2042 1491 2042 1786
z
M 845 -64
Q 704 -230 675 -364
Q 646 -499 646 -666
Q 646 -826 732 -944
Q 819 -1062 944 -1139
Q 1069 -1216 1200 -1251
Q 1331 -1286 1414 -1286
Q 1702 -1286 1993 -1206
Q 2285 -1126 2477 -969
Q 2669 -813 2669 -582
Q 2669 -454 2598 -371
Q 2528 -288 2342 -186
Q 2202 -109 2006 -93
Q 1811 -77 1568 -77
Q 1504 -77 1376 -86
Q 1248 -96 1101 -96
Q 960 -96 845 -64
z
" transform="scale(0.015625)"/>
       <path id="LibertinusSerif-Regular-6c" d="M 608 781
L 608 3578
Q 608 3821 582 3926
Q 557 4032 470 4061
Q 384 4090 198 4102
Q 173 4134 163 4195
Q 154 4256 160 4294
Q 288 4307 467 4336
Q 646 4365 812 4400
Q 979 4435 1056 4467
Q 1139 4467 1139 4403
Q 1139 4403 1126 4224
Q 1114 4045 1114 3731
L 1114 781
Q 1114 518 1149 396
Q 1184 275 1283 243
Q 1382 211 1574 198
Q 1606 173 1606 96
Q 1606 19 1574 -13
Q 1414 -6 1235 -3
Q 1056 0 864 0
Q 672 0 493 -3
Q 314 -6 147 -13
Q 122 19 122 96
Q 122 173 147 198
Q 346 211 442 243
Q 538 275 573 396
Q 608 518 608 781
z
" transform="scale(0.015625)"/>
       <path id="LibertinusSerif-Regular-3a" d="M 445 2323
Q 445 2464 544 2563
Q 643 2662 784 2662
Q 925 2662 1024 2563
Q 1123 2464 1123 2323
Q 1123 2182 1024 2083
Q 925 1984 784 1984
Q 643 1984 544 2083
Q 445 2182 445 2323
z
M 445 403
Q 445 544 544 643
Q 643 742 784 742
Q 925 742 1024 643
Q 1123 544 1123 403
Q 1123 262 1024 163
Q 925 64 784 64
Q 643 64 544 163
Q 445 262 445 403
z
" transform="scale(0.015625)"/>
       <path id="LibertinusSerif-Regular-79" d="M 1306 -1024
Q 1133 -1331 960 -1408
Q 787 -1485 685 -1485
Q 557 -1485 470 -1417
Q 384 -1350 384 -1248
Q 384 -1184 454 -1078
Q 525 -973 666 -973
Q 717 -973 752 -982
Q 787 -992 851 -992
Q 1069 -992 1171 -806
Q 1242 -659 1302 -518
Q 1363 -378 1421 -218
Q 1453 -128 1440 -13
Q 1427 102 1392 211
Q 1357 320 1331 384
L 608 2067
Q 525 2266 457 2362
Q 390 2458 310 2496
Q 230 2534 102 2547
Q 77 2579 77 2656
Q 77 2733 102 2758
Q 198 2752 329 2749
Q 461 2746 621 2746
Q 794 2746 979 2749
Q 1165 2752 1344 2758
Q 1376 2733 1376 2656
Q 1376 2579 1344 2547
Q 1075 2528 1062 2432
Q 1050 2336 1133 2131
L 1702 800
Q 1779 621 1856 794
L 2490 2259
Q 2541 2374 2502 2432
Q 2464 2490 2374 2515
Q 2285 2541 2182 2547
Q 2157 2579 2157 2656
Q 2157 2733 2182 2758
Q 2330 2752 2477 2749
Q 2624 2746 2765 2746
Q 2899 2746 3011 2749
Q 3123 2752 3219 2758
Q 3251 2733 3251 2656
Q 3251 2579 3219 2547
Q 2995 2522 2896 2432
Q 2797 2342 2701 2138
Q 2534 1779 2371 1414
Q 2208 1050 2016 598
Q 1824 147 1568 -474
Q 1510 -614 1446 -752
Q 1382 -890 1306 -1024
z
" transform="scale(0.015625)"/>
       <path id="LibertinusSerif-Regular-3d" d="M 2970 1978
L 480 1978
Q 435 1978 409 2010
Q 384 2042 384 2080
Q 384 2150 435 2224
Q 486 2298 544 2298
L 3053 2298
Q 3104 2298 3123 2262
Q 3142 2227 3142 2189
Q 3142 2144 3088 2061
Q 3034 1978 2970 1978
z
M 2970 915
L 480 915
Q 435 915 409 947
Q 384 979 384 1018
Q 384 1088 435 1161
Q 486 1235 544 1235
L 3053 1235
Q 3104 1235 3123 1200
Q 3142 1165 3142 1126
Q 3142 1082 3088 998
Q 3034 915 2970 915
z
" transform="scale(0.015625)"/>
       <path id="LibertinusSerif-Regular-2e" d="M 365 275
Q 365 416 464 515
Q 563 614 704 614
Q 845 614 944 515
Q 1043 416 1043 275
Q 1043 134 944 35
Q 845 -64 704 -64
Q 563 -64 464 35
Q 365 134 365 275
z
" transform="scale(0.015625)"/>
       <path id="LibertinusSerif-Regular-78" d="M 1165 2291
L 1555 1715
Q 1594 1664 1619 1661
Q 1645 1658 1677 1702
L 2093 2285
Q 2208 2445 2163 2486
Q 2118 2528 1939 2547
Q 1914 2579 1914 2656
Q 1914 2733 1939 2758
Q 2067 2752 2201 2749
Q 2336 2746 2477 2746
Q 2624 2746 2736 2749
Q 2848 2752 2944 2758
Q 2976 2733 2976 2656
Q 2976 2579 2944 2547
Q 2771 2534 2636 2476
Q 2502 2419 2323 2195
L 1786 1510
Q 1747 1466 1786 1414
L 2362 602
Q 2490 422 2579 339
Q 2669 256 2761 233
Q 2854 211 3002 198
Q 3034 173 3034 96
Q 3034 19 3002 -13
Q 2886 -6 2752 -3
Q 2618 0 2432 0
Q 2259 0 2102 -3
Q 1946 -6 1798 -13
Q 1773 19 1773 96
Q 1773 173 1798 198
Q 1901 211 1958 230
Q 2016 250 2003 317
Q 1990 384 1882 538
L 1510 1050
Q 1478 1088 1456 1091
Q 1434 1094 1395 1037
L 992 454
Q 883 301 921 259
Q 960 218 1133 198
Q 1165 173 1165 96
Q 1165 19 1133 -13
Q 1011 -6 876 -3
Q 742 0 595 0
Q 454 0 342 -3
Q 230 -6 134 -13
Q 109 19 109 96
Q 109 173 134 198
Q 250 205 342 227
Q 435 250 531 323
Q 627 397 755 557
L 1293 1248
Q 1325 1286 1286 1344
L 730 2157
Q 595 2355 457 2444
Q 320 2534 154 2547
Q 128 2579 128 2656
Q 128 2733 154 2758
Q 282 2752 422 2749
Q 563 2746 704 2746
Q 851 2746 1036 2749
Q 1222 2752 1350 2758
Q 1382 2733 1382 2656
Q 1382 2579 1350 2547
Q 1133 2522 1094 2486
Q 1056 2451 1165 2291
z
" transform="scale(0.015625)"/>
       <path id="LibertinusSerif-Regular-2b" d="M 1600 2784
Q 1600 2848 1683 2902
Q 1766 2957 1811 2957
Q 1850 2957 1885 2937
Q 1920 2918 1920 2867
L 1920 1766
L 3046 1766
Q 3098 1766 3117 1731
Q 3136 1696 3136 1658
Q 3136 1613 3081 1529
Q 3027 1446 2963 1446
L 1920 1446
L 1920 422
Q 1920 365 1846 313
Q 1773 262 1702 262
Q 1664 262 1632 288
Q 1600 314 1600 358
L 1600 1446
L 480 1446
Q 435 1446 409 1478
Q 384 1510 384 1549
Q 384 1619 435 1692
Q 486 1766 544 1766
L 1600 1766
L 1600 2784
z
" transform="scale(0.015625)"/>
       <path id="LibertinusSerif-Regular-39" d="M 2093 1638
Q 1946 1568 1779 1533
Q 1613 1498 1485 1498
Q 1050 1498 794 1645
Q 538 1792 429 2029
Q 320 2266 320 2541
Q 320 2746 387 2982
Q 454 3219 598 3430
Q 742 3642 966 3773
Q 1190 3904 1504 3904
Q 1690 3904 1901 3843
Q 2112 3782 2301 3616
Q 2490 3450 2611 3142
Q 2733 2835 2733 2349
Q 2733 1971 2585 1558
Q 2438 1146 2138 800
Q 1869 486 1545 278
Q 1222 70 736 -77
Q 659 -26 659 90
Q 1088 250 1373 502
Q 1658 755 1830 1049
Q 2003 1344 2093 1638
z
M 2150 1869
Q 2176 2010 2189 2134
Q 2202 2259 2202 2368
Q 2202 2918 2093 3200
Q 1984 3482 1811 3581
Q 1638 3680 1434 3680
Q 1197 3680 1024 3433
Q 851 3187 851 2656
Q 851 2534 883 2377
Q 915 2221 998 2070
Q 1082 1920 1232 1821
Q 1382 1722 1619 1722
Q 1702 1722 1846 1744
Q 1990 1766 2150 1869
z
" transform="scale(0.015625)"/>
      </defs>
      <use xlink:href="#LibertinusSerif-Regular-52"/>
      <use xlink:href="#LibertinusSerif-Regular-65" transform="translate(58.699997 0)"/>
      <use xlink:href="#LibertinusSerif-Regular-67" transform="translate(103.399994 0)"/>
      <use xlink:href="#LibertinusSerif-Regular-72" transform="translate(153.399979 0)"/>
      <use xlink:href="#LibertinusSerif-Regular-65" transform="translate(190.599976 0)"/>
      <use xlink:href="#LibertinusSerif-Regular-73" transform="translate(235.299973 0)"/>
      <use xlink:href="#LibertinusSerif-Regular-73" transform="translate(274.299957 0)"/>
      <use xlink:href="#LibertinusSerif-Regular-69" transform="translate(313.299942 0)"/>
      <use xlink:href="#LibertinusSerif-Regular-6f" transform="translate(340.399933 0)"/>
      <use xlink:href="#LibertinusSerif-Regular-6e" transform="translate(390.799927 0)"/>
      <use xlink:href="#LibertinusSerif-Regular-20" transform="translate(444.999924 0)"/>
      <use xlink:href="#LibertinusSerif-Regular-6c" transform="translate(469.999908 0)"/>
      <use xlink:href="#LibertinusSerif-Regular-69" transform="translate(496.399902 0)"/>
      <use xlink:href="#LibertinusSerif-Regular-6e" transform="translate(523.499893 0)"/>
      <use xlink:href="#LibertinusSerif-Regular-65" transform="translate(577.69989 0)"/>
      <use xlink:href="#LibertinusSerif-Regular-3a" transform="translate(622.399887 0)"/>
      <use xlink:href="#LibertinusSerif-Regular-20" transform="translate(645.999878 0)"/>
      <use xlink:href="#LibertinusSerif-Regular-79" transform="translate(670.999863 0)"/>
      <use xlink:href="#LibertinusSerif-Regular-20" transform="translate(722.499847 0)"/>
      <use xlink:href="#LibertinusSerif-Regular-3d" transform="translate(747.499832 0)"/>
      <use xlink:href="#LibertinusSerif-Regular-20" transform="translate(802.499817 0)"/>
      <use xlink:href="#LibertinusSerif-Regular-31" transform="translate(827.499802 0)"/>
      <use xlink:href="#LibertinusSerif-Regular-2e" transform="translate(873.999786 0)"/>
      <use xlink:href="#LibertinusSerif-Regular-37" transform="translate(895.999771 0)"/>
      <use xlink:href="#LibertinusSerif-Regular-37" transform="translate(942.499756 0)"/>
      <use xlink:href="#LibertinusSerif-Regular-78" transform="translate(988.999741 0)"/>
      <use xlink:href="#LibertinusSerif-Regular-20" transform="translate(1037.999725 0)"/>
      <use xlink:href="#LibertinusSerif-Regular-2b" transform="translate(1062.99971 0)"/>
      <use xlink:href="#LibertinusSerif-Regular-20" transform="translate(1117.999695 0)"/>
      <use xlink:href="#LibertinusSerif-Regular-34" transform="translate(1142.99968 0)"/>
      <use xlink:href="#LibertinusSerif-Regular-35" transform="translate(1189.499664 0)"/>
      <use xlink:href="#LibertinusSerif-Regular-2e" transform="translate(1235.999649 0)"/>
      <use xlink:href="#LibertinusSerif-Regular-32" transform="translate(1257.999634 0)"/>
      <use xlink:href="#LibertinusSerif-Regular-39" transform="translate(1304.499619 0)"/>
     </g>
    </g>
   </g>
  </g>
 </g>
 <defs>
  <clipPath id="pec2e1ecaa4">
   <rect x="55.37" y="14.04" width="506.59" height="296.44"/>
  </clipPath>
 </defs>
</svg>
