<?xml version="1.0" encoding="utf-8" standalone="no"?>
<!DOCTYPE svg PUBLIC "-//W3C//DTD SVG 1.1//EN"
  "http://www.w3.org/Graphics/SVG/1.1/DTD/svg11.dtd">
<svg xmlns:xlink="http://www.w3.org/1999/xlink" width="540pt" height="324pt" viewBox="0 0 540 324" xmlns="http://www.w3.org/2000/svg" version="1.1">
 <metadata>
  <rdf:RDF xmlns:dc="http://purl.org/dc/elements/1.1/" xmlns:cc="http://creativecommons.org/ns#" xmlns:rdf="http://www.w3.org/1999/02/22-rdf-syntax-ns#">
   <cc:Work>
    <dc:type rdf:resource="http://purl.org/dc/dcmitype/StillImage"/>
    <dc:date>2026-05-14T22:34:28.323352</dc:date>
    <dc:format>image/svg+xml</dc:format>
    <dc:creator>
     <cc:Agent>
      <dc:title>Matplotlib v3.10.7, https://matplotlib.org/</dc:title>
     </cc:Agent>
    </dc:creator>
   </cc:Work>
  </rdf:RDF>
 </metadata>
 <defs>
  <style type="text/css">*{stroke-linejoin: round; stroke-linecap: butt}</style>
 </defs>
 <g id="figure_1">
  <g id="patch_1">
   <path d="M 0 324
L 540 324
L 540 0
L 0 0
z
" style="fill: #ffffff"/>
  </g>
  <g id="axes_1">
   <g id="patch_2">
    <path d="M 44.93 273.4
L 524.88 273.4
L 524.88 15.12
L 44.93 15.12
z
" style="fill: #ffffff"/>
   </g>
   <g id="matplotlib.axis_1">
    <g id="xtick_1">
     <g id="line2d_1">
      <path d="M 68.98182 273.4
L 68.98182 15.12
" clip-path="url(#p0543a3fe22)" style="fill: none; stroke: #b0b0b0; stroke-opacity: 0.25; stroke-width: 0.8; stroke-linecap: square"/>
     </g>
     <g id="line2d_2">
      <defs>
       <path id="m0a60878100" d="M 0 0
L 0 3.5
" style="stroke: #000000; stroke-width: 0.8"/>
      </defs>
      <g>
       <use xlink:href="#m0a60878100" x="68.98182" y="273.4" style="stroke: #000000; stroke-width: 0.8"/>
      </g>
     </g>
     <g id="text_1">
      <!-- 0 -->
      <g transform="translate(65.72682 290.171563) scale(0.14 -0.14)">
       <defs>
        <path id="LibertinusSerif-Regular-30" d="M 1459 -64
Q 1082 -64 813 205
Q 550 467 400 918
Q 250 1370 250 1882
Q 250 2515 426 2969
Q 602 3424 886 3664
Q 1171 3904 1485 3904
Q 1747 3904 1942 3779
Q 2138 3654 2266 3488
Q 2701 2912 2701 1939
Q 2701 1376 2579 992
Q 2458 608 2266 374
Q 2074 141 1859 38
Q 1645 -64 1459 -64
z
M 1485 3680
Q 1376 3680 1257 3606
Q 1139 3533 1036 3334
Q 934 3136 870 2768
Q 806 2400 806 1811
Q 806 1600 825 1321
Q 845 1043 912 777
Q 979 512 1110 336
Q 1242 160 1466 160
Q 1523 160 1632 195
Q 1741 230 1853 355
Q 1965 480 2035 742
Q 2106 986 2125 1302
Q 2144 1619 2144 2061
Q 2144 2707 2032 3078
Q 1920 3450 1773 3571
Q 1651 3680 1485 3680
z
" transform="scale(0.015625)"/>
       </defs>
       <use xlink:href="#LibertinusSerif-Regular-30"/>
      </g>
     </g>
    </g>
    <g id="xtick_2">
     <g id="line2d_3">
      <path d="M 165.941416 273.4
L 165.941416 15.12
" clip-path="url(#p0543a3fe22)" style="fill: none; stroke: #b0b0b0; stroke-opacity: 0.25; stroke-width: 0.8; stroke-linecap: square"/>
     </g>
     <g id="line2d_4">
      <g>
       <use xlink:href="#m0a60878100" x="165.941416" y="273.4" style="stroke: #000000; stroke-width: 0.8"/>
      </g>
     </g>
     <g id="text_2">
      <!-- 1 -->
      <g transform="translate(162.686416 290.171563) scale(0.14 -0.14)">
       <defs>
        <path id="LibertinusSerif-Regular-31" d="M 1843 781
Q 1843 518 1888 396
Q 1933 275 2054 243
Q 2176 211 2400 198
Q 2432 173 2432 96
Q 2432 19 2400 -13
Q 2163 -6 2006 -3
Q 1850 0 1619 0
Q 1357 0 1161 -3
Q 966 -6 730 -13
Q 704 19 704 96
Q 704 173 730 198
Q 954 211 1091 243
Q 1229 275 1289 396
Q 1350 518 1350 781
L 1350 2867
Q 1350 3034 1324 3136
Q 1299 3238 1222 3238
Q 1133 3238 1008 3203
Q 883 3168 666 3078
Q 589 3130 570 3251
Q 992 3450 1277 3587
Q 1562 3725 1824 3891
Q 1862 3891 1862 3859
Q 1856 3795 1849 3542
Q 1843 3290 1843 3002
L 1843 781
z
" transform="scale(0.015625)"/>
       </defs>
       <use xlink:href="#LibertinusSerif-Regular-31"/>
      </g>
     </g>
    </g>
    <g id="xtick_3">
     <g id="line2d_5">
      <path d="M 262.901012 273.4
L 262.901012 15.12
" clip-path="url(#p0543a3fe22)" style="fill: none; stroke: #b0b0b0; stroke-opacity: 0.25; stroke-width: 0.8; stroke-linecap: square"/>
     </g>
     <g id="line2d_6">
      <g>
       <use xlink:href="#m0a60878100" x="262.901012" y="273.4" style="stroke: #000000; stroke-width: 0.8"/>
      </g>
     </g>
     <g id="text_3">
      <!-- 2 -->
      <g transform="translate(259.646012 290.171563) scale(0.14 -0.14)">
       <defs>
        <path id="LibertinusSerif-Regular-32" d="M 390 2995
Q 390 3187 531 3398
Q 672 3610 931 3757
Q 1190 3904 1542 3904
Q 1805 3904 2051 3805
Q 2298 3706 2461 3491
Q 2624 3277 2624 2931
Q 2624 2566 2441 2320
Q 2259 2074 1984 1811
L 1338 1190
Q 1325 1178 1251 1101
Q 1178 1024 1088 905
Q 998 787 931 659
Q 864 531 864 416
L 2003 416
Q 2176 416 2272 553
Q 2368 691 2451 1030
Q 2573 1056 2637 998
Q 2637 902 2614 729
Q 2592 557 2560 355
Q 2528 154 2483 -13
Q 2483 -13 2400 -9
Q 2317 -6 2201 -3
Q 2086 0 1984 0
L 864 0
Q 762 0 637 -3
Q 512 -6 422 -9
Q 333 -13 333 -13
Q 333 179 384 358
Q 435 538 592 765
Q 749 992 1062 1312
L 1536 1779
Q 1818 2067 1939 2332
Q 2061 2598 2061 2906
Q 2061 3213 1971 3382
Q 1882 3552 1750 3616
Q 1619 3680 1504 3680
Q 1152 3680 1011 3545
Q 870 3411 870 3290
Q 870 3251 892 3209
Q 915 3168 922 3136
Q 934 3104 940 3072
Q 947 3040 947 3002
Q 947 2893 838 2819
Q 730 2746 646 2746
Q 544 2746 467 2819
Q 390 2893 390 2995
z
" transform="scale(0.015625)"/>
       </defs>
       <use xlink:href="#LibertinusSerif-Regular-32"/>
      </g>
     </g>
    </g>
    <g id="xtick_4">
     <g id="line2d_7">
      <path d="M 359.860608 273.4
L 359.860608 15.12
" clip-path="url(#p0543a3fe22)" style="fill: none; stroke: #b0b0b0; stroke-opacity: 0.25; stroke-width: 0.8; stroke-linecap: square"/>
     </g>
     <g id="line2d_8">
      <g>
       <use xlink:href="#m0a60878100" x="359.860608" y="273.4" style="stroke: #000000; stroke-width: 0.8"/>
      </g>
     </g>
     <g id="text_4">
      <!-- 3 -->
      <g transform="translate(356.605608 290.171563) scale(0.14 -0.14)">
       <defs>
        <path id="LibertinusSerif-Regular-33" d="M 1376 3680
Q 1293 3680 1149 3645
Q 1005 3610 886 3504
Q 768 3398 768 3194
Q 768 3136 752 3056
Q 736 2976 685 2918
Q 634 2861 518 2861
Q 403 2861 352 2937
Q 301 3014 301 3078
Q 301 3155 358 3292
Q 416 3430 553 3571
Q 691 3712 924 3808
Q 1158 3904 1510 3904
Q 1760 3904 1933 3833
Q 2106 3763 2208 3654
Q 2323 3539 2364 3414
Q 2406 3290 2406 3149
Q 2406 2893 2268 2688
Q 2131 2483 1734 2298
L 1741 2285
Q 1933 2253 2141 2147
Q 2349 2042 2496 1834
Q 2643 1626 2643 1274
Q 2643 851 2441 550
Q 2240 250 1913 93
Q 1587 -64 1203 -64
Q 1011 -64 796 -9
Q 582 45 432 141
Q 282 237 282 365
Q 282 442 365 515
Q 448 589 550 589
Q 646 589 713 541
Q 781 493 826 422
Q 883 339 963 249
Q 1043 160 1286 160
Q 1370 160 1501 201
Q 1632 243 1766 352
Q 1901 461 1990 662
Q 2080 864 2080 1184
Q 2080 1549 1945 1725
Q 1811 1901 1619 1955
Q 1427 2010 1242 2010
Q 1178 2010 1098 2010
Q 1018 2010 934 1997
L 902 2202
Q 1222 2246 1446 2400
Q 1670 2554 1788 2749
Q 1907 2944 1907 3104
Q 1907 3411 1744 3545
Q 1581 3680 1376 3680
z
" transform="scale(0.015625)"/>
       </defs>
       <use xlink:href="#LibertinusSerif-Regular-33"/>
      </g>
     </g>
    </g>
    <g id="xtick_5">
     <g id="line2d_9">
      <path d="M 456.820204 273.4
L 456.820204 15.12
" clip-path="url(#p0543a3fe22)" style="fill: none; stroke: #b0b0b0; stroke-opacity: 0.25; stroke-width: 0.8; stroke-linecap: square"/>
     </g>
     <g id="line2d_10">
      <g>
       <use xlink:href="#m0a60878100" x="456.820204" y="273.4" style="stroke: #000000; stroke-width: 0.8"/>
      </g>
     </g>
     <g id="text_5">
      <!-- 4 -->
      <g transform="translate(453.565204 290.171563) scale(0.14 -0.14)">
       <defs>
        <path id="LibertinusSerif-Regular-34" d="M 2752 1402
Q 2848 1402 2848 1299
Q 2848 1242 2790 1171
Q 2733 1101 2662 1101
L 2221 1101
L 2221 512
Q 2221 358 2269 300
Q 2317 243 2416 227
Q 2515 211 2669 198
Q 2701 173 2701 96
Q 2701 19 2669 -13
Q 2515 -6 2339 -3
Q 2163 0 1971 0
Q 1754 0 1562 -3
Q 1370 -6 1216 -13
Q 1190 19 1190 96
Q 1190 173 1216 198
Q 1357 211 1472 227
Q 1587 243 1660 304
Q 1734 365 1734 512
L 1734 1101
L 429 1101
Q 288 1101 240 1200
Q 192 1299 179 1370
Q 397 1715 637 2070
Q 877 2426 1113 2758
Q 1350 3091 1555 3369
Q 1760 3648 1914 3834
Q 1933 3853 1958 3878
Q 1984 3904 2016 3904
L 2221 3904
L 2234 3891
Q 2227 3853 2224 3683
Q 2221 3514 2221 3270
L 2221 1402
L 2752 1402
z
M 1734 3245
Q 1402 2790 1078 2294
Q 755 1798 512 1402
L 1734 1402
L 1734 3245
z
" transform="scale(0.015625)"/>
       </defs>
       <use xlink:href="#LibertinusSerif-Regular-34"/>
      </g>
     </g>
    </g>
    <g id="text_6">
     <!-- Weight value -->
     <g transform="translate(246.622656 307.22) scale(0.14 -0.14)">
      <defs>
       <path id="LibertinusSerif-Regular-57" d="M 5184 3616
Q 5235 3750 5177 3814
Q 5120 3878 5008 3900
Q 4896 3923 4762 3930
Q 4736 3962 4736 4038
Q 4736 4115 4762 4141
Q 4954 4134 5149 4131
Q 5344 4128 5466 4128
Q 5594 4128 5738 4131
Q 5882 4134 6022 4141
Q 6054 4115 6054 4038
Q 6054 3962 6022 3930
Q 5760 3917 5648 3811
Q 5536 3706 5472 3539
L 4186 90
Q 4160 19 4125 -29
Q 4090 -77 4038 -77
Q 3981 -77 3949 -32
Q 3917 13 3891 96
L 3155 2221
Q 3091 2400 3066 2400
Q 3040 2400 3021 2368
Q 3002 2336 2957 2240
L 2003 96
Q 1965 19 1933 -29
Q 1901 -77 1837 -77
Q 1779 -77 1750 -29
Q 1722 19 1696 96
L 493 3558
Q 435 3731 384 3804
Q 333 3878 259 3900
Q 186 3923 38 3930
Q 13 3962 13 4038
Q 13 4115 38 4141
Q 179 4134 323 4131
Q 467 4128 634 4128
Q 819 4128 1017 4131
Q 1216 4134 1376 4141
Q 1408 4115 1408 4038
Q 1408 3962 1376 3930
Q 1210 3923 1104 3875
Q 998 3827 1056 3661
L 1990 832
L 2022 826
L 2848 2701
Q 2886 2784 2896 2829
Q 2906 2874 2906 2925
Q 2906 2970 2893 3018
Q 2880 3066 2861 3123
L 2714 3546
Q 2669 3667 2550 3792
Q 2432 3917 2176 3930
Q 2150 3962 2150 4038
Q 2150 4115 2176 4141
Q 2330 4134 2493 4131
Q 2656 4128 2816 4128
Q 3008 4128 3213 4131
Q 3418 4134 3616 4141
Q 3648 4115 3648 4038
Q 3648 3962 3616 3930
Q 3507 3923 3411 3897
Q 3315 3872 3270 3795
Q 3226 3718 3283 3546
L 4166 845
L 4186 838
L 5184 3616
z
" transform="scale(0.015625)"/>
       <path id="LibertinusSerif-Regular-65" d="M 2470 595
Q 2579 589 2605 493
Q 2413 243 2147 89
Q 1882 -64 1517 -64
Q 1171 -64 937 45
Q 704 154 538 346
Q 378 531 307 777
Q 237 1024 237 1293
Q 237 1658 355 1939
Q 474 2221 666 2409
Q 858 2598 1082 2697
Q 1306 2797 1517 2797
Q 1965 2797 2195 2630
Q 2426 2464 2512 2208
Q 2598 1952 2598 1683
Q 2598 1574 2477 1574
L 774 1587
Q 774 1312 828 1091
Q 883 870 979 710
Q 1126 467 1315 358
Q 1504 250 1677 250
Q 1958 250 2124 333
Q 2291 416 2470 595
z
M 794 1805
L 1952 1824
Q 2048 1824 2048 1914
Q 2048 2182 1965 2329
Q 1882 2477 1760 2531
Q 1638 2586 1517 2586
Q 1459 2586 1356 2563
Q 1254 2541 1142 2467
Q 1030 2394 934 2234
Q 838 2074 794 1805
z
" transform="scale(0.015625)"/>
       <path id="LibertinusSerif-Regular-69" d="M 1158 781
Q 1158 518 1193 400
Q 1229 282 1328 246
Q 1427 211 1619 198
Q 1651 173 1651 96
Q 1651 19 1619 -13
Q 1459 -6 1280 -3
Q 1101 0 909 0
Q 717 0 534 -3
Q 352 -6 192 -13
Q 166 19 166 96
Q 166 173 192 198
Q 390 218 486 250
Q 582 282 617 400
Q 653 518 653 781
L 653 2029
Q 653 2214 621 2300
Q 589 2387 499 2416
Q 410 2445 237 2464
Q 230 2496 224 2557
Q 218 2618 224 2643
Q 557 2688 761 2733
Q 966 2778 1101 2829
Q 1184 2829 1184 2784
Q 1184 2784 1177 2669
Q 1171 2554 1164 2384
Q 1158 2214 1158 2054
L 1158 781
z
M 576 3814
Q 576 3930 685 4026
Q 794 4122 909 4122
Q 1037 4122 1126 4013
Q 1216 3904 1216 3789
Q 1216 3686 1117 3584
Q 1018 3482 883 3482
Q 768 3482 672 3587
Q 576 3693 576 3814
z
" transform="scale(0.015625)"/>
       <path id="LibertinusSerif-Regular-67" d="M 2842 2477
Q 2790 2477 2736 2515
Q 2682 2554 2662 2592
Q 2611 2669 2534 2669
Q 2470 2669 2390 2617
Q 2310 2566 2278 2515
Q 2419 2374 2486 2224
Q 2554 2074 2554 1850
Q 2554 1536 2400 1318
Q 2246 1101 2000 985
Q 1754 870 1472 870
Q 1286 870 1145 905
Q 1005 941 890 1005
Q 774 845 774 634
Q 774 429 908 349
Q 1043 269 1184 269
Q 1210 269 1258 272
Q 1306 275 1376 282
Q 1491 294 1606 304
Q 1722 314 1805 314
Q 1926 314 2096 304
Q 2266 294 2442 249
Q 2618 205 2739 102
Q 2880 -13 2950 -137
Q 3021 -262 3021 -416
Q 3021 -672 2864 -880
Q 2707 -1088 2444 -1229
Q 2182 -1370 1865 -1446
Q 1549 -1523 1222 -1523
Q 979 -1523 742 -1456
Q 506 -1389 355 -1229
Q 205 -1069 205 -794
Q 205 -589 339 -381
Q 474 -173 730 -19
Q 608 45 521 173
Q 435 301 435 474
Q 435 640 508 822
Q 582 1005 717 1120
Q 582 1248 483 1414
Q 384 1581 384 1837
Q 384 2131 537 2348
Q 691 2566 944 2688
Q 1197 2810 1478 2810
Q 1760 2810 1923 2739
Q 2086 2669 2144 2630
Q 2272 2797 2467 2877
Q 2662 2957 2784 2957
Q 2912 2957 2995 2889
Q 3078 2822 3078 2720
Q 3078 2624 3004 2550
Q 2931 2477 2842 2477
z
M 2042 1786
Q 2042 2182 1882 2396
Q 1722 2611 1421 2611
Q 909 2611 909 1933
Q 909 1728 947 1529
Q 986 1331 1110 1200
Q 1235 1069 1504 1069
Q 1626 1069 1747 1123
Q 1869 1178 1955 1334
Q 2042 1491 2042 1786
z
M 845 -64
Q 704 -230 675 -364
Q 646 -499 646 -666
Q 646 -826 732 -944
Q 819 -1062 944 -1139
Q 1069 -1216 1200 -1251
Q 1331 -1286 1414 -1286
Q 1702 -1286 1993 -1206
Q 2285 -1126 2477 -969
Q 2669 -813 2669 -582
Q 2669 -454 2598 -371
Q 2528 -288 2342 -186
Q 2202 -109 2006 -93
Q 1811 -77 1568 -77
Q 1504 -77 1376 -86
Q 1248 -96 1101 -96
Q 960 -96 845 -64
z
" transform="scale(0.015625)"/>
       <path id="LibertinusSerif-Regular-68" d="M 1069 1830
L 1069 781
Q 1069 518 1097 400
Q 1126 282 1206 246
Q 1286 211 1453 198
Q 1478 173 1478 96
Q 1478 19 1453 -13
Q 1318 -6 1161 -3
Q 1005 0 819 0
Q 627 0 451 -3
Q 275 -6 115 -13
Q 90 19 90 96
Q 90 173 115 198
Q 301 211 397 246
Q 493 282 528 400
Q 563 518 563 781
L 563 3578
Q 563 3846 531 3952
Q 499 4058 409 4077
Q 320 4096 154 4102
Q 128 4134 118 4195
Q 109 4256 115 4294
Q 243 4307 422 4336
Q 602 4365 768 4400
Q 934 4435 1011 4467
Q 1094 4467 1094 4403
Q 1094 4403 1081 4224
Q 1069 4045 1069 3731
L 1062 2291
Q 1062 2227 1084 2249
Q 1107 2272 1126 2291
Q 1421 2618 1699 2714
Q 1978 2810 2214 2810
Q 2381 2810 2521 2755
Q 2662 2701 2746 2592
Q 2854 2445 2886 2221
Q 2918 1997 2918 1734
L 2918 781
Q 2918 518 2950 400
Q 2982 282 3075 250
Q 3168 218 3347 198
Q 3373 173 3373 96
Q 3373 19 3347 -13
Q 3187 -6 3024 -3
Q 2861 0 2669 0
Q 2477 0 2313 -3
Q 2150 -6 2016 -13
Q 1990 19 1990 96
Q 1990 173 2016 198
Q 2182 218 2268 250
Q 2355 282 2384 400
Q 2413 518 2413 781
L 2413 1754
Q 2413 1901 2400 2025
Q 2387 2150 2336 2246
Q 2278 2355 2185 2416
Q 2093 2477 1997 2477
Q 1805 2477 1584 2377
Q 1363 2278 1178 2099
Q 1139 2054 1104 1993
Q 1069 1933 1069 1830
z
" transform="scale(0.015625)"/>
       <path id="LibertinusSerif-Regular-74" d="M 275 2746
L 570 2746
Q 570 3014 566 3155
Q 563 3296 560 3357
Q 557 3418 553 3440
Q 550 3462 550 3488
Q 550 3520 592 3539
Q 634 3558 691 3578
Q 800 3610 909 3667
Q 1011 3725 1050 3725
Q 1101 3725 1101 3667
Q 1101 3667 1088 3488
Q 1075 3309 1075 2995
L 1075 2746
L 1843 2746
Q 1894 2746 1894 2707
L 1894 2579
Q 1894 2534 1843 2515
Q 1792 2496 1741 2496
L 1075 2496
L 1075 877
Q 1075 582 1116 435
Q 1158 288 1286 288
Q 1414 288 1552 329
Q 1690 371 1811 467
Q 1907 461 1926 358
Q 1741 147 1513 41
Q 1286 -64 1062 -64
Q 845 -64 707 83
Q 570 230 570 570
L 570 2496
L 192 2496
Q 160 2496 160 2534
L 160 2618
Q 160 2656 185 2701
Q 211 2746 275 2746
z
" transform="scale(0.015625)"/>
       <path id="LibertinusSerif-Regular-20" transform="scale(0.015625)"/>
       <path id="LibertinusSerif-Regular-76" d="M 2080 2547
Q 2054 2579 2054 2656
Q 2054 2733 2080 2758
Q 2202 2752 2355 2749
Q 2509 2746 2669 2746
Q 2797 2746 2909 2749
Q 3021 2752 3117 2758
Q 3149 2733 3149 2656
Q 3149 2579 3117 2547
Q 2848 2522 2752 2403
Q 2656 2285 2566 2074
L 1715 70
Q 1651 -77 1562 -77
Q 1453 -77 1402 58
L 582 2080
Q 518 2240 467 2336
Q 416 2432 329 2480
Q 243 2528 70 2547
Q 45 2579 45 2656
Q 45 2733 70 2758
Q 218 2752 362 2749
Q 506 2746 666 2746
Q 826 2746 989 2749
Q 1152 2752 1312 2758
Q 1344 2733 1344 2656
Q 1344 2579 1312 2547
Q 1056 2515 1040 2432
Q 1024 2349 1114 2118
L 1574 883
Q 1651 685 1692 678
Q 1734 672 1811 864
L 2330 2118
Q 2426 2362 2384 2445
Q 2342 2528 2080 2547
z
" transform="scale(0.015625)"/>
       <path id="LibertinusSerif-Regular-61" d="M 1875 307
L 1862 307
L 1734 205
Q 1523 45 1363 -9
Q 1203 -64 1037 -64
Q 704 -64 467 86
Q 230 237 230 627
Q 230 954 528 1197
Q 826 1440 1286 1555
L 1837 1690
Q 1875 1702 1875 1766
Q 1875 2131 1792 2307
Q 1709 2483 1587 2540
Q 1466 2598 1357 2598
Q 1178 2598 1011 2537
Q 845 2477 845 2330
Q 845 2278 848 2246
Q 851 2214 858 2202
Q 877 2163 877 2086
Q 877 2022 797 1945
Q 717 1869 576 1869
Q 352 1869 352 2099
Q 352 2285 505 2445
Q 659 2605 902 2707
Q 1146 2810 1408 2810
Q 1645 2810 1865 2730
Q 2086 2650 2230 2416
Q 2374 2182 2374 1728
L 2374 787
Q 2374 570 2400 406
Q 2426 243 2566 243
Q 2630 243 2697 278
Q 2765 314 2803 346
Q 2893 294 2912 173
Q 2810 77 2650 6
Q 2490 -64 2304 -64
Q 2061 -64 1984 48
Q 1907 160 1875 307
z
M 1875 1491
L 1370 1357
Q 1018 1267 890 1068
Q 762 870 762 653
Q 762 506 874 352
Q 986 198 1222 198
Q 1357 198 1510 288
Q 1664 378 1786 480
Q 1824 512 1849 547
Q 1875 582 1875 646
L 1875 1491
z
" transform="scale(0.015625)"/>
       <path id="LibertinusSerif-Regular-6c" d="M 608 781
L 608 3578
Q 608 3821 582 3926
Q 557 4032 470 4061
Q 384 4090 198 4102
Q 173 4134 163 4195
Q 154 4256 160 4294
Q 288 4307 467 4336
Q 646 4365 812 4400
Q 979 4435 1056 4467
Q 1139 4467 1139 4403
Q 1139 4403 1126 4224
Q 1114 4045 1114 3731
L 1114 781
Q 1114 518 1149 396
Q 1184 275 1283 243
Q 1382 211 1574 198
Q 1606 173 1606 96
Q 1606 19 1574 -13
Q 1414 -6 1235 -3
Q 1056 0 864 0
Q 672 0 493 -3
Q 314 -6 147 -13
Q 122 19 122 96
Q 122 173 147 198
Q 346 211 442 243
Q 538 275 573 396
Q 608 518 608 781
z
" transform="scale(0.015625)"/>
       <path id="LibertinusSerif-Regular-75" d="M 1389 -64
Q 1075 -64 892 61
Q 710 186 636 387
Q 563 589 563 806
L 563 2035
Q 563 2349 480 2438
Q 397 2528 166 2547
Q 141 2579 141 2656
Q 141 2733 166 2758
Q 333 2752 499 2749
Q 666 2746 819 2746
Q 979 2746 1043 2758
Q 1094 2758 1094 2720
Q 1094 2720 1088 2595
Q 1082 2470 1075 2313
Q 1069 2157 1069 2061
L 1069 896
Q 1069 614 1158 470
Q 1248 326 1366 281
Q 1485 237 1581 237
Q 1702 237 1872 313
Q 2042 390 2221 544
Q 2291 602 2307 653
Q 2323 704 2323 794
L 2323 2029
Q 2323 2349 2243 2441
Q 2163 2534 1926 2547
Q 1901 2579 1901 2656
Q 1901 2733 1926 2758
Q 2093 2752 2259 2749
Q 2426 2746 2579 2746
Q 2739 2746 2803 2758
Q 2854 2758 2854 2720
Q 2854 2720 2848 2595
Q 2842 2470 2835 2313
Q 2829 2157 2829 2061
L 2829 832
Q 2829 595 2909 492
Q 2989 390 3296 365
Q 3328 339 3328 281
Q 3328 224 3296 192
Q 3002 160 2826 93
Q 2650 26 2541 -64
Q 2483 -90 2419 -64
Q 2419 -64 2390 64
Q 2362 192 2349 314
Q 2342 346 2310 342
Q 2278 339 2253 320
Q 1786 -64 1389 -64
z
" transform="scale(0.015625)"/>
      </defs>
      <use xlink:href="#LibertinusSerif-Regular-57"/>
      <use xlink:href="#LibertinusSerif-Regular-65" transform="translate(95.099991 0)"/>
      <use xlink:href="#LibertinusSerif-Regular-69" transform="translate(139.799988 0)"/>
      <use xlink:href="#LibertinusSerif-Regular-67" transform="translate(166.899979 0)"/>
      <use xlink:href="#LibertinusSerif-Regular-68" transform="translate(216.899963 0)"/>
      <use xlink:href="#LibertinusSerif-Regular-74" transform="translate(270.699951 0)"/>
      <use xlink:href="#LibertinusSerif-Regular-20" transform="translate(302.299942 0)"/>
      <use xlink:href="#LibertinusSerif-Regular-76" transform="translate(327.299927 0)"/>
      <use xlink:href="#LibertinusSerif-Regular-61" transform="translate(376.999924 0)"/>
      <use xlink:href="#LibertinusSerif-Regular-6c" transform="translate(422.699921 0)"/>
      <use xlink:href="#LibertinusSerif-Regular-75" transform="translate(449.099915 0)"/>
      <use xlink:href="#LibertinusSerif-Regular-65" transform="translate(502.199905 0)"/>
     </g>
    </g>
   </g>
   <g id="matplotlib.axis_2">
    <g id="ytick_1">
     <g id="line2d_11">
      <path d="M 44.93 265.942125
L 524.88 265.942125
" clip-path="url(#p0543a3fe22)" style="fill: none; stroke: #b0b0b0; stroke-opacity: 0.25; stroke-width: 0.8; stroke-linecap: square"/>
     </g>
     <g id="line2d_12">
      <defs>
       <path id="m3f03b9ce67" d="M 0 0
L -3.5 0
" style="stroke: #000000; stroke-width: 0.8"/>
      </defs>
      <g>
       <use xlink:href="#m3f03b9ce67" x="44.93" y="265.942125" style="stroke: #000000; stroke-width: 0.8"/>
      </g>
     </g>
     <g id="text_7">
      <!-- 0 -->
      <g transform="translate(31.42 270.827906) scale(0.14 -0.14)">
       <use xlink:href="#LibertinusSerif-Regular-30"/>
      </g>
     </g>
    </g>
    <g id="ytick_2">
     <g id="line2d_13">
      <path d="M 44.93 208.741184
L 524.88 208.741184
" clip-path="url(#p0543a3fe22)" style="fill: none; stroke: #b0b0b0; stroke-opacity: 0.25; stroke-width: 0.8; stroke-linecap: square"/>
     </g>
     <g id="line2d_14">
      <g>
       <use xlink:href="#m3f03b9ce67" x="44.93" y="208.741184" style="stroke: #000000; stroke-width: 0.8"/>
      </g>
     </g>
     <g id="text_8">
      <!-- 2 -->
      <g transform="translate(31.42 213.626965) scale(0.14 -0.14)">
       <use xlink:href="#LibertinusSerif-Regular-32"/>
      </g>
     </g>
    </g>
    <g id="ytick_3">
     <g id="line2d_15">
      <path d="M 44.93 151.540243
L 524.88 151.540243
" clip-path="url(#p0543a3fe22)" style="fill: none; stroke: #b0b0b0; stroke-opacity: 0.25; stroke-width: 0.8; stroke-linecap: square"/>
     </g>
     <g id="line2d_16">
      <g>
       <use xlink:href="#m3f03b9ce67" x="44.93" y="151.540243" style="stroke: #000000; stroke-width: 0.8"/>
      </g>
     </g>
     <g id="text_9">
      <!-- 4 -->
      <g transform="translate(31.42 156.426024) scale(0.14 -0.14)">
       <use xlink:href="#LibertinusSerif-Regular-34"/>
      </g>
     </g>
    </g>
    <g id="ytick_4">
     <g id="line2d_17">
      <path d="M 44.93 94.339302
L 524.88 94.339302
" clip-path="url(#p0543a3fe22)" style="fill: none; stroke: #b0b0b0; stroke-opacity: 0.25; stroke-width: 0.8; stroke-linecap: square"/>
     </g>
     <g id="line2d_18">
      <g>
       <use xlink:href="#m3f03b9ce67" x="44.93" y="94.339302" style="stroke: #000000; stroke-width: 0.8"/>
      </g>
     </g>
     <g id="text_10">
      <!-- 6 -->
      <g transform="translate(31.42 99.225084) scale(0.14 -0.14)">
       <defs>
        <path id="LibertinusSerif-Regular-36" d="M 922 2195
Q 1069 2266 1238 2301
Q 1408 2336 1530 2336
Q 1965 2336 2221 2189
Q 2477 2042 2585 1805
Q 2694 1568 2694 1293
Q 2694 1088 2627 851
Q 2560 614 2416 406
Q 2272 198 2048 64
Q 1824 -70 1510 -70
Q 1325 -70 1113 -9
Q 902 51 713 217
Q 525 384 403 691
Q 282 998 282 1485
Q 282 1862 432 2275
Q 582 2688 877 3034
Q 1146 3347 1469 3558
Q 1792 3770 2278 3910
Q 2355 3866 2355 3744
Q 1933 3584 1645 3331
Q 1357 3078 1184 2784
Q 1011 2490 922 2195
z
M 864 1965
Q 838 1824 825 1699
Q 813 1574 813 1466
Q 813 922 921 637
Q 1030 352 1206 253
Q 1382 154 1581 154
Q 1818 154 1990 403
Q 2163 653 2163 1178
Q 2163 1299 2131 1456
Q 2099 1613 2016 1763
Q 1933 1914 1782 2013
Q 1632 2112 1395 2112
Q 1312 2112 1168 2089
Q 1024 2067 864 1965
z
" transform="scale(0.015625)"/>
       </defs>
       <use xlink:href="#LibertinusSerif-Regular-36"/>
      </g>
     </g>
    </g>
    <g id="ytick_5">
     <g id="line2d_19">
      <path d="M 44.93 37.138361
L 524.88 37.138361
" clip-path="url(#p0543a3fe22)" style="fill: none; stroke: #b0b0b0; stroke-opacity: 0.25; stroke-width: 0.8; stroke-linecap: square"/>
     </g>
     <g id="line2d_20">
      <g>
       <use xlink:href="#m3f03b9ce67" x="44.93" y="37.138361" style="stroke: #000000; stroke-width: 0.8"/>
      </g>
     </g>
     <g id="text_11">
      <!-- 8 -->
      <g transform="translate(31.42 42.024143) scale(0.14 -0.14)">
       <defs>
        <path id="LibertinusSerif-Regular-38" d="M 2515 3104
Q 2515 2899 2380 2723
Q 2246 2547 2064 2419
Q 1882 2291 1728 2214
L 2182 1939
Q 2438 1786 2560 1552
Q 2682 1318 2682 1037
Q 2682 794 2544 538
Q 2406 282 2131 109
Q 1856 -64 1434 -64
Q 928 -64 611 192
Q 294 448 294 934
Q 294 1120 380 1325
Q 467 1530 666 1702
Q 787 1811 915 1894
Q 1043 1978 1184 2054
L 1018 2157
Q 723 2342 588 2547
Q 454 2752 454 3021
Q 454 3270 588 3468
Q 723 3667 963 3785
Q 1203 3904 1530 3904
Q 2003 3904 2259 3677
Q 2515 3450 2515 3104
z
M 1498 3680
Q 1210 3680 1059 3523
Q 909 3366 909 3142
Q 909 2995 982 2832
Q 1056 2669 1357 2470
L 1555 2349
Q 1645 2413 1763 2525
Q 1882 2637 1974 2787
Q 2067 2938 2067 3110
Q 2067 3334 1939 3507
Q 1811 3680 1498 3680
z
M 1446 160
Q 1594 160 1773 214
Q 1952 269 2083 429
Q 2214 589 2214 909
Q 2214 1139 2086 1360
Q 1958 1581 1658 1760
L 1357 1939
Q 1082 1760 947 1561
Q 813 1363 768 1196
Q 723 1030 723 934
Q 723 646 844 476
Q 966 307 1136 233
Q 1306 160 1446 160
z
" transform="scale(0.015625)"/>
       </defs>
       <use xlink:href="#LibertinusSerif-Regular-38"/>
      </g>
     </g>
    </g>
    <g id="text_12">
     <!-- Loss -->
     <g transform="translate(24.143125 156.944219) rotate(-90) scale(0.14 -0.14)">
      <defs>
       <path id="LibertinusSerif-Regular-4c" d="M 954 0
Q 794 0 550 -3
Q 307 -6 122 -13
Q 96 19 96 96
Q 96 173 122 198
Q 346 211 467 243
Q 589 275 633 396
Q 678 518 678 781
L 678 3347
Q 678 3616 633 3734
Q 589 3853 467 3888
Q 346 3923 122 3930
Q 96 3962 96 4038
Q 96 4115 122 4141
Q 346 4134 560 4131
Q 774 4128 947 4128
Q 1133 4128 1347 4131
Q 1562 4134 1779 4141
Q 1811 4115 1811 4038
Q 1811 3962 1779 3930
Q 1555 3923 1433 3888
Q 1312 3853 1267 3734
Q 1222 3616 1222 3347
L 1222 698
Q 1222 454 1312 352
Q 1402 250 1587 250
L 1990 250
Q 2330 250 2534 365
Q 2739 480 2854 669
Q 2970 858 3034 1088
Q 3142 1107 3245 1056
Q 3219 806 3174 518
Q 3130 230 3078 -13
Q 3078 -13 2985 -9
Q 2893 -6 2761 -6
Q 2630 -6 2505 -3
Q 2381 0 2317 0
L 954 0
z
" transform="scale(0.015625)"/>
       <path id="LibertinusSerif-Regular-6f" d="M 262 1312
Q 262 1613 352 1885
Q 442 2157 614 2362
Q 794 2566 1050 2688
Q 1306 2810 1619 2810
Q 1984 2810 2243 2682
Q 2502 2554 2659 2339
Q 2816 2125 2889 1872
Q 2963 1619 2963 1370
Q 2963 1075 2860 790
Q 2758 506 2547 294
Q 2381 134 2147 35
Q 1914 -64 1606 -64
Q 1152 -64 854 144
Q 557 352 409 669
Q 262 986 262 1312
z
M 1523 2586
Q 1235 2586 1081 2419
Q 928 2253 870 1997
Q 813 1741 813 1459
Q 813 1274 857 1050
Q 902 826 1004 624
Q 1107 422 1276 291
Q 1446 160 1696 160
Q 1850 160 2016 243
Q 2182 326 2297 544
Q 2413 762 2413 1165
Q 2413 1856 2176 2221
Q 1939 2586 1523 2586
z
" transform="scale(0.015625)"/>
       <path id="LibertinusSerif-Regular-73" d="M 307 883
Q 339 915 409 918
Q 480 922 506 890
Q 538 768 595 589
Q 653 410 755 301
Q 806 250 915 198
Q 1024 147 1210 147
Q 1331 147 1456 195
Q 1581 243 1667 342
Q 1754 442 1754 595
Q 1754 736 1702 835
Q 1651 934 1510 1024
Q 1370 1114 1101 1222
Q 730 1376 563 1558
Q 397 1741 397 2093
Q 397 2298 525 2461
Q 653 2624 857 2717
Q 1062 2810 1299 2810
Q 1549 2810 1769 2762
Q 1990 2714 2138 2688
Q 2131 2528 2121 2355
Q 2112 2182 2099 2010
Q 2074 1984 2000 1981
Q 1926 1978 1894 2003
Q 1856 2278 1737 2403
Q 1619 2528 1494 2563
Q 1370 2598 1299 2598
Q 1139 2598 995 2492
Q 851 2387 851 2189
Q 851 1926 1027 1814
Q 1203 1702 1491 1594
Q 1818 1472 2029 1270
Q 2240 1069 2240 742
Q 2240 506 2134 349
Q 2029 192 1865 102
Q 1702 13 1529 -25
Q 1357 -64 1222 -64
Q 1043 -64 905 -45
Q 768 -26 640 6
Q 608 19 576 19
Q 544 19 512 19
Q 448 19 352 0
Q 352 205 339 425
Q 326 646 307 883
z
" transform="scale(0.015625)"/>
      </defs>
      <use xlink:href="#LibertinusSerif-Regular-4c"/>
      <use xlink:href="#LibertinusSerif-Regular-6f" transform="translate(52.799988 0)"/>
      <use xlink:href="#LibertinusSerif-Regular-73" transform="translate(103.199982 0)"/>
      <use xlink:href="#LibertinusSerif-Regular-73" transform="translate(142.199966 0)"/>
     </g>
    </g>
   </g>
   <g id="line2d_21">
    <path d="M 66.745909 81.89125
L 74.0422 94.543987
L 81.33849 106.735058
L 88.634781 118.464462
L 95.931072 129.7322
L 103.227362 140.538271
L 110.523653 150.882676
L 117.819944 160.765415
L 123.656976 168.339206
L 129.494009 175.617531
L 135.331041 182.600389
L 141.168074 189.28778
L 147.005106 195.679706
L 152.842139 201.776164
L 158.679171 207.577156
L 164.516204 213.082682
L 170.353237 218.292741
L 176.190269 223.207334
L 182.027302 227.82646
L 187.864334 232.15012
L 193.701367 236.178313
L 199.538399 239.91104
L 205.375432 243.3483
L 211.212464 246.490094
L 217.049497 249.336421
L 222.886529 251.887282
L 228.723562 254.142676
L 234.560594 256.102604
L 240.397627 257.767065
L 246.234659 259.13606
L 252.071692 260.209588
L 257.908725 260.98765
L 263.745757 261.470245
L 269.58279 261.657374
L 275.419822 261.549036
L 281.256855 261.145232
L 287.093887 260.445961
L 292.93092 259.451224
L 298.767952 258.16102
L 304.604985 256.57535
L 310.442017 254.694213
L 316.27905 252.51761
L 322.116082 250.04554
L 327.953115 247.278004
L 333.790147 244.215002
L 339.62718 240.856532
L 345.464213 237.202597
L 351.301245 233.253195
L 357.138278 229.008326
L 362.97531 224.467991
L 368.812343 219.632189
L 374.649375 214.500921
L 380.486408 209.074187
L 386.32344 203.351986
L 392.160473 197.334318
L 397.997505 191.021184
L 403.834538 184.412583
L 409.67157 177.508516
L 415.508603 170.308983
L 421.345635 162.813983
L 427.182668 155.023516
L 434.478959 144.869933
L 441.775249 134.254684
L 449.07154 123.177768
L 456.367831 111.639186
L 463.664121 99.638937
L 470.960412 87.177022
L 478.256703 74.253441
L 485.552993 60.868193
L 492.849284 47.021279
L 500.145575 32.712699
L 503.064091 26.86
L 503.064091 26.86
" clip-path="url(#p0543a3fe22)" style="fill: none; stroke: #ff7f0e; stroke-width: 1.5; stroke-linecap: square"/>
   </g>
   <g id="patch_3">
    <path d="M 44.93 273.4
L 44.93 15.12
" style="fill: none; stroke: #000000; stroke-width: 0.8; stroke-linejoin: miter; stroke-linecap: square"/>
   </g>
   <g id="patch_4">
    <path d="M 524.88 273.4
L 524.88 15.12
" style="fill: none; stroke: #000000; stroke-width: 0.8; stroke-linejoin: miter; stroke-linecap: square"/>
   </g>
   <g id="patch_5">
    <path d="M 44.93 273.4
L 524.88 273.4
" style="fill: none; stroke: #000000; stroke-width: 0.8; stroke-linejoin: miter; stroke-linecap: square"/>
   </g>
   <g id="patch_6">
    <path d="M 44.93 15.12
L 524.88 15.12
" style="fill: none; stroke: #000000; stroke-width: 0.8; stroke-linejoin: miter; stroke-linecap: square"/>
   </g>
   <g id="PathCollection_1">
    <defs>
     <path id="C0_0_1c9f6d5a28" d="M 0 2.738613
C 0.726289 2.738613 1.422928 2.450055 1.936492 1.936492
C 2.450055 1.422928 2.738613 0.726289 2.738613 -0
C 2.738613 -0.726289 2.450055 -1.422928 1.936492 -1.936492
C 1.422928 -2.450055 0.726289 -2.738613 0 -2.738613
C -0.726289 -2.738613 -1.422928 -2.450055 -1.936492 -1.936492
C -2.450055 -1.422928 -2.738613 -0.726289 -2.738613 0
C -2.738613 0.726289 -2.450055 1.422928 -1.936492 1.936492
C -1.422928 2.450055 -0.726289 2.738613 0 2.738613
z
"/>
    </defs>
    <g clip-path="url(#p0543a3fe22)">
     <use xlink:href="#C0_0_1c9f6d5a28" x="124.921667" y="169.94125" style="fill: #1f77b4; stroke: #1f77b4"/>
    </g>
    <g clip-path="url(#p0543a3fe22)">
     <use xlink:href="#C0_0_1c9f6d5a28" x="183.097424" y="228.64125" style="fill: #d62728; stroke: #d62728"/>
    </g>
    <g clip-path="url(#p0543a3fe22)">
     <use xlink:href="#C0_0_1c9f6d5a28" x="444.888333" y="129.585" style="fill: #9467bd; stroke: #9467bd"/>
    </g>
    <g clip-path="url(#p0543a3fe22)">
     <use xlink:href="#C0_0_1c9f6d5a28" x="270.361061" y="261.66" style="fill: #2ca02c; stroke: #2ca02c"/>
    </g>
    <g clip-path="url(#p0543a3fe22)">
     <use xlink:href="#C0_0_1c9f6d5a28" x="110.377727" y="150.680313" style="fill: #ff7f0e; stroke: #ff7f0e"/>
    </g>
    <g clip-path="url(#p0543a3fe22)">
     <use xlink:href="#C0_0_1c9f6d5a28" x="139.465606" y="187.367813" style="fill: #ff7f0e; stroke: #ff7f0e"/>
    </g>
   </g>
   <g id="patch_7">
    <path d="M 126.16266 171.50647
Q 132.192993 179.112314 136.834113 184.965992
" style="fill: none; stroke: #000000; stroke-width: 2; stroke-linecap: round"/>
    <path d="M 135.549029 178.838303
L 136.834113 184.965992
L 131.160912 182.317445
" style="fill: none; stroke: #000000; stroke-width: 2; stroke-linecap: round"/>
   </g>
   <g id="text_13">
    <!-- derivative = -4.28 -->
    <g transform="translate(134.617626 172.801297) scale(0.14 -0.14)">
     <defs>
      <path id="LibertinusSerif-Regular-64" d="M 2138 320
Q 1901 128 1712 32
Q 1523 -64 1338 -64
Q 992 -64 749 112
Q 506 288 378 598
Q 250 909 250 1299
Q 250 1658 368 1939
Q 486 2221 691 2426
Q 883 2611 1110 2710
Q 1338 2810 1651 2810
Q 1760 2810 1869 2784
Q 1978 2758 2058 2729
Q 2138 2701 2150 2701
Q 2208 2701 2208 2758
L 2208 3578
Q 2208 3846 2176 3952
Q 2144 4058 2054 4077
Q 1965 4096 1798 4102
Q 1773 4134 1763 4195
Q 1754 4256 1760 4294
Q 1888 4307 2067 4336
Q 2246 4365 2412 4400
Q 2579 4435 2656 4467
Q 2739 4467 2739 4403
Q 2739 4403 2726 4224
Q 2714 4045 2714 3731
L 2714 832
Q 2714 595 2794 492
Q 2874 390 3181 365
Q 3213 339 3213 281
Q 3213 224 3181 192
Q 2886 160 2710 93
Q 2534 26 2426 -64
Q 2368 -90 2304 -64
Q 2304 -64 2275 67
Q 2246 198 2234 314
Q 2227 346 2195 342
Q 2163 339 2138 320
z
M 2208 794
L 2208 2010
Q 2208 2157 2189 2217
Q 2170 2278 2099 2355
Q 2003 2464 1878 2525
Q 1754 2586 1581 2586
Q 1485 2586 1309 2538
Q 1133 2490 986 2266
Q 915 2163 857 1961
Q 800 1760 800 1414
Q 800 1018 905 755
Q 1011 493 1171 365
Q 1331 237 1504 237
Q 1754 237 2106 544
Q 2176 602 2192 653
Q 2208 704 2208 794
z
" transform="scale(0.015625)"/>
      <path id="LibertinusSerif-Regular-72" d="M 1126 2291
Q 1126 2266 1148 2246
Q 1171 2227 1197 2278
Q 1306 2464 1494 2637
Q 1683 2810 1907 2810
Q 2112 2810 2201 2701
Q 2291 2592 2291 2502
Q 2291 2381 2198 2281
Q 2106 2182 1990 2182
Q 1907 2182 1852 2233
Q 1798 2285 1760 2330
Q 1722 2381 1680 2397
Q 1638 2413 1594 2413
Q 1555 2413 1500 2355
Q 1446 2298 1392 2224
Q 1338 2150 1299 2099
Q 1242 2016 1194 1907
Q 1146 1798 1146 1670
L 1146 781
Q 1146 518 1184 400
Q 1222 282 1334 250
Q 1446 218 1670 198
Q 1702 173 1702 96
Q 1702 19 1670 -13
Q 1504 -6 1296 -3
Q 1088 0 896 0
Q 704 0 518 -3
Q 333 -6 166 -13
Q 141 19 141 96
Q 141 173 166 198
Q 365 211 467 246
Q 570 282 605 400
Q 640 518 640 781
L 640 2029
Q 640 2214 608 2300
Q 576 2387 486 2419
Q 397 2451 224 2464
Q 218 2496 211 2557
Q 205 2618 211 2643
Q 544 2688 704 2733
Q 864 2778 998 2829
Q 1037 2829 1049 2813
Q 1062 2797 1075 2778
Q 1101 2726 1110 2604
Q 1120 2483 1126 2291
z
" transform="scale(0.015625)"/>
      <path id="LibertinusSerif-Regular-3d" d="M 2970 1978
L 480 1978
Q 435 1978 409 2010
Q 384 2042 384 2080
Q 384 2150 435 2224
Q 486 2298 544 2298
L 3053 2298
Q 3104 2298 3123 2262
Q 3142 2227 3142 2189
Q 3142 2144 3088 2061
Q 3034 1978 2970 1978
z
M 2970 915
L 480 915
Q 435 915 409 947
Q 384 979 384 1018
Q 384 1088 435 1161
Q 486 1235 544 1235
L 3053 1235
Q 3104 1235 3123 1200
Q 3142 1165 3142 1126
Q 3142 1082 3088 998
Q 3034 915 2970 915
z
" transform="scale(0.015625)"/>
      <path id="LibertinusSerif-Regular-2d" d="M 1734 1427
L 352 1427
Q 307 1427 281 1465
Q 256 1504 256 1549
Q 256 1638 307 1724
Q 358 1811 416 1811
L 1818 1811
Q 1869 1811 1888 1772
Q 1907 1734 1907 1683
Q 1907 1626 1852 1526
Q 1798 1427 1734 1427
z
" transform="scale(0.015625)"/>
      <path id="LibertinusSerif-Regular-2e" d="M 365 275
Q 365 416 464 515
Q 563 614 704 614
Q 845 614 944 515
Q 1043 416 1043 275
Q 1043 134 944 35
Q 845 -64 704 -64
Q 563 -64 464 35
Q 365 134 365 275
z
" transform="scale(0.015625)"/>
     </defs>
     <use xlink:href="#LibertinusSerif-Regular-64"/>
     <use xlink:href="#LibertinusSerif-Regular-65" transform="translate(50.599991 0)"/>
     <use xlink:href="#LibertinusSerif-Regular-72" transform="translate(95.299988 0)"/>
     <use xlink:href="#LibertinusSerif-Regular-69" transform="translate(132.499985 0)"/>
     <use xlink:href="#LibertinusSerif-Regular-76" transform="translate(159.599976 0)"/>
     <use xlink:href="#LibertinusSerif-Regular-61" transform="translate(209.299973 0)"/>
     <use xlink:href="#LibertinusSerif-Regular-74" transform="translate(254.999969 0)"/>
     <use xlink:href="#LibertinusSerif-Regular-69" transform="translate(286.59996 0)"/>
     <use xlink:href="#LibertinusSerif-Regular-76" transform="translate(313.699951 0)"/>
     <use xlink:href="#LibertinusSerif-Regular-65" transform="translate(363.399948 0)"/>
     <use xlink:href="#LibertinusSerif-Regular-20" transform="translate(408.099945 0)"/>
     <use xlink:href="#LibertinusSerif-Regular-3d" transform="translate(433.09993 0)"/>
     <use xlink:href="#LibertinusSerif-Regular-20" transform="translate(488.099915 0)"/>
     <use xlink:href="#LibertinusSerif-Regular-2d" transform="translate(513.099899 0)"/>
     <use xlink:href="#LibertinusSerif-Regular-34" transform="translate(546.899887 0)"/>
     <use xlink:href="#LibertinusSerif-Regular-2e" transform="translate(593.399872 0)"/>
     <use xlink:href="#LibertinusSerif-Regular-32" transform="translate(615.399857 0)"/>
     <use xlink:href="#LibertinusSerif-Regular-38" transform="translate(661.899841 0)"/>
    </g>
   </g>
   <g id="patch_8">
    <path d="M 199.619756 212.437671
Q 192.071559 219.840246 185.321594 226.459989
" style="fill: none; stroke: #d62728; stroke-linecap: round"/>
    <path d="M 191.280293 224.538034
L 185.321594 226.459989
L 187.35925 220.539857
" style="fill: none; stroke: #d62728; stroke-linecap: round"/>
   </g>
   <g id="text_14">
    <!-- small update -->
    <g style="fill: #d62728" transform="translate(173.401465 205.760874) scale(0.14 -0.14)">
     <defs>
      <path id="LibertinusSerif-Regular-6d" d="M 1088 2291
Q 1088 2234 1117 2250
Q 1146 2266 1165 2291
Q 1363 2515 1612 2662
Q 1862 2810 2138 2810
Q 2387 2810 2560 2672
Q 2733 2534 2778 2342
Q 2790 2298 2812 2310
Q 2835 2323 2848 2336
Q 3098 2598 3379 2704
Q 3661 2810 3904 2810
Q 4186 2810 4326 2675
Q 4467 2541 4515 2310
Q 4563 2080 4563 1792
L 4563 781
Q 4563 518 4592 400
Q 4621 282 4710 246
Q 4800 211 4973 198
Q 4998 173 4998 96
Q 4998 19 4973 -13
Q 4838 -6 4672 -3
Q 4506 0 4314 0
Q 4122 0 3952 -3
Q 3782 -6 3661 -13
Q 3635 19 3635 96
Q 3635 173 3661 198
Q 3827 211 3913 246
Q 4000 282 4029 400
Q 4058 518 4058 781
L 4058 1907
Q 4058 2227 3958 2352
Q 3859 2477 3674 2477
Q 3488 2477 3273 2393
Q 3059 2310 2829 2054
Q 2835 1997 2835 1933
Q 2835 1869 2835 1798
L 2835 781
Q 2835 518 2864 400
Q 2893 282 2973 246
Q 3053 211 3213 198
Q 3238 173 3238 96
Q 3238 19 3213 -13
Q 3091 -6 2934 -3
Q 2778 0 2586 0
Q 2394 0 2224 -3
Q 2054 -6 1933 -13
Q 1907 19 1907 96
Q 1907 173 1933 198
Q 2106 211 2192 246
Q 2278 282 2304 400
Q 2330 518 2330 781
L 2330 1894
Q 2330 2214 2211 2345
Q 2093 2477 1907 2477
Q 1600 2477 1216 2099
Q 1178 2054 1142 1993
Q 1107 1933 1107 1830
L 1107 781
Q 1107 518 1139 400
Q 1171 282 1254 250
Q 1338 218 1504 198
Q 1530 173 1530 96
Q 1530 19 1504 -13
Q 1357 -6 1203 -3
Q 1050 0 858 0
Q 666 0 490 -3
Q 314 -6 166 -13
Q 141 19 141 96
Q 141 173 166 198
Q 346 211 438 246
Q 531 282 566 400
Q 602 518 602 781
L 602 2029
Q 602 2214 570 2300
Q 538 2387 448 2419
Q 358 2451 186 2464
Q 179 2496 172 2557
Q 166 2618 173 2643
Q 506 2688 666 2733
Q 826 2778 960 2829
Q 998 2829 1011 2813
Q 1024 2797 1037 2778
Q 1062 2726 1072 2579
Q 1082 2432 1088 2291
z
" transform="scale(0.015625)"/>
      <path id="LibertinusSerif-Regular-70" d="M 998 2355
Q 1005 2259 1069 2330
Q 1261 2541 1491 2675
Q 1722 2810 1946 2810
Q 2272 2810 2528 2624
Q 2784 2438 2931 2140
Q 3078 1843 3078 1504
Q 3078 1114 2953 816
Q 2829 518 2605 294
Q 2406 109 2169 22
Q 1933 -64 1664 -64
Q 1350 -64 1107 38
Q 1056 58 1037 54
Q 1018 51 1018 -13
L 1018 -704
Q 1018 -966 1053 -1084
Q 1088 -1203 1203 -1238
Q 1318 -1274 1542 -1286
Q 1574 -1312 1574 -1389
Q 1574 -1466 1542 -1498
Q 1382 -1491 1171 -1488
Q 960 -1485 768 -1485
Q 576 -1485 397 -1488
Q 218 -1491 51 -1498
Q 26 -1466 26 -1389
Q 26 -1312 51 -1286
Q 250 -1274 346 -1242
Q 442 -1210 477 -1088
Q 512 -966 512 -704
L 512 2029
Q 512 2214 480 2300
Q 448 2387 358 2419
Q 269 2451 96 2464
Q 90 2496 83 2557
Q 77 2618 83 2643
Q 416 2688 576 2733
Q 736 2778 870 2829
Q 909 2829 921 2813
Q 934 2797 947 2778
Q 973 2726 982 2614
Q 992 2502 998 2355
z
M 1120 2118
Q 1062 2048 1040 1993
Q 1018 1939 1018 1837
L 1018 672
Q 1018 499 1046 438
Q 1075 378 1171 288
Q 1261 211 1401 182
Q 1542 154 1626 154
Q 1894 154 2070 262
Q 2246 371 2345 547
Q 2445 723 2486 928
Q 2528 1133 2528 1331
Q 2528 1696 2422 1961
Q 2317 2227 2144 2371
Q 1971 2515 1766 2515
Q 1626 2515 1437 2393
Q 1248 2272 1120 2118
z
" transform="scale(0.015625)"/>
     </defs>
     <use xlink:href="#LibertinusSerif-Regular-73"/>
     <use xlink:href="#LibertinusSerif-Regular-6d" transform="translate(38.999985 0)"/>
     <use xlink:href="#LibertinusSerif-Regular-61" transform="translate(117.999969 0)"/>
     <use xlink:href="#LibertinusSerif-Regular-6c" transform="translate(163.699966 0)"/>
     <use xlink:href="#LibertinusSerif-Regular-6c" transform="translate(190.09996 0)"/>
     <use xlink:href="#LibertinusSerif-Regular-20" transform="translate(216.499954 0)"/>
     <use xlink:href="#LibertinusSerif-Regular-75" transform="translate(241.499939 0)"/>
     <use xlink:href="#LibertinusSerif-Regular-70" transform="translate(294.59993 0)"/>
     <use xlink:href="#LibertinusSerif-Regular-64" transform="translate(346.499924 0)"/>
     <use xlink:href="#LibertinusSerif-Regular-61" transform="translate(397.099915 0)"/>
     <use xlink:href="#LibertinusSerif-Regular-74" transform="translate(442.799911 0)"/>
     <use xlink:href="#LibertinusSerif-Regular-65" transform="translate(474.399902 0)"/>
    </g>
   </g>
   <g id="patch_9">
    <path d="M 416.5878 121.133332
Q 429.7794 125.07287 441.899717 128.69248
" style="fill: none; stroke: #9467bd; stroke-linecap: round"/>
    <path d="M 437.335111 124.407113
L 441.899717 128.69248
L 435.73266 129.772945
" style="fill: none; stroke: #9467bd; stroke-linecap: round"/>
   </g>
   <g id="text_15">
    <!-- overshoot -->
    <g style="fill: #9467bd" transform="translate(357.624697 115.284765) scale(0.14 -0.14)">
     <use xlink:href="#LibertinusSerif-Regular-6f"/>
     <use xlink:href="#LibertinusSerif-Regular-76" transform="translate(50.399994 0)"/>
     <use xlink:href="#LibertinusSerif-Regular-65" transform="translate(100.099991 0)"/>
     <use xlink:href="#LibertinusSerif-Regular-72" transform="translate(144.799988 0)"/>
     <use xlink:href="#LibertinusSerif-Regular-73" transform="translate(181.999985 0)"/>
     <use xlink:href="#LibertinusSerif-Regular-68" transform="translate(220.999969 0)"/>
     <use xlink:href="#LibertinusSerif-Regular-6f" transform="translate(274.799957 0)"/>
     <use xlink:href="#LibertinusSerif-Regular-6f" transform="translate(325.199951 0)"/>
     <use xlink:href="#LibertinusSerif-Regular-74" transform="translate(375.599945 0)"/>
    </g>
   </g>
   <g id="patch_10">
    <path d="M 289.470297 239.842066
Q 280.574658 249.998644 272.415655 259.314171
" style="fill: none; stroke: #2ca02c; stroke-linecap: round"/>
    <path d="M 278.211635 256.946343
L 272.415655 259.314171
L 273.998981 253.25669
" style="fill: none; stroke: #2ca02c; stroke-linecap: round"/>
   </g>
   <g id="text_16">
    <!-- minimum -->
    <g style="fill: #2ca02c" transform="translate(270.361061 233.05953) scale(0.14 -0.14)">
     <defs>
      <path id="LibertinusSerif-Regular-6e" d="M 1178 2291
Q 1459 2618 1724 2714
Q 1990 2810 2227 2810
Q 2394 2810 2534 2755
Q 2675 2701 2758 2592
Q 2867 2445 2899 2221
Q 2931 1997 2931 1734
L 2931 781
Q 2931 518 2963 400
Q 2995 282 3088 250
Q 3181 218 3360 198
Q 3386 173 3386 96
Q 3386 19 3360 -13
Q 3219 -6 3046 -3
Q 2874 0 2682 0
Q 2490 0 2333 -3
Q 2176 -6 2029 -13
Q 2003 19 2003 96
Q 2003 173 2029 198
Q 2195 218 2281 250
Q 2368 282 2397 400
Q 2426 518 2426 781
L 2426 1754
Q 2426 1901 2413 2025
Q 2400 2150 2349 2246
Q 2291 2355 2198 2416
Q 2106 2477 2010 2477
Q 1824 2477 1619 2377
Q 1414 2278 1229 2099
Q 1190 2054 1155 1993
Q 1120 1933 1120 1830
L 1120 781
Q 1120 518 1149 400
Q 1178 282 1264 250
Q 1350 218 1510 198
Q 1542 173 1542 96
Q 1542 19 1510 -13
Q 1370 -6 1216 -3
Q 1062 0 870 0
Q 678 0 496 -3
Q 314 -6 166 -13
Q 141 19 141 96
Q 141 173 166 198
Q 358 218 454 250
Q 550 282 582 400
Q 614 518 614 781
L 614 2029
Q 614 2214 582 2300
Q 550 2387 460 2419
Q 371 2451 198 2464
Q 192 2496 185 2557
Q 179 2618 186 2643
Q 518 2688 678 2733
Q 838 2778 973 2829
Q 1011 2829 1024 2813
Q 1037 2797 1050 2778
Q 1075 2726 1084 2572
Q 1094 2419 1101 2291
Q 1101 2246 1123 2252
Q 1146 2259 1178 2291
z
" transform="scale(0.015625)"/>
     </defs>
     <use xlink:href="#LibertinusSerif-Regular-6d"/>
     <use xlink:href="#LibertinusSerif-Regular-69" transform="translate(78.999985 0)"/>
     <use xlink:href="#LibertinusSerif-Regular-6e" transform="translate(106.099976 0)"/>
     <use xlink:href="#LibertinusSerif-Regular-69" transform="translate(160.299973 0)"/>
     <use xlink:href="#LibertinusSerif-Regular-6d" transform="translate(187.399963 0)"/>
     <use xlink:href="#LibertinusSerif-Regular-75" transform="translate(266.399948 0)"/>
     <use xlink:href="#LibertinusSerif-Regular-6d" transform="translate(319.499939 0)"/>
    </g>
   </g>
   <g id="patch_11">
    <path d="M 93.876133 166.141145
Q 101.396726 159.094878 108.10144 152.813033
" style="fill: none; stroke: #ff7f0e; stroke-linecap: round"/>
    <path d="M 102.100455 154.598577
L 108.10144 152.813033
L 105.929284 158.685148
" style="fill: none; stroke: #ff7f0e; stroke-linecap: round"/>
   </g>
   <g id="text_17">
    <!-- $w_0-\epsilon$ -->
    <g style="fill: #ff7f0e" transform="translate(61.897929 179.280783) scale(0.14 -0.14)">
     <defs>
      <path id="DejaVuSans-Oblique-77" d="M 544 3500
L 1113 3500
L 1259 684
L 2566 3500
L 3231 3500
L 3425 684
L 4666 3500
L 5241 3500
L 3641 0
L 2969 0
L 2797 2900
L 1459 0
L 781 0
L 544 3500
z
" transform="scale(0.015625)"/>
      <path id="DejaVuSans-30" d="M 2034 4250
Q 1547 4250 1301 3770
Q 1056 3291 1056 2328
Q 1056 1369 1301 889
Q 1547 409 2034 409
Q 2525 409 2770 889
Q 3016 1369 3016 2328
Q 3016 3291 2770 3770
Q 2525 4250 2034 4250
z
M 2034 4750
Q 2819 4750 3233 4129
Q 3647 3509 3647 2328
Q 3647 1150 3233 529
Q 2819 -91 2034 -91
Q 1250 -91 836 529
Q 422 1150 422 2328
Q 422 3509 836 4129
Q 1250 4750 2034 4750
z
" transform="scale(0.015625)"/>
      <path id="DejaVuSans-2212" d="M 678 2272
L 4684 2272
L 4684 1741
L 678 1741
L 678 2272
z
" transform="scale(0.015625)"/>
      <path id="DejaVuSans-Oblique-3b5" d="M 1263 1888
Q 925 1963 778 2166
Q 669 2309 669 2503
Q 669 3034 1175 3344
Q 1575 3588 2188 3588
Q 2425 3588 2684 3550
Q 2944 3513 3234 3438
L 3134 2916
Q 2847 3006 2606 3047
Q 2359 3088 2138 3088
Q 1766 3088 1522 2944
Q 1228 2772 1228 2522
Q 1228 2356 1381 2241
Q 1563 2103 1925 2103
L 2409 2103
L 2319 1628
L 1856 1628
Q 1425 1628 1172 1469
Q 828 1253 828 916
Q 828 703 1013 563
Q 1244 388 1716 388
Q 2006 388 2284 444
Q 2563 503 2806 619
L 2700 84
Q 2403 -3 2131 -47
Q 1859 -91 1609 -91
Q 866 -91 516 194
Q 250 413 250 781
Q 250 1278 600 1584
Q 859 1813 1263 1888
z
" transform="scale(0.015625)"/>
     </defs>
     <use xlink:href="#DejaVuSans-Oblique-77" transform="translate(0 0.9375)"/>
     <use xlink:href="#DejaVuSans-30" transform="translate(81.787109 -15.46875) scale(0.7)"/>
     <use xlink:href="#DejaVuSans-2212" transform="translate(148.540039 0.9375)"/>
     <use xlink:href="#DejaVuSans-Oblique-3b5" transform="translate(251.811523 0.9375)"/>
    </g>
   </g>
   <g id="patch_12">
    <path d="M 126.639092 216.6594
Q 132.650738 202.930756 138.213918 190.22626
" style="fill: none; stroke: #ff7f0e; stroke-linecap: round"/>
    <path d="M 133.402778 194.232871
L 138.213918 190.22626
L 138.532523 196.479139
" style="fill: none; stroke: #ff7f0e; stroke-linecap: round"/>
   </g>
   <g id="text_18">
    <!-- $w_0+\epsilon$ -->
    <g style="fill: #ff7f0e" transform="translate(100.681768 230.268518) scale(0.14 -0.14)">
     <defs>
      <path id="DejaVuSans-2b" d="M 2944 4013
L 2944 2272
L 4684 2272
L 4684 1741
L 2944 1741
L 2944 0
L 2419 0
L 2419 1741
L 678 1741
L 678 2272
L 2419 2272
L 2419 4013
L 2944 4013
z
" transform="scale(0.015625)"/>
     </defs>
     <use xlink:href="#DejaVuSans-Oblique-77" transform="translate(0 0.296875)"/>
     <use xlink:href="#DejaVuSans-30" transform="translate(81.787109 -16.109375) scale(0.7)"/>
     <use xlink:href="#DejaVuSans-2b" transform="translate(148.540039 0.296875)"/>
     <use xlink:href="#DejaVuSans-Oblique-3b5" transform="translate(251.811523 0.296875)"/>
    </g>
   </g>
  </g>
 </g>
 <defs>
  <clipPath id="p0543a3fe22">
   <rect x="44.93" y="15.12" width="479.95" height="258.28"/>
  </clipPath>
 </defs>
</svg>
